<svg width="79" height="79" viewBox="0 0 79 79" fill="none" xmlns="http://www.w3.org/2000/svg">
<rect x="2.5" y="2.5" width="74" height="74" rx="37" stroke="#D083FF" stroke-width="5"/>
<path d="M42.6123 21.7151C42.1784 20.6791 41.1423 20 40 20C38.8577 20 37.8216 20.6791 37.3877 21.7151L26.7612 46.788L23.2191 55.1456C22.6169 56.5646 23.2988 58.1926 24.7422 58.7846C26.1856 59.3766 27.8416 58.7063 28.4437 57.2872L31.2597 50.6447H48.7403L51.5563 57.2872C52.1584 58.7063 53.8144 59.3766 55.2578 58.7846C56.7012 58.1926 57.3831 56.5646 56.7809 55.1456L53.2388 46.788L42.6123 21.7151ZM46.3759 45.0729H33.6241L40 30.0292L46.3759 45.0729Z" fill="#D083FF"/>
</svg>
