<svg width="79" height="79" viewBox="0 0 79 79" fill="none" xmlns="http://www.w3.org/2000/svg">
<rect x="2.5" y="2.5" width="74" height="74" rx="37" stroke="#D083FF" stroke-width="5"/>
<path d="M34.3648 26.3863C32.6684 27.1349 31.757 28.284 31.5038 29.816C31.3013 31.0434 31.4447 31.8355 31.6726 32.3752C31.9089 32.9236 32.3393 33.4546 33.082 33.9943C34.7024 35.1607 37.1582 35.918 40.2471 36.8233C40.3315 36.8494 40.4074 36.8755 40.4918 36.8929C43.2515 37.7025 46.5682 38.6861 49.0072 40.4358C50.3322 41.3846 51.5306 42.6555 52.2648 44.3616C53.0075 46.0851 53.1763 48.0176 52.8218 50.1328C52.2058 53.8323 49.8427 56.3741 46.7623 57.732C43.7748 59.0551 40.0867 59.2902 36.3227 58.6808H36.3058C34.2804 58.3414 31.0143 57.1923 28.9129 56.4524C28.5078 56.3045 28.1365 56.1826 27.8326 56.0781C26.4317 55.582 25.6721 54.0064 26.1363 52.544C26.6005 51.0816 28.1365 50.2982 29.5543 50.777C29.9678 50.9162 30.4151 51.0729 30.8962 51.247C33.0398 51.9956 35.656 52.9183 37.1751 53.1708C40.2808 53.6669 42.8717 53.3884 44.644 52.605C46.3403 51.8563 47.2434 50.7073 47.505 49.1753C47.7075 47.9479 47.5641 47.1558 47.3362 46.6161C47.0999 46.0677 46.6695 45.5367 45.9268 44.997C44.3064 43.8306 41.8506 43.0733 38.7617 42.168C38.6773 42.1419 38.6014 42.1158 38.517 42.0984C35.7573 41.2888 32.4406 40.3052 30.0016 38.5555C28.6766 37.6067 27.4782 36.3358 26.744 34.6297C26.0013 32.9062 25.8325 30.9737 26.187 28.8585L28.8454 29.3372L26.1785 28.8672C26.7946 25.1677 29.1576 22.6259 32.238 21.268C35.2256 19.9449 38.9136 19.7098 42.6776 20.3192C43.7748 20.4932 47.0999 21.1548 48.2983 21.4856C49.7414 21.8773 50.5938 23.4093 50.214 24.8978C49.8343 26.3863 48.3489 27.2655 46.9058 26.8738C45.9606 26.6127 42.8464 25.9859 41.8337 25.8292C38.7195 25.3244 36.1371 25.6116 34.3563 26.395L34.3648 26.3863Z" fill="#D083FF"/>
</svg>
