<svg viewBox="0 0 121 33" fill="none" xmlns="http://www.w3.org/2000/svg" class="StepOne_linkAppStore__H6Au9"><path d="M19.506 14.924c-.032-3.546 2.893-5.27 3.026-5.35-1.656-2.424-4.224-2.755-5.126-2.781-2.156-.228-4.248 1.294-5.346 1.294-1.121 0-2.813-1.272-4.636-1.235-2.346.036-4.54 1.4-5.744 3.515-2.484 4.316-.632 10.657 1.748 14.145 1.19 1.709 2.582 3.616 4.403 3.549 1.782-.074 2.447-1.14 4.597-1.14 2.13 0 2.755 1.14 4.612 1.097 1.912-.03 3.116-1.716 4.265-3.44 1.375-1.958 1.928-3.886 1.95-3.985-.045-.015-3.713-1.42-3.75-5.67ZM15.998 4.498C16.956 3.296 17.612 1.66 17.43 0c-1.387.062-3.121.963-4.12 2.138-.883 1.037-1.673 2.735-1.469 4.332 1.558.117 3.157-.788 4.157-1.972Zm29.288 23.317h-2.49l-1.364-4.3h-4.74l-1.3 4.3H32.97l4.696-14.639h2.901l4.72 14.64Zm-4.265-6.104-1.233-3.822c-.13-.39-.375-1.31-.736-2.758h-.044c-.143.623-.375 1.542-.693 2.758l-1.211 3.822h3.917Zm16.344.697c0 1.795-.483 3.214-1.45 4.256-.866.927-1.942 1.39-3.225 1.39-1.386 0-2.382-.5-2.988-1.498h-.044v5.56h-2.337V20.735c0-1.129-.03-2.287-.087-3.475h2.056l.13 1.673h.044c.78-1.26 1.963-1.89 3.55-1.89 1.241 0 2.277.492 3.106 1.476.83.986 1.245 2.282 1.245 3.889Zm-2.38.085c0-1.027-.231-1.874-.694-2.54-.505-.696-1.184-1.043-2.034-1.043-.577 0-1.101.193-1.57.575a2.67 2.67 0 0 0-.92 1.51c-.071.29-.108.528-.108.715v1.76c0 .768.235 1.416.704 1.945.47.53 1.079.793 1.829.793.88 0 1.565-.34 2.055-1.02.492-.681.737-1.58.737-2.694Zm14.481-.085c0 1.795-.484 3.214-1.452 4.256-.865.927-1.94 1.39-3.224 1.39-1.386 0-2.381-.5-2.986-1.498h-.044v5.56h-2.337V20.735c0-1.129-.03-2.287-.087-3.475h2.056l.13 1.673h.044c.778-1.26 1.961-1.89 3.55-1.89 1.24 0 2.275.492 3.106 1.476.828.986 1.244 2.282 1.244 3.889Zm-2.381.085c0-1.027-.232-1.874-.694-2.54-.506-.696-1.182-1.043-2.034-1.043-.578 0-1.1.193-1.57.575-.47.385-.775.888-.919 1.51-.07.29-.108.528-.108.715v1.76c0 .768.235 1.416.702 1.945.469.528 1.078.793 1.83.793.88 0 1.566-.34 2.056-1.02.491-.681.737-1.58.737-2.694Zm15.907 1.217c0 1.245-.43 2.258-1.295 3.04-.95.855-2.274 1.282-3.975 1.282-1.57 0-2.828-.304-3.78-.912l.541-1.955a6.39 6.39 0 0 0 3.379.935c.88 0 1.565-.2 2.058-.598.49-.398.734-.933.734-1.6 0-.594-.202-1.094-.606-1.5-.403-.406-1.075-.783-2.013-1.132-2.554-.956-3.83-2.356-3.83-4.197 0-1.204.447-2.19 1.343-2.958.892-.77 2.082-1.153 3.571-1.153 1.328 0 2.43.232 3.311.695l-.584 1.912c-.823-.449-1.752-.673-2.793-.673-.822 0-1.464.203-1.925.608a1.74 1.74 0 0 0-.584 1.325c0 .58.223 1.058.67 1.434.389.347 1.096.724 2.122 1.13 1.255.507 2.177 1.1 2.77 1.78.592.677.886 1.525.886 2.537Zm7.728-4.69h-2.577v5.124c0 1.304.454 1.955 1.364 1.955.417 0 .764-.036 1.038-.109l.065 1.781c-.46.173-1.067.26-1.818.26-.923 0-1.645-.283-2.165-.847-.519-.566-.78-1.514-.78-2.846v-5.32h-1.534v-1.76h1.534v-1.933l2.296-.696v2.628h2.576v1.762Zm11.623 3.43c0 1.623-.462 2.955-1.386 3.997-.968 1.072-2.252 1.607-3.854 1.607-1.544 0-2.773-.514-3.69-1.541-.916-1.028-1.374-2.325-1.374-3.888 0-1.635.471-2.975 1.418-4.017.944-1.043 2.217-1.564 3.82-1.564 1.543 0 2.785.514 3.722 1.542.897.998 1.344 2.286 1.344 3.864Zm-2.425.076c0-.973-.207-1.808-.627-2.504-.49-.843-1.19-1.263-2.098-1.263-.94 0-1.653.421-2.144 1.263-.42.697-.627 1.545-.627 2.548 0 .974.208 1.809.627 2.504.506.842 1.212 1.263 2.123 1.263.892 0 1.593-.43 2.098-1.285.431-.71.648-1.553.648-2.526Zm10.019-3.204a4.044 4.044 0 0 0-.737-.065c-.822 0-1.458.312-1.905.935-.389.55-.584 1.245-.584 2.085v5.538h-2.337l.022-7.231a57.71 57.71 0 0 0-.087-3.323h2.035l.086 2.02h.065c.246-.695.635-1.253 1.168-1.673a2.82 2.82 0 0 1 1.69-.565c.216 0 .411.015.584.043v2.236Zm10.459 2.716c0 .42-.027.774-.085 1.064h-7.012c.027 1.043.366 1.84 1.017 2.39.591.492 1.355.738 2.293.738 1.039 0 1.986-.166 2.838-.5l.366 1.629c-.996.435-2.171.652-3.527.652-1.631 0-2.912-.482-3.844-1.444-.929-.963-1.395-2.255-1.395-3.877 0-1.591.433-2.917 1.3-3.974.908-1.129 2.135-1.693 3.678-1.693 1.516 0 2.664.564 3.444 1.693.617.897.927 2.005.927 3.322Zm-2.229-.608c.016-.695-.137-1.296-.454-1.803-.404-.652-1.026-.978-1.862-.978-.764 0-1.386.318-1.861.956-.389.507-.62 1.115-.691 1.824h4.868ZM40.25 4.17c0 1.295-.386 2.27-1.159 2.925-.716.603-1.733.906-3.051.906-.653 0-1.212-.029-1.68-.086V.841a12.36 12.36 0 0 1 1.978-.15c1.255 0 2.202.274 2.84.822.714.62 1.073 1.505 1.073 2.658Zm-1.21.033c0-.84-.222-1.483-.665-1.932-.443-.448-1.09-.672-1.941-.672-.362 0-.67.024-.926.075v5.378c.142.022.4.032.776.032.88 0 1.558-.246 2.036-.736.478-.491.72-1.206.72-2.145Zm7.635 1.098c0 .798-.227 1.451-.68 1.964-.477.527-1.107.79-1.894.79-.759 0-1.363-.252-1.813-.758-.45-.505-.675-1.142-.675-1.91 0-.803.232-1.462.696-1.973.465-.512 1.09-.768 1.877-.768.759 0 1.368.252 1.83.757.439.49.659 1.124.659 1.898Zm-1.192.038c0-.479-.103-.889-.308-1.231-.241-.414-.584-.62-1.03-.62-.462 0-.813.206-1.054.62-.206.342-.308.759-.308 1.252 0 .478.103.888.308 1.23.249.414.595.621 1.043.621.438 0 .782-.21 1.03-.631.213-.35.32-.763.32-1.241Zm9.805-2.587-1.617 5.185H52.62l-.67-2.252c-.17-.562-.308-1.12-.415-1.675h-.021c-.1.57-.238 1.128-.416 1.675l-.711 2.252H49.32L47.8 2.752h1.18l.585 2.465c.141.583.257 1.138.35 1.664h.022c.085-.433.226-.985.426-1.653l.733-2.475h.937l.702 2.422c.17.59.308 1.16.415 1.707h.031c.078-.533.196-1.102.351-1.707l.627-2.422h1.129v-.001Zm5.957 5.185h-1.15v-2.97c0-.915-.346-1.373-1.04-1.373-.342 0-.617.126-.83.378a1.342 1.342 0 0 0-.32.888v3.076h-1.148V4.233c0-.455-.015-.949-.042-1.483h1.01l.053.81h.032c.134-.252.333-.46.595-.626.312-.193.66-.291 1.042-.291.482 0 .883.156 1.202.47.397.383.596.957.596 1.718v3.106Zm3.165 0h-1.148V.373h1.147v7.564Zm6.765-2.636c0 .798-.227 1.451-.68 1.964-.477.527-1.108.79-1.894.79-.76 0-1.364-.252-1.814-.758-.449-.505-.674-1.142-.674-1.91 0-.803.232-1.462.696-1.973.465-.512 1.09-.768 1.876-.768.76 0 1.368.252 1.831.757.438.49.659 1.124.659 1.898Zm-1.193.038c0-.479-.103-.889-.308-1.231-.24-.414-.584-.62-1.03-.62-.462 0-.813.206-1.053.62-.206.342-.308.759-.308 1.252 0 .478.103.888.308 1.23.249.414.595.621 1.043.621.438 0 .781-.21 1.03-.631.213-.35.318-.763.318-1.241Zm6.753 2.598h-1.032l-.085-.597h-.032c-.353.476-.856.715-1.51.715-.487 0-.882-.158-1.18-.47a1.475 1.475 0 0 1-.404-1.056c0-.634.263-1.117.793-1.45.528-.335 1.272-.5 2.229-.491V4.49c0-.683-.358-1.024-1.074-1.024-.51 0-.959.128-1.347.383l-.234-.756c.48-.298 1.074-.448 1.773-.448 1.35 0 2.028.715 2.028 2.145V6.7c0 .518.026.93.075 1.236Zm-1.193-1.782v-.8c-1.267-.022-1.9.327-1.9 1.045 0 .27.072.473.22.609a.802.802 0 0 0 .56.202c.253 0 .489-.08.704-.24a.982.982 0 0 0 .416-.816Zm7.723 1.782h-1.02l-.053-.832h-.032c-.325.633-.88.95-1.66.95-.622 0-1.14-.245-1.552-.736-.411-.49-.616-1.127-.616-1.91 0-.839.223-1.519.67-2.038.433-.484.964-.726 1.595-.726.694 0 1.18.234 1.456.704h.022V.373h1.15V6.54c0 .505.013.97.04 1.397Zm-1.19-2.187v-.864a1.314 1.314 0 0 0-.447-1.062 1.127 1.127 0 0 0-.769-.282c-.429 0-.764.17-1.01.512-.245.342-.37.78-.37 1.313 0 .512.118.928.354 1.248.249.341.584.512 1.004.512.377 0 .679-.142.908-.427.221-.263.33-.58.33-.95Zm11.014-.449c0 .798-.227 1.451-.68 1.964-.477.527-1.106.79-1.894.79-.758 0-1.362-.252-1.813-.758-.45-.505-.675-1.142-.675-1.91 0-.803.232-1.462.697-1.973.464-.512 1.09-.768 1.877-.768.758 0 1.369.252 1.83.757.438.49.658 1.124.658 1.898Zm-1.19.038c0-.479-.104-.889-.309-1.231-.242-.414-.584-.62-1.031-.62-.46 0-.812.206-1.054.62-.206.342-.308.759-.308 1.252 0 .478.103.888.308 1.23.249.414.595.621 1.043.621.438 0 .784-.21 1.031-.631.212-.35.32-.763.32-1.241Zm7.368 2.598H98.12v-2.97c0-.915-.346-1.373-1.042-1.373-.341 0-.616.126-.83.378a1.336 1.336 0 0 0-.318.888v3.076h-1.15V4.233c0-.455-.013-.949-.04-1.483h1.008l.054.81h.031a1.68 1.68 0 0 1 .596-.626 1.94 1.94 0 0 1 1.042-.291c.481 0 .883.156 1.202.47.398.383.595.957.595 1.718v3.106Zm7.732-4.322h-1.265v2.52c0 .64.225.96.67.96.206 0 .377-.018.512-.054l.029.874c-.227.086-.525.129-.892.129-.454 0-.807-.139-1.062-.416-.257-.277-.384-.743-.384-1.398V3.615h-.755v-.863h.755v-.95l1.126-.342v1.29h1.265v.865h.001Zm6.087 4.322h-1.15V4.99c0-.93-.347-1.395-1.041-1.395-.532 0-.896.27-1.096.809a1.452 1.452 0 0 0-.054.415v3.118h-1.147V.373h1.147v3.125h.022c.362-.569.881-.853 1.553-.853.476 0 .869.156 1.182.47.389.39.584.971.584 1.739v3.083Zm6.27-2.837c0 .206-.015.38-.042.522h-3.446c.015.512.18.903.499 1.173.291.242.667.363 1.128.363.51 0 .974-.081 1.393-.245l.18.8c-.49.214-1.067.32-1.734.32-.801 0-1.431-.236-1.887-.709-.458-.473-.685-1.107-.685-1.904 0-.782.211-1.433.638-1.952.445-.555 1.047-.832 1.806-.832.744 0 1.308.277 1.69.832.308.44.46.984.46 1.631Zm-1.096-.3a1.552 1.552 0 0 0-.223-.885c-.199-.32-.503-.481-.914-.481-.375 0-.681.156-.914.47-.191.25-.304.547-.341.896h2.392Z" fill="#fff"></path></svg>