<svg width="48" height="48" viewBox="0 0 48 48" fill="none" xmlns="http://www.w3.org/2000/svg">
<g clip-path="url(#clip0_1_380)">
<path d="M33.248 27.84L38.682 33.272L23.976 47.978L9.272 33.274L14.706 27.84L23.978 37.16L33.248 27.84ZM42.522 18.568L48 24L42.57 29.432L37.136 24L42.522 18.568ZM23.978 18.568L29.41 23.952L23.976 29.386L18.544 24L23.976 18.57L23.978 18.568ZM5.432 18.568L10.82 24L5.436 29.384L0 24L5.432 18.568ZM23.98 0.0200195L38.684 14.68L33.25 20.11L23.978 10.838L14.708 20.158L9.274 14.726L23.978 0.0220195L23.98 0.0200195Z" fill="#7C8496"/>
</g>
<defs>
<clipPath id="clip0_1_380">
<rect width="48" height="48" fill="white"/>
</clipPath>
</defs>
</svg>
