<svg width="48" height="48" viewBox="0 0 48 48" fill="none" xmlns="http://www.w3.org/2000/svg">
<g clip-path="url(#clip0_1_400)">
<path d="M23.8365 17.6379L22.7653 22.0179C23.9775 22.3259 27.7179 23.5859 28.3231 21.1059C28.9536 18.5239 25.0468 17.9479 23.8365 17.6379ZM22.2268 24.2299L21.0459 29.0599C22.5009 29.4299 26.9934 30.9019 27.6572 28.1779C28.3524 25.3339 23.6838 24.5999 22.2268 24.2299Z" fill="#7C8496"/>
<path d="M29.6129 0.717851C17.0195 -2.48677 4.27091 5.33874 1.13255 18.198C-2.00817 31.0525 5.65555 44.075 18.2396 47.282C30.833 50.4866 43.5886 42.6635 46.7246 29.8042C49.8654 16.9474 42.2016 3.92487 29.6129 0.717851ZM34.2934 20.5817C33.9526 22.9197 32.6808 24.0503 30.9976 24.4488C33.3131 25.6778 34.4885 27.5646 33.3695 30.8364C31.9779 34.8956 28.6726 35.2389 24.2718 34.3891L23.2045 38.758L20.628 38.1026L21.6788 33.7962C20.9914 33.6209 20.3057 33.4384 19.6219 33.2489L18.5663 37.5793L15.9922 36.9192L17.0595 32.5432C16.4553 32.3847 15.8441 32.2167 15.2211 32.0583L11.8618 31.2061L13.1453 28.1911C13.1453 28.1911 15.0448 28.7072 15.0189 28.6688C15.75 28.8537 16.0721 28.3688 16.1991 28.0423L17.8893 21.141L18.1596 21.2106C18.0724 21.1747 17.9829 21.145 17.8917 21.1218L19.0953 16.1936C19.1258 15.6319 18.9401 14.9262 17.894 14.6597C17.9363 14.6333 16.0204 14.1844 16.0204 14.1844L16.7045 11.3711L20.2636 12.2785L20.2613 12.2905C20.7949 12.4273 21.345 12.5569 21.9069 12.6865L22.9624 8.36092L25.5413 9.01624L24.5069 13.2555C25.198 13.4163 25.8962 13.5795 26.5733 13.7524L27.603 9.53955L30.1818 10.1949L29.1263 14.5205C32.3798 15.6703 34.7589 17.3891 34.2934 20.5817Z" fill="#7C8496"/>
</g>
<defs>
<clipPath id="clip0_1_400">
<rect width="47" height="48" fill="white" transform="translate(0.428589)"/>
</clipPath>
</defs>
</svg>
