<svg width="138" height="40" viewBox="0 0 138 40" fill="none" xmlns="http://www.w3.org/2000/svg">
<g clip-path="url(#clip0_1_175)">
<path d="M47.1525 24.2189C47.1525 25.0472 46.5539 28.0552 41.4827 28.0552H36.1545V13.2752H41.4843C45.9761 13.2752 46.514 16.485 46.514 17.1325C46.514 19.1717 45.1763 20.1001 43.9792 20.5247C45.4174 20.867 47.1525 21.7744 47.1525 24.2189ZM41.165 13.9808H38.3509V20.0791H41.5848C42.782 20.0791 44.3399 19.1701 44.3399 17.2326C44.3383 15.153 43.0007 13.9808 41.165 13.9808ZM44.7374 24.1172C44.7374 21.0689 41.5641 20.7863 40.9448 20.7863H38.3493V27.2673H41.4827C41.4843 27.2673 44.7374 27.1866 44.7374 24.1172Z" fill="#80828E"/>
<path d="M66.8355 20.6248C66.8355 25.9756 63.6814 28.3184 59.7898 28.3184C55.8966 28.3184 52.744 25.9756 52.744 20.6248C52.744 15.4565 55.8982 12.9523 59.7898 12.9523C63.6814 12.9507 66.8355 15.4145 66.8355 20.6248ZM64.4396 20.6248C64.4396 15.8795 62.3629 13.6191 59.7882 13.6191C57.2326 13.6191 55.1368 15.9215 55.1368 20.6248C55.1368 25.5106 57.2326 27.6306 59.7882 27.6306C62.3645 27.6306 64.4396 25.5106 64.4396 20.6248Z" fill="#80828E"/>
<path d="M88.2744 28.0552H86.1387L84.402 17.9188L78.9732 28.0552L74.0026 18.5856L72.9251 28.0552H72.0264L73.7025 13.2752L79.6708 24.7437L85.8386 13.2752L88.3542 28.0358L88.2744 28.0552Z" fill="#80828E"/>
<path d="M104.942 24.2189C104.942 25.0472 104.344 28.0552 99.2724 28.0552H93.9426V13.2752H99.2724C103.764 13.2752 104.302 16.485 104.302 17.1325C104.302 19.1717 102.964 20.1001 101.767 20.5247C103.205 20.867 104.942 21.7744 104.942 24.2189ZM98.9548 13.9808H96.1406V20.0791H99.3746C100.572 20.0791 102.13 19.1701 102.13 17.2326C102.128 15.153 100.79 13.9808 98.9548 13.9808ZM102.527 24.1172C102.527 21.0689 99.3538 20.7863 98.7345 20.7863H96.139V27.2673H99.2724C99.274 27.2673 102.527 27.1866 102.527 24.1172Z" fill="#80828E"/>
<path d="M109.535 28.0552L116.082 13.2752L122.79 28.0552H120.374L119.117 25.2684H111.75L110.513 28.0552H109.535ZM112.09 24.5015H118.758L115.385 17.0711L112.09 24.5015Z" fill="#80828E"/>
<path d="M138 13.2752L132.71 21.6743V28.0552H130.514V21.9375L124.785 13.2752H127.439L132.29 20.6442L136.921 13.2752H138Z" fill="#80828E"/>
<path d="M27.7695 23.0501C27.7695 17.6751 24.7974 12.9783 20.371 10.5435C20.877 9.56342 21.1484 8.48164 21.1484 7.33204C21.1484 5.06677 20.1013 3.14055 18.446 1.85695C16.8242 0.607252 15.236 -0.170983 12.2303 0.0324561C9.18947 0.234281 7.46554 2.0943 7.46554 2.0943C7.3985 2.16211 7.29634 2.26383 7.2293 2.33164C6.45194 3.20998 6.08002 4.29176 6.08002 5.37354C6.08002 6.72496 6.62114 8.04408 7.73531 8.99023C7.93803 9.15977 8.17427 9.32768 8.37699 9.46331C8.68027 9.63284 9.08571 9.49722 9.18787 9.15977L9.62683 8.01017L9.69387 7.87455V7.84064C9.62683 7.80674 9.55819 7.77283 9.49115 7.73892C8.30835 6.99459 7.63315 5.64318 7.80235 4.19004C7.86939 3.71696 8.00507 3.3117 8.20779 2.90482C8.34347 2.66748 9.62683 0.741264 13.1736 1.08033C13.7148 1.14814 14.2878 1.28377 14.896 1.5195C15.1657 1.62122 15.4371 1.75684 15.6733 1.89086H15.7069C17.2951 2.8031 18.3422 4.49358 18.3422 6.4537C18.3422 8.00856 17.8011 9.59732 16.7205 10.5774C16.5513 10.713 16.3821 10.8809 16.1793 11.0166C15.5377 11.3879 14.7938 11.6253 14.0516 11.7609V7.77283C14.0516 7.73892 14.0516 7.73892 14.0516 7.73892V5.81271C14.0516 5.50917 13.8488 5.23791 13.5791 5.1701L11.8216 4.62921V11.8965H10.2669C9.86148 11.8965 9.52308 12.1339 9.38899 12.5052L8.95003 13.7565L11.6189 13.7904C13.3077 13.8582 14.896 14.1957 16.3485 14.7705C16.7875 14.94 17.2265 15.1418 17.6654 15.3453C19.8283 16.4949 21.5171 18.3872 22.3615 20.6864C22.8005 21.8021 23.0032 23.0195 23.0032 24.2692C23.0032 24.81 22.9697 25.3509 22.8675 25.8579C22.7318 26.9736 22.395 28.0215 21.921 29.0015C20.1635 32.72 16.3805 35.3227 11.9892 35.3227C9.65876 35.3227 7.49587 34.58 5.70491 33.3287C5.43515 33.1252 5.16379 32.9234 4.89403 32.686C4.5221 32.3825 4.21882 32.0773 3.91394 31.7399C2.73114 30.3885 1.9889 28.698 1.9889 26.8396C1.9889 22.7498 5.29947 19.7079 9.3874 19.7079C10.3675 19.7079 11.2789 19.8775 12.1233 20.2149C12.9007 20.5524 13.6094 21.0254 14.1505 21.6341C14.7252 22.3785 15.062 23.2907 15.062 24.3047C15.062 25.2847 14.7236 26.1631 14.1841 26.9074C13.4753 27.7179 12.4617 27.8536 11.9876 27.8536C11.3795 27.8197 10.8384 27.684 10.468 27.5839C10.1648 27.4822 9.79284 27.6517 9.69068 27.9553L9.42092 28.698C10.0291 29.0015 10.7378 29.205 11.4481 29.2728H11.4816C11.5487 29.2728 11.6173 29.2728 11.6844 29.2728C11.7179 29.2728 11.7514 29.2728 11.7849 29.2728C11.8184 29.2728 11.8184 29.2728 11.852 29.2728C11.919 29.2728 12.0212 29.2728 12.0882 29.2728H12.1217C12.2223 29.2728 12.3245 29.2728 12.425 29.2389C15.635 28.9353 18.2353 25.9596 18.2353 22.5464C18.2353 19.674 16.4778 17.2392 13.9446 16.2591C13.8441 16.2252 13.7419 16.1913 13.6413 16.1574C12.5272 15.7522 11.3444 15.5148 10.0945 15.5148C7.0202 15.5148 4.25075 16.9001 2.39274 19.0637C0.911444 20.7865 0 23.084 0 25.5851C0 25.6529 0 25.7546 0 25.8224C0 25.8563 0 25.8563 0 25.8902C0 25.958 0 26.0597 0 26.1276C0 26.331 0.0335207 26.5328 0.0335207 26.7024C0.641682 32.6844 5.7097 37.349 11.7562 37.3829V39.9178L13.5807 39.4447C13.8169 39.3769 13.9861 39.1751 13.9861 38.9039V37.7543C13.9861 37.7204 13.9861 37.6864 13.9861 37.6525V37.483C21.6209 37.2134 27.7025 30.96 27.7025 23.2875C27.7025 23.2536 27.7025 23.2197 27.7025 23.1858C27.7695 23.1519 27.7695 23.084 27.7695 23.0501Z" fill="#80828E"/>
<path d="M36.437 34.6573H37.3373V39.1862H39.7843V39.9984H36.437V34.6573Z" fill="#80828E"/>
<path d="M45.9361 34.6573H46.8364V40H45.9361V34.6573Z" fill="#80828E"/>
<path d="M52.9516 34.6573H53.9189L55.3251 38.6906H55.3331L56.7314 34.6573H57.6908L55.7194 40H54.9229L52.9516 34.6573Z" fill="#80828E"/>
<path d="M63.7229 34.6573H67.0478V35.4694H64.6232V36.9436H66.5801V37.7557H64.6232V39.1846H67.2043V39.9968H63.7229V34.6573Z" fill="#80828E"/>
</g>
<defs>
<clipPath id="clip0_1_175">
<rect width="138" height="40" fill="white"/>
</clipPath>
</defs>
</svg>
