<svg xmlns="http://www.w3.org/2000/svg" version="1.1" xmlns:xlink="http://www.w3.org/1999/xlink" xmlns:svgjs="http://svgjs.com/svgjs" x="0" y="0" style="enable-background:new 0 0 512 512" xml:space="preserve" className="" viewBox="6.16 7.16 85.68 85.68"><g><linearGradient id="b" x1="49.659" x2="8.892" y1="7.16" y2="94.121" gradientUnits="userSpaceOnUse"><stop offset="0" stop-color="#eda24a"></stop><stop offset="1" stop-color="#c86721"></stop></linearGradient><linearGradient id="a"><stop offset="0" stop-color="#9d5a27"></stop><stop offset="1" stop-color="#713e17"></stop></linearGradient><linearGradient xlink:href="#a" id="c" x1="19" x2="40.454" y1="50.722" y2="52.383" gradientUnits="userSpaceOnUse"></linearGradient><linearGradient xlink:href="#a" id="d" x1="28" x2="50.526" y1="19.708" y2="21.452" gradientUnits="userSpaceOnUse"></linearGradient><linearGradient xlink:href="#a" id="e" x1="60" x2="86.817" y1="34.653" y2="36.728" gradientUnits="userSpaceOnUse"></linearGradient><linearGradient xlink:href="#a" id="f" x1="47" x2="63.09" y1="67.792" y2="69.037" gradientUnits="userSpaceOnUse"></linearGradient><linearGradient xlink:href="#a" id="g" x1="0" x2="3.218" y1="-.042" y2=".207" gradientUnits="userSpaceOnUse"></linearGradient><path fill="url(#b)" d="M41.791 9.044a14.735 14.735 0 0 1 14.418 0 14.735 14.735 0 0 0 7.026 1.882 14.735 14.735 0 0 1 12.486 7.21 14.733 14.733 0 0 0 5.144 5.143 14.735 14.735 0 0 1 7.209 12.486c.03 2.463.678 4.878 1.882 7.026a14.735 14.735 0 0 1 0 14.418 14.735 14.735 0 0 0-1.882 7.026 14.735 14.735 0 0 1-7.21 12.486 14.735 14.735 0 0 0-5.143 5.144 14.735 14.735 0 0 1-12.486 7.208c-2.462.031-4.878.678-7.026 1.883a14.735 14.735 0 0 1-14.418 0 14.736 14.736 0 0 0-7.026-1.883 14.735 14.735 0 0 1-12.486-7.208 14.736 14.736 0 0 0-5.144-5.144 14.735 14.735 0 0 1-7.208-12.486 14.735 14.735 0 0 0-1.883-7.026 14.735 14.735 0 0 1 0-14.418 14.734 14.734 0 0 0 1.883-7.026 14.735 14.735 0 0 1 7.208-12.486 14.735 14.735 0 0 0 5.144-5.144 14.735 14.735 0 0 1 12.486-7.209 14.735 14.735 0 0 0 7.026-1.882z" data-original="url(#b)"></path><circle cx="29" cy="61" r="10" fill="url(#c)" data-original="url(#c)"></circle><circle cx="38.5" cy="30.5" r="10.5" fill="url(#d)" data-original="url(#d)"></circle><circle cx="72.5" cy="47.5" r="12.5" fill="url(#e)" data-original="url(#e)"></circle><circle cx="54.5" cy="75.5" r="7.5" fill="url(#f)" data-original="url(#f)"></circle><g fill="url(#g)"><circle cx="1.5" cy="1.5" r="1.5" transform="matrix(1 0 0 -1 18 46)" fill=""></circle><circle cx="1.5" cy="1.5" r="1.5" transform="matrix(1 0 0 -1 72 30)" fill=""></circle><circle cx="1.5" cy="1.5" r="1.5" transform="matrix(1 0 0 -1 70 75)" fill=""></circle><circle cx="1.5" cy="1.5" r="1.5" transform="matrix(1 0 0 -1 48 53)" fill=""></circle><circle cx="1.5" cy="1.5" r="1.5" transform="matrix(1 0 0 -1 52 21)" fill=""></circle><circle cx="1.5" cy="1.5" r="1.5" transform="matrix(1 0 0 -1 37 79)" fill=""></circle></g></g></svg>