<svg width="49" height="48" viewBox="0 0 49 48" fill="none" xmlns="http://www.w3.org/2000/svg">
<g clip-path="url(#clip0_1_403)">
<path d="M24.7144 0C37.9699 0 48.7144 10.7445 48.7144 24C48.7144 37.2555 37.9699 48 24.7144 48C11.4589 48 0.714355 37.2555 0.714355 24C0.714355 10.7445 11.4589 0 24.7144 0ZM24.4579 12H14.6299V19.791H11.2144V22.5825H14.6299V25.512H11.2144V28.302H14.6299V36H24.4579C30.3679 36 34.8649 32.8575 36.5944 28.3035H39.7144V25.5135H37.2784C37.3384 25.0185 37.3684 24.5115 37.3684 23.9985V23.9295C37.3684 23.4735 37.3444 23.0235 37.2979 22.5825H39.7144V19.7925H36.6529C34.9669 15.171 30.4354 12 24.4579 12ZM33.5839 28.3035C32.0734 31.416 28.8274 33.4965 24.4579 33.4965H17.3779V28.3035H33.5839ZM34.4299 22.5825C34.4929 23.043 34.5259 23.5155 34.5259 23.9985V24.066C34.5259 24.5595 34.4914 25.041 34.4254 25.512H17.3764V22.5825H34.4314H34.4299ZM24.4594 14.499C28.8484 14.499 32.1049 16.635 33.6064 19.791H17.3764V14.499H24.4564H24.4594Z" fill="#7C8496"/>
</g>
<defs>
<clipPath id="clip0_1_403">
<rect width="48" height="48" fill="white" transform="translate(0.714355)"/>
</clipPath>
</defs>
</svg>
