<svg width="48" height="48" viewBox="0 0 48 48" fill="none" xmlns="http://www.w3.org/2000/svg">
<g clip-path="url(#clip0_1_405)">
<path d="M24.5761 15.816H21.1461V22.576H26.5401V25.406H21.1461V32.166H24.7441C25.6681 32.166 32.3321 32.27 32.3221 24.3C32.3121 16.332 25.8581 15.816 24.5761 15.816ZM24.0001 0C10.7461 0 0.00012207 10.746 0.00012207 24C0.00012207 37.254 10.7461 48 24.0001 48C37.2541 48 48.0001 37.254 48.0001 24C48.0001 10.746 37.2541 0 24.0001 0ZM24.9441 36.962H16.2521V25.406H13.1881V22.576H16.2521V11.022H23.7121C25.4761 11.022 37.1661 10.656 37.1661 24.21C37.1641 37.986 24.9441 36.962 24.9441 36.962Z" fill="#7C8496"/>
</g>
<defs>
<clipPath id="clip0_1_405">
<rect width="48" height="48" fill="white"/>
</clipPath>
</defs>
</svg>
