<svg width="349" height="126" viewBox="0 0 349 126" fill="none" xmlns="http://www.w3.org/2000/svg">
<g opacity="0.13">
<path d="M49.7 104.4V124.7H84.7V104.4H49.7ZM84.7 74.7V52.3H49.7V74.7H38.4L53.5 38.4H16.8L0 77.2V84.1H98V74.7H84.7ZM66.1 8.09998H29.9L21.4 27.6H58L66.1 8.09998Z" fill="#7D4FE9"/>
<path d="M149.8 7.09998C132.1 7.09998 119 14.2 111.2 27.6H188.1C180.3 14.2 167.3 7.09998 149.8 7.09998ZM192.9 38.4H157.4C159.6 43.4 160.4 52.3 160.4 66.4C160.4 73.6 160.2 79.4 159.7 84.1H195.4C196.3 78.7 196.8 72.8 196.8 66.4C196.8 55.7 195.5 46.3 192.9 38.4ZM149.8 125.7C167.7 125.7 180.8 118.3 188.6 104.4H110.8C118.6 118.3 131.7 125.7 149.8 125.7ZM139 66.4C139 52.4 139.8 43.5 142.1 38.4H106.5C103.9 46.3 102.6 55.7 102.6 66.4C102.6 72.8 103.1 78.7 104 84.1H139.7C139.2 79.4 139 73.6 139 66.4Z" fill="#7D4FE9"/>
<path d="M254.6 104.4V124.7H289.6V104.4H254.6ZM289.6 74.7V52.3H254.6V74.7H243.3L258.4 38.4H221.7L204.9 77.2V84.1H302.9V74.7H289.6ZM271 8.09998H234.8L226.3 27.6H262.8L271 8.09998Z" fill="#7D4FE9"/>
<path d="M50.2 27.6L45.7 38.4H9L13.7 27.6H50.2Z" fill="#7D4FE9"/>
<path d="M185.1 38.4H149.6C147.9 34.6 145.5 33 142 33C138.4 33 135.9 34.6 134.3 38.4H98.7002C100 34.4 101.6 30.8 103.4 27.6H180.3C182.3 30.8 183.9 34.4 185.1 38.4Z" fill="#7D4FE9"/>
<path d="M255.1 27.6L250.6 38.4H213.9L218.6 27.6H255.1Z" fill="#7D4FE9"/>
<path d="M108.4 84.1V102.1H95.0999V104.4H59.9999V102.1H10.3999V84.1H108.4Z" fill="#7D4FE9"/>
<path d="M205.8 84.1C204.5 91.9 202.2 98.7 199 104.4H121.2C118 98.7 115.7 91.9 114.4 84.1H150.1C151.3 95.3 154.3 99.8 160.2 99.8C165.9 99.8 168.9 95.3 170.1 84.1H205.8Z" fill="#7D4FE9"/>
<path d="M313.3 84.1V102.1H300V104.4H265V102.1H215.3V84.1H313.3Z" fill="#7D4FE9"/>
<path d="M22.2001 51.7999H3.1001V56.2999H22.2001V51.7999Z" fill="#7D4FE9"/>
<path d="M172 53.1H152.9V62.5H172V53.1Z" fill="#7D4FE9"/>
<path d="M294 59.7H274.9V69.1H294V59.7Z" fill="#7D4FE9"/>
</g>
<g opacity="0.26">
<path d="M58.2001 104.4V124.7H93.2001V104.4H58.2001ZM93.2001 74.7V52.3H58.2001V74.7H46.9001L62.0001 38.4H25.3001L8.6001 77.2V84.1H106.6V74.7H93.2001ZM74.6001 8.09998H38.4001L30.0001 27.6H66.5001L74.6001 8.09998Z" fill="#7D4FE9"/>
<path d="M158.3 7.09998C140.6 7.09998 127.5 14.2 119.7 27.6H196.6C188.9 14.2 175.9 7.09998 158.3 7.09998ZM201.5 38.4H166C168.2 43.4 169 52.3 169 66.4C169 73.6 168.8 79.4 168.3 84.1H204C204.9 78.7 205.4 72.8 205.4 66.4C205.3 55.7 204 46.3 201.5 38.4ZM158.3 125.7C176.2 125.7 189.3 118.3 197.1 104.4H119.3C127.1 118.3 140.3 125.7 158.3 125.7ZM147.5 66.4C147.5 52.4 148.3 43.5 150.6 38.4H115C112.4 46.3 111.1 55.7 111.1 66.4C111.1 72.8 111.6 78.7 112.5 84.1H148.2C147.8 79.4 147.5 73.6 147.5 66.4Z" fill="#7D4FE9"/>
<path d="M263.1 104.4V124.7H298.1V104.4H263.1ZM298.2 74.7V52.3H263.2V74.7H251.9L267 38.4H230.3L213.5 77.2V84.1H311.5V74.7H298.2ZM279.6 8.09998H243.4L234.9 27.6H271.4L279.6 8.09998Z" fill="#7D4FE9"/>
<path d="M58.8001 27.6L54.3001 38.4H17.6001L22.2001 27.6H58.8001Z" fill="#7D4FE9"/>
<path d="M193.7 38.4H158.2C156.5 34.6 154.1 33 150.6 33C147 33 144.5 34.6 142.9 38.4H107.3C108.6 34.4 110.2 30.8 112 27.6H188.9C190.8 30.8 192.4 34.4 193.7 38.4Z" fill="#7D4FE9"/>
<path d="M263.7 27.6L259.2 38.4H222.5L227.2 27.6H263.7Z" fill="#7D4FE9"/>
<path d="M116.9 84.1V102.1H103.6V104.4H68.5999V102.1H18.8999V84.1H116.9Z" fill="#7D4FE9"/>
<path d="M214.3 84.1C213 91.9 210.7 98.7 207.5 104.4H129.7C126.5 98.7 124.2 91.9 122.9 84.1H158.6C159.8 95.3 162.8 99.8 168.7 99.8C174.4 99.8 177.4 95.3 178.6 84.1H214.3Z" fill="#7D4FE9"/>
<path d="M321.8 84.1V102.1H308.5V104.4H273.5V102.1H223.9V84.1H321.8Z" fill="#7D4FE9"/>
<path d="M30.7001 51.7999H11.6001V56.2999H30.7001V51.7999Z" fill="#7D4FE9"/>
<path d="M180.5 53.1H161.4V62.5H180.5V53.1Z" fill="#7D4FE9"/>
<path d="M302.6 59.7H283.5V69.1H302.6V59.7Z" fill="#7D4FE9"/>
</g>
<g opacity="0.06">
<path d="M85.4002 104.4V124.7H120.4V104.4H85.4002ZM120.4 74.7V52.3H85.4002V74.7H74.1002L89.2002 38.4H52.5002L35.7002 77.2V84.1H133.7V74.7H120.4ZM101.8 8.09998H65.6002L57.1002 27.6H93.6002L101.8 8.09998Z" fill="#E150E7"/>
<path d="M185.5 7.09998C167.8 7.09998 154.7 14.2 146.9 27.6H223.8C216.1 14.2 203.1 7.09998 185.5 7.09998ZM228.6 38.4H193.1C195.3 43.4 196.1 52.3 196.1 66.4C196.1 73.6 195.9 79.4 195.4 84.1H231.1C232 78.7 232.5 72.8 232.5 66.4C232.5 55.7 231.2 46.3 228.6 38.4ZM185.5 125.7C203.4 125.7 216.5 118.3 224.3 104.4H146.5C154.3 118.3 167.5 125.7 185.5 125.7ZM174.7 66.4C174.7 52.4 175.5 43.5 177.8 38.4H142.2C139.6 46.3 138.3 55.7 138.3 66.4C138.3 72.8 138.8 78.7 139.7 84.1H175.4C175 79.4 174.7 73.6 174.7 66.4Z" fill="#E150E7"/>
<path d="M290.3 104.4V124.7H325.3V104.4H290.3ZM325.4 74.7V52.3H290.4V74.7H279L294.1 38.4H257.4L240.6 77.2V84.1H338.6V74.7H325.4ZM306.8 8.09998H270.6L262.1 27.6H298.6L306.8 8.09998Z" fill="#E150E7"/>
<path d="M86.0003 27.6L81.5003 38.4H44.8003L49.4003 27.6H86.0003Z" fill="#E150E7"/>
<path d="M220.9 38.4H185.4C183.7 34.6 181.3 33 177.8 33C174.2 33 171.7 34.6 170.1 38.4H134.5C135.8 34.4 137.4 30.8 139.2 27.6H216.1C218 30.8 219.6 34.4 220.9 38.4Z" fill="#E150E7"/>
<path d="M290.9 27.6L286.4 38.4H249.7L254.4 27.6H290.9Z" fill="#E150E7"/>
<path d="M144.1 84.1V102.1H130.8V104.4H95.8001V102.1H46.1001V84.1H144.1Z" fill="#E150E7"/>
<path d="M241.5 84.1C240.2 91.9 237.9 98.7 234.7 104.4H156.9C153.7 98.7 151.4 91.9 150.1 84.1H185.8C187 95.3 190 99.8 195.9 99.8C201.6 99.8 204.6 95.3 205.8 84.1H241.5Z" fill="#E150E7"/>
<path d="M349 84.1V102.1H335.7V104.4H300.7V102.1H251.1V84.1H349Z" fill="#E150E7"/>
<path d="M57.9003 51.7999H38.8003V56.2999H57.9003V51.7999Z" fill="#E150E7"/>
<path d="M207.7 53.1H188.6V62.5H207.7V53.1Z" fill="#E150E7"/>
<path d="M329.8 59.7H310.7V69.1H329.8V59.7Z" fill="#E150E7"/>
</g>
<g opacity="0.22">
<path d="M77.3002 104.4V124.7H112.3V104.4H77.3002ZM112.4 74.7V52.3H77.4002V74.7H66.0002L81.1002 38.4H44.5002L27.7002 77.2V84.1H125.7V74.7H112.4ZM93.8002 8.09998H57.6002L49.1002 27.6H85.6002L93.8002 8.09998Z" fill="#E150E7"/>
<path d="M177.5 7.09998C159.8 7.09998 146.7 14.2 138.9 27.6H215.8C208 14.2 195 7.09998 177.5 7.09998ZM220.6 38.4H185.1C187.3 43.4 188.1 52.3 188.1 66.4C188.1 73.6 187.9 79.4 187.4 84.1H223.1C224 78.7 224.5 72.8 224.5 66.4C224.5 55.7 223.2 46.3 220.6 38.4ZM177.5 125.7C195.4 125.7 208.5 118.3 216.3 104.4H138.5C146.2 118.3 159.4 125.7 177.5 125.7ZM166.7 66.4C166.7 52.4 167.5 43.5 169.8 38.4H134.2C131.6 46.3 130.3 55.7 130.3 66.4C130.3 72.8 130.8 78.7 131.7 84.1H167.4C166.9 79.4 166.7 73.6 166.7 66.4Z" fill="#E150E7"/>
<path d="M282.3 104.4V124.7H317.3V104.4H282.3ZM317.3 74.7V52.3H282.3V74.7H271L286.1 38.4H249.4L232.6 77.2V84.1H330.6V74.7H317.3ZM298.7 8.09998H262.5L254 27.6H290.5L298.7 8.09998Z" fill="#E150E7"/>
<path d="M77.9002 27.6L73.4002 38.4H36.7002L41.4002 27.6H77.9002Z" fill="#E150E7"/>
<path d="M212.8 38.4H177.3C175.6 34.6 173.2 33 169.7 33C166.1 33 163.6 34.6 162 38.4H126.4C127.7 34.4 129.3 30.8 131.1 27.6H208C210 30.8 211.5 34.4 212.8 38.4Z" fill="#E150E7"/>
<path d="M282.8 27.6L278.3 38.4H241.6L246.3 27.6H282.8Z" fill="#E150E7"/>
<path d="M136.1 84.1V102.1H122.7V104.4H87.7001V102.1H38.1001V84.1H136.1Z" fill="#E150E7"/>
<path d="M233.4 84.1C232.1 91.9 229.8 98.7 226.6 104.4H148.8C145.6 98.7 143.3 91.9 142 84.1H177.7C178.9 95.3 181.9 99.8 187.8 99.8C193.5 99.8 196.5 95.3 197.7 84.1H233.4Z" fill="#E150E7"/>
<path d="M341 84.1V102.1H327.7V104.4H292.6V102.1H243V84.1H341Z" fill="#E150E7"/>
<path d="M49.8002 51.7999H30.7002V56.2999H49.8002V51.7999Z" fill="#E150E7"/>
<path d="M199.6 53.1H180.5V62.5H199.6V53.1Z" fill="#E150E7"/>
<path d="M321.7 59.7H302.6V69.1H321.7V59.7Z" fill="#E150E7"/>
</g>
<g opacity="0.55">
<path d="M64.8998 104.4V124.7H99.8998V104.4H64.8998ZM99.9998 74.7V52.3H64.9998V74.7H53.5998L68.6998 38.4H32.0998L15.2998 77.2V84.1H113.3V74.7H99.9998ZM81.3998 8.09998H45.1998L36.6998 27.6H73.1998L81.3998 8.09998Z" fill="#7D4FE9"/>
<path d="M165.1 7.09998C147.4 7.09998 134.3 14.2 126.5 27.6H203.4C195.6 14.2 182.6 7.09998 165.1 7.09998ZM208.2 38.4H172.7C174.9 43.4 175.7 52.3 175.7 66.4C175.7 73.6 175.5 79.4 175 84.1H210.7C211.6 78.7 212.1 72.8 212.1 66.4C212.1 55.7 210.8 46.3 208.2 38.4ZM165.1 125.7C183 125.7 196.1 118.3 203.9 104.4H126.1C133.8 118.3 147 125.7 165.1 125.7ZM154.3 66.4C154.3 52.4 155.1 43.5 157.4 38.4H121.8C119.2 46.3 117.9 55.7 117.9 66.4C117.9 72.8 118.4 78.7 119.3 84.1H155C154.5 79.4 154.3 73.6 154.3 66.4Z" fill="#7D4FE9"/>
<path d="M269.9 104.4V124.7H304.9V104.4H269.9ZM304.9 74.7V52.3H269.9V74.7H258.6L273.7 38.4H237L220.2 77.2V84.1H318.2V74.7H304.9ZM286.3 8.09998H250.1L241.6 27.6H278.1L286.3 8.09998Z" fill="#7D4FE9"/>
<path d="M65.4998 27.6L60.9998 38.4H24.2998L28.9998 27.6H65.4998Z" fill="#7D4FE9"/>
<path d="M200.4 38.4H164.9C163.2 34.6 160.8 33 157.3 33C153.7 33 151.2 34.6 149.6 38.4H114C115.3 34.4 116.9 30.8 118.7 27.6H195.6C197.6 30.8 199.2 34.4 200.4 38.4Z" fill="#7D4FE9"/>
<path d="M270.4 27.6L265.9 38.4H229.2L233.9 27.6H270.4Z" fill="#7D4FE9"/>
<path d="M123.7 84.1V102.1H110.4V104.4H75.2997V102.1H25.6997V84.1H123.7Z" fill="#7D4FE9"/>
<path d="M221 84.1C219.7 91.9 217.4 98.7 214.2 104.4H136.4C133.2 98.7 130.9 91.9 129.6 84.1H165.3C166.5 95.3 169.5 99.8 175.4 99.8C181.1 99.8 184.1 95.3 185.3 84.1H221Z" fill="#7D4FE9"/>
<path d="M328.6 84.1V102.1H315.3V104.4H280.2V102.1H230.6V84.1H328.6Z" fill="#7D4FE9"/>
<path d="M37.3998 51.7999H18.2998V56.2999H37.3998V51.7999Z" fill="#7D4FE9"/>
<path d="M187.2 53.1H168.1V62.5H187.2V53.1Z" fill="#7D4FE9"/>
<path d="M309.3 59.7H290.2V69.1H309.3V59.7Z" fill="#7D4FE9"/>
</g>
<g opacity="0.61">
<path d="M72.7 104.4V124.7H107.7V104.4H72.7ZM107.8 74.7V52.3H72.8V74.7H61.4L76.5 38.4H39.8L23 77.2V84.1H121V74.7H107.8ZM89.2 8.09998H53L44.5 27.6H81L89.2 8.09998Z" fill="#E150E7"/>
<path d="M172.9 7.09998C155.2 7.09998 142.1 14.2 134.3 27.6H211.2C203.4 14.2 190.4 7.09998 172.9 7.09998ZM216 38.4H180.5C182.7 43.4 183.5 52.3 183.5 66.4C183.5 73.6 183.3 79.4 182.8 84.1H218.5C219.4 78.7 219.9 72.8 219.9 66.4C219.8 55.7 218.5 46.3 216 38.4ZM172.9 125.7C190.8 125.7 203.9 118.3 211.7 104.4H133.9C141.6 118.3 154.8 125.7 172.9 125.7ZM162.1 66.4C162.1 52.4 162.9 43.5 165.2 38.4H129.6C127 46.3 125.7 55.7 125.7 66.4C125.7 72.8 126.2 78.7 127.1 84.1H162.8C162.3 79.4 162.1 73.6 162.1 66.4Z" fill="#E150E7"/>
<path d="M277.6 104.4V124.7H312.6V104.4H277.6ZM312.7 74.7V52.3H277.7V74.7H266.4L281.5 38.4H244.8L228 77.2V84.1H326V74.7H312.7ZM294.1 8.09998H257.9L249.4 27.6H285.9L294.1 8.09998Z" fill="#E150E7"/>
<path d="M73.3001 27.6L68.8001 38.4H32.1001L36.8001 27.6H73.3001Z" fill="#E150E7"/>
<path d="M208.2 38.4H172.7C171 34.6 168.6 33 165.1 33C161.5 33 159 34.6 157.4 38.4H121.8C123.1 34.4 124.7 30.8 126.5 27.6H203.4C205.4 30.8 206.9 34.4 208.2 38.4Z" fill="#E150E7"/>
<path d="M278.2 27.6L273.7 38.4H237L241.7 27.6H278.2Z" fill="#E150E7"/>
<path d="M131.4 84.1V102.1H118.1V104.4H83.0999V102.1H33.3999V84.1H131.4Z" fill="#E150E7"/>
<path d="M228.8 84.1C227.5 91.9 225.2 98.7 222 104.4H144.2C141 98.7 138.7 91.9 137.4 84.1H173.1C174.3 95.3 177.3 99.8 183.2 99.8C188.9 99.8 191.9 95.3 193.1 84.1H228.8Z" fill="#E150E7"/>
<path d="M336.3 84.1V102.1H323.1V104.4H288V102.1H238.4V84.1H336.3Z" fill="#E150E7"/>
<path d="M45.2001 51.7999H26.1001V56.2999H45.2001V51.7999Z" fill="#E150E7"/>
<path d="M195 53.1H175.9V62.5H195V53.1Z" fill="#E150E7"/>
<path d="M317.1 59.7H298V69.1H317.1V59.7Z" fill="#E150E7"/>
</g>
<path d="M69.4999 104.4V124.7H104.5V104.4H69.4999ZM104.6 74.7V52.3H69.5999V74.7H58.2999L73.3999 38.4H36.6999L19.8999 77.2V84.1H117.9V74.7H104.6ZM85.9999 8.09998H49.7999L41.2999 27.6H77.7999L85.9999 8.09998Z" fill="white"/>
<path d="M169.7 7.09998C152 7.09998 138.9 14.2 131.1 27.6H208C200.2 14.2 187.2 7.09998 169.7 7.09998ZM212.8 38.4H177.3C179.5 43.4 180.3 52.3 180.3 66.4C180.3 73.6 180.1 79.4 179.6 84.1H215.3C216.2 78.7 216.7 72.8 216.7 66.4C216.7 55.7 215.4 46.3 212.8 38.4ZM169.7 125.7C187.6 125.7 200.7 118.3 208.5 104.4H130.7C138.5 118.3 151.6 125.7 169.7 125.7ZM158.9 66.4C158.9 52.4 159.7 43.5 162 38.4H126.4C123.8 46.3 122.5 55.7 122.5 66.4C122.5 72.8 123 78.7 123.9 84.1H159.6C159.1 79.4 158.9 73.6 158.9 66.4Z" fill="white"/>
<path d="M274.5 104.4V124.7H309.5V104.4H274.5ZM309.5 74.7V52.3H274.5V74.7H263.2L278.3 38.4H241.6L224.8 77.2V84.1H322.8V74.7H309.5ZM290.9 8.09998H254.7L246.2 27.6H282.7L290.9 8.09998Z" fill="white"/>
<path d="M70.0999 27.6L65.5999 38.4H28.8999L33.5999 27.6H70.0999Z" fill="white"/>
<path d="M205 38.4H169.5C167.8 34.6 165.4 33 161.9 33C158.3 33 155.8 34.6 154.2 38.4H118.6C119.9 34.4 121.5 30.8 123.3 27.6H200.2C202.2 30.8 203.8 34.4 205 38.4Z" fill="white"/>
<path d="M275 27.6L270.5 38.4H233.8L238.5 27.6H275Z" fill="white"/>
<path d="M128.3 84.1V102.1H115V104.4H79.8998V102.1H30.2998V84.1H128.3Z" fill="white"/>
<path d="M225.7 84.1C224.4 91.9 222.1 98.7 218.9 104.4H141.1C137.9 98.7 135.6 91.9 134.3 84.1H170C171.2 95.3 174.2 99.8 180.1 99.8C185.8 99.8 188.8 95.3 190 84.1H225.7Z" fill="white"/>
<path d="M333.2 84.1V102.1H319.9V104.4H284.8V102.1H235.2V84.1H333.2Z" fill="white"/>
<path d="M41.9999 51.7999H22.8999V56.2999H41.9999V51.7999Z" fill="white"/>
<path d="M191.8 53.1H172.7V62.5H191.8V53.1Z" fill="white"/>
<path d="M313.9 59.7H294.8V69.1H313.9V59.7Z" fill="white"/>
<path opacity="0.55" d="M63.3998 10.1H17.7998V17.6H63.3998V10.1Z" fill="#7D4FE9"/>
<path opacity="0.43" d="M98.5 25.5H66V28.8H98.5V25.5Z" fill="#7D4FE9"/>
<path opacity="0.43" d="M234.4 0H187.7V3.3H234.4V0Z" fill="#7D4FE9"/>
<path opacity="0.43" d="M227.3 44.1H206.2V50.8H227.3V44.1Z" fill="#7D4FE9"/>
<path opacity="0.46" d="M135.4 50.2H114.3V56.9H135.4V50.2Z" fill="#E150E7"/>
<path opacity="0.61" d="M338.7 77.9H307V81H338.7V77.9Z" fill="#E150E7"/>
<path opacity="0.61" d="M43.2 66.5H11.5V71.6H43.2V66.5Z" fill="#E150E7"/>
<path opacity="0.61" d="M215 110.6H183.3V115.7H215V110.6Z" fill="#E150E7"/>
<path opacity="0.61" d="M213.8 15.9H182.1V19H213.8V15.9Z" fill="#E150E7"/>
<path opacity="0.61" d="M80.3999 118.5H62.8999V121.6H80.3999V118.5Z" fill="#E150E7"/>
<path opacity="0.61" d="M293.7 20.7H276.2V23.7999H293.7V20.7Z" fill="#E150E7"/>
<path opacity="0.61" d="M56.7999 40.9H21.3999V42.9H56.7999V40.9Z" fill="#E150E7"/>
<path opacity="0.61" d="M226 61.2H190.6V63.2H226V61.2Z" fill="#E150E7"/>
<path opacity="0.43" d="M318.4 112.4H297.3V119.1H318.4V112.4Z" fill="#7D4FE9"/>
<path opacity="0.43" d="M111.4 110.8H90.2998V114.5H111.4V110.8Z" fill="#7D4FE9"/>
<path opacity="0.43" d="M263 13.9H241.9V17.6H263V13.9Z" fill="#7D4FE9"/>
<path opacity="0.17" d="M117.9 70.1H71.2002V73.4H117.9V70.1Z" fill="#7D4FE9"/>
<path opacity="0.69" d="M39.2999 93.6H19.8999V96.9H39.2999V93.6Z" fill="#7D4FE9"/>
<path opacity="0.69" d="M277.6 45.1H258.2V48.4H277.6V45.1Z" fill="#7D4FE9"/>
<g opacity="0.34">
<path opacity="0.55" d="M56.3998 10.1H10.7998V17.6H56.3998V10.1Z" fill="#7D4FE9"/>
<path opacity="0.43" d="M91.6001 25.5H59.1001V28.8H91.6001V25.5Z" fill="#7D4FE9"/>
<path opacity="0.43" d="M227.5 0H180.8V3.3H227.5V0Z" fill="#7D4FE9"/>
<path opacity="0.43" d="M220.4 44.1H199.3V50.8H220.4V44.1Z" fill="#7D4FE9"/>
<path opacity="0.46" d="M128.5 50.2H107.4V56.9H128.5V50.2Z" fill="#E150E7"/>
<path opacity="0.61" d="M331.8 77.9H300.1V81H331.8V77.9Z" fill="#E150E7"/>
<path opacity="0.61" d="M36.2 66.5H4.5V71.6H36.2V66.5Z" fill="#E150E7"/>
<path opacity="0.61" d="M208.1 110.6H176.4V115.7H208.1V110.6Z" fill="#E150E7"/>
<path opacity="0.61" d="M206.9 15.9H175.2V19H206.9V15.9Z" fill="#E150E7"/>
<path opacity="0.61" d="M73.5 118.5H56V121.6H73.5V118.5Z" fill="#E150E7"/>
<path opacity="0.61" d="M286.8 20.7H269.3V23.7999H286.8V20.7Z" fill="#E150E7"/>
<path opacity="0.61" d="M49.9 40.9H14.5V42.9H49.9V40.9Z" fill="#E150E7"/>
<path opacity="0.61" d="M219 61.2H183.6V63.2H219V61.2Z" fill="#E150E7"/>
<path opacity="0.43" d="M311.5 112.4H290.4V119.1H311.5V112.4Z" fill="#7D4FE9"/>
<path opacity="0.43" d="M104.5 110.8H83.3999V114.5H104.5V110.8Z" fill="#7D4FE9"/>
<path opacity="0.43" d="M256.1 13.9H235V17.6H256.1V13.9Z" fill="#7D4FE9"/>
<path opacity="0.17" d="M111 70.1H64.2998V73.4H111V70.1Z" fill="#7D4FE9"/>
<path opacity="0.69" d="M32.4 93.6H13V96.9H32.4V93.6Z" fill="#7D4FE9"/>
<path opacity="0.69" d="M270.7 45.1H251.3V48.4H270.7V45.1Z" fill="#7D4FE9"/>
</g>
<g opacity="0.01">
<path opacity="0.55" d="M52.7997 10.1H7.19971V17.6H52.7997V10.1Z" fill="#7D4FE9"/>
<path opacity="0.43" d="M87.8999 25.5H55.3999V28.8H87.8999V25.5Z" fill="#7D4FE9"/>
<path opacity="0.43" d="M223.8 0H177.1V3.3H223.8V0Z" fill="#7D4FE9"/>
<path opacity="0.43" d="M216.7 44.1H195.6V50.8H216.7V44.1Z" fill="#7D4FE9"/>
<path opacity="0.46" d="M124.8 50.2H103.7V56.9H124.8V50.2Z" fill="#E150E7"/>
<path opacity="0.61" d="M328.1 77.9H296.4V81H328.1V77.9Z" fill="#E150E7"/>
<path opacity="0.61" d="M32.5999 66.5H0.899902V71.6H32.5999V66.5Z" fill="#E150E7"/>
<path opacity="0.61" d="M204.4 110.6H172.7V115.7H204.4V110.6Z" fill="#E150E7"/>
<path opacity="0.61" d="M203.3 15.9H171.6V19H203.3V15.9Z" fill="#E150E7"/>
<path opacity="0.61" d="M69.7998 118.5H52.2998V121.6H69.7998V118.5Z" fill="#E150E7"/>
<path opacity="0.61" d="M283.2 20.7H265.7V23.7999H283.2V20.7Z" fill="#E150E7"/>
<path opacity="0.61" d="M46.1998 40.9H10.7998V42.9H46.1998V40.9Z" fill="#E150E7"/>
<path opacity="0.61" d="M215.4 61.2H180V63.2H215.4V61.2Z" fill="#E150E7"/>
<path opacity="0.43" d="M307.8 112.4H286.7V119.1H307.8V112.4Z" fill="#7D4FE9"/>
<path opacity="0.43" d="M100.8 110.8H79.6997V114.5H100.8V110.8Z" fill="#7D4FE9"/>
<path opacity="0.43" d="M252.4 13.9H231.3V17.6H252.4V13.9Z" fill="#7D4FE9"/>
<path opacity="0.17" d="M107.3 70.1H60.6001V73.4H107.3V70.1Z" fill="#7D4FE9"/>
<path opacity="0.69" d="M28.6998 93.6H9.2998V96.9H28.6998V93.6Z" fill="#7D4FE9"/>
<path opacity="0.69" d="M267 45.1H247.6V48.4H267V45.1Z" fill="#7D4FE9"/>
</g>
</svg>
