<svg width="49" height="48" viewBox="0 0 49 48" fill="none" xmlns="http://www.w3.org/2000/svg">
<g clip-path="url(#clip0_1_390)">
<path fill-rule="evenodd" clip-rule="evenodd" d="M24.8572 48C11.6017 48 0.857178 37.2555 0.857178 24C0.857178 10.7445 11.6017 0 24.8572 0C38.1127 0 48.8572 10.7445 48.8572 24C48.8572 37.2555 38.1127 48 24.8572 48ZM36.8482 24.3285L25.6042 6L14.3572 24.33L25.6042 30.8595L36.8482 24.3285ZM36.8572 26.424L25.6042 32.9505L14.3572 26.4255L25.6042 41.9925L36.8572 26.424Z" fill="#7C8496"/>
<path d="M25.6042 6V19.305L36.8497 24.33L25.6042 6ZM25.6042 32.952V41.9925L36.8572 26.424L25.6042 32.952Z" fill="#7C8496" fill-opacity="0.3"/>
<path d="M25.6042 30.8595L36.8497 24.33L25.6042 19.308V30.8595Z" fill="black" fill-opacity="0.801"/>
<path d="M14.3572 24.33L25.6042 30.8595V19.308L14.3572 24.33Z" fill="black" fill-opacity="0.3"/>
</g>
<defs>
<clipPath id="clip0_1_390">
<rect width="48" height="48" fill="white" transform="translate(0.857178)"/>
</clipPath>
</defs>
</svg>