<svg width="512" height="512" viewBox="0 0 512 512" fill="none" xmlns="http://www.w3.org/2000/svg">
<path d="M187.7 512H307.2V298.7H382.4L394.3 179.2H307.2V136.5C307.2 126.7 308.7 124 309.6 123.2C310.6 122.3 315.3 119.4 332.8 119.4H401.1V10.9L386.5 8.7C385.4 8.5 382.9 8 380.2 7.5C366.9 4.9 342 0 315.7 0C237.9 0 187.7 50.2 187.7 128V179.2H110.9V298.7H187.7V512ZM145.1 264.5V213.3H221.9V128C221.9 69.2 257 34.1 315.8 34.1C335 34.1 354.1 37.3 367 39.7V85.3H332.9C310.9 85.3 296.9 89.1 287.2 97.5C274.8 108.4 273.2 124.1 273.2 136.5V213.3H356.7L351.6 264.5H273.2V477.8H222V264.5H145.1Z" fill="white"/>
</svg>
