<svg width="24" height="24" viewBox="0 0 24 24" fill="none" xmlns="http://www.w3.org/2000/svg">
<g clip-path="url(#clip0_322_720)">
<path d="M19.4998 12.5721L11.9998 20.0001L4.49981 12.5721C4.00512 12.0907 3.61546 11.5121 3.35536 10.8727C3.09527 10.2333 2.97037 9.54701 2.98855 8.85699C3.00673 8.16697 3.16758 7.48819 3.46097 6.86339C3.75436 6.23859 4.17395 5.68131 4.6933 5.22663C5.21265 4.77196 5.82052 4.42974 6.47862 4.22154C7.13673 4.01333 7.83082 3.94364 8.51718 4.01686C9.20354 4.09007 9.86731 4.30461 10.4667 4.64696C11.0661 4.98931 11.5881 5.45205 11.9998 6.00605C12.4133 5.45608 12.9359 4.99738 13.5349 4.65866C14.1339 4.31994 14.7963 4.1085 15.4807 4.03757C16.1652 3.96665 16.8569 4.03775 17.5126 4.24645C18.1683 4.45514 18.7738 4.79693 19.2914 5.25042C19.8089 5.70391 20.2272 6.25934 20.5202 6.88195C20.8132 7.50456 20.9746 8.18094 20.9941 8.86876C21.0137 9.55659 20.8911 10.241 20.6339 10.8793C20.3768 11.5176 19.9907 12.0959 19.4998 12.5781" stroke="white"/>
</g>
<defs>
<clipPath id="clip0_322_720">
<rect width="24" height="24" fill="white"/>
</clipPath>
</defs>
</svg>
