<svg width="73" height="72" viewBox="0 0 73 72" fill="none" xmlns="http://www.w3.org/2000/svg">
<g filter="url(#filter0_d_1_152)">
<path d="M48.8254 30.0476L46.86 26.2779L45.7252 24.1036C45.5505 23.7933 45.3274 23.5112 45.0639 23.2673L36.5358 34.4014L40.4851 41.9743C40.8413 41.9184 41.163 41.7348 41.3871 41.4596L45.0216 36.7121L48.6561 31.9646C48.8467 31.6843 48.962 31.3619 48.9916 31.0271C49.0211 30.6922 48.964 30.3555 48.8254 30.0476Z" fill="#D7DDE8"/>
<path d="M45.0851 31.6378C45.6961 30.8427 45.9501 29.7491 45.6591 29.1882C45.3681 28.6272 44.638 28.8073 44.0296 29.6076C43.4213 30.4078 43.1647 31.5014 43.4556 32.0598C43.7466 32.6182 44.4793 32.4278 45.0851 31.6327" fill="#2B2D2E"/>
<path d="M41.8579 35.8501C42.4584 35.055 42.7229 33.9537 42.4293 33.4004C42.1357 32.8472 41.4003 33.0299 40.7998 33.825C40.1994 34.6201 39.9349 35.7189 40.2258 36.2695C40.5168 36.8202 41.2495 36.6349 41.8579 35.8424" fill="#2B2D2E"/>
<path d="M36.5358 34.4014L25.0001 29.111C24.986 29.4025 25.045 29.6931 25.172 29.9575L26.7221 32.9244L28.2722 35.8964C28.6465 36.5298 29.1965 37.0479 29.8593 37.3914L39.6466 41.8791C39.9133 41.9936 40.2099 42.0251 40.4957 41.9691L36.5358 34.4014Z" fill="#A9B2C2"/>
<path d="M36.1099 39.0357C36.9484 39.4191 37.3849 39.275 37.0939 38.7166C36.8029 38.1582 35.8956 37.394 35.0518 37.0106C34.208 36.6272 33.7742 36.7687 34.0678 37.3297C34.3614 37.8906 35.274 38.6549 36.1072 39.0357" fill="#2B2D2E"/>
<path d="M31.6818 37.0029C32.5203 37.3863 32.9594 37.2422 32.6658 36.6838C32.3722 36.1254 31.4623 35.3612 30.6264 34.983C29.7905 34.6047 29.3487 34.7411 29.6423 35.302C29.936 35.863 30.8486 36.6246 31.6818 37.008" fill="#2B2D2E"/>
<path d="M34.7079 36.3364C35.5438 36.7198 35.9829 36.5783 35.6919 36.0174C35.401 35.4564 34.4884 34.6948 33.6498 34.3114C32.8113 33.928 32.3749 34.0695 32.6658 34.6304C32.9568 35.1914 33.8747 35.953 34.7079 36.3364Z" fill="#2B2D2E"/>
<path d="M30.2745 34.3036C31.1104 34.687 31.5522 34.5429 31.2586 33.9846C30.9649 33.4262 30.055 32.6671 29.2165 32.276C28.3779 31.8849 27.9415 32.0367 28.2351 32.5976C28.5287 33.1586 29.4413 33.9202 30.2745 34.3036Z" fill="#2B2D2E"/>
<path d="M36.5358 34.4012L45.0639 23.2671C44.7949 23.0014 44.4842 22.779 44.1434 22.6083L35.6628 18.7177L34.3588 18.1207C34.0598 17.9951 33.7267 17.9685 33.4107 18.0453C33.0947 18.122 32.8134 18.2977 32.6103 18.5453L28.9678 23.2902L25.3412 28.0352C25.1188 28.3521 24.9999 28.727 25 29.1108L36.5358 34.4012Z" fill="white"/>
<path d="M36.0226 24.5822C35.1867 24.1988 34.0175 24.5307 33.4091 25.3258C32.8007 26.1209 32.9832 27.0756 33.8191 27.459C34.655 27.8424 35.8269 27.5079 36.4326 26.7153C37.0384 25.9228 36.8558 24.9656 36.0226 24.5822Z" fill="#2B2D2E"/>
</g>
<defs>
<filter id="filter0_d_1_152" x="0.998047" y="0" width="72.002" height="72" filterUnits="userSpaceOnUse" color-interpolation-filters="sRGB">
<feFlood flood-opacity="0" result="BackgroundImageFix"/>
<feColorMatrix in="SourceAlpha" type="matrix" values="0 0 0 0 0 0 0 0 0 0 0 0 0 0 0 0 0 0 127 0" result="hardAlpha"/>
<feOffset dy="6"/>
<feGaussianBlur stdDeviation="12"/>
<feComposite in2="hardAlpha" operator="out"/>
<feColorMatrix type="matrix" values="0 0 0 0 0.501961 0 0 0 0 0.509804 0 0 0 0 0.556863 0 0 0 1 0"/>
<feBlend mode="normal" in2="BackgroundImageFix" result="effect1_dropShadow_1_152"/>
<feBlend mode="normal" in="SourceGraphic" in2="effect1_dropShadow_1_152" result="shape"/>
</filter>
</defs>
</svg>
