<svg viewBox="0 0 125 31" fill="none" xmlns="http://www.w3.org/2000/svg" class="StepOne_linkGooglePlay__bsLxj"><path d="M64.937 7.555c-.988 0-1.821-.348-2.48-1.034a3.536 3.536 0 0 1-1.002-2.523c0-1.002.337-1.85 1.002-2.521.656-.686 1.49-1.035 2.477-1.035.978 0 1.811.349 2.48 1.035.665.694 1.003 1.541 1.003 2.52-.011 1.004-.349 1.852-1.002 2.521-.656.692-1.49 1.037-2.478 1.037Zm-29.408 0a3.432 3.432 0 0 1-2.49-1.02C32.357 5.86 32.011 5.007 32.011 4c0-1.006.346-1.86 1.026-2.534.673-.678 1.511-1.02 2.491-1.02.48 0 .945.095 1.392.29.438.19.795.447 1.059.762l.065.08-.738.73-.076-.09c-.416-.5-.975-.744-1.712-.744a2.36 2.36 0 0 0-1.708.702c-.476.47-.718 1.084-.718 1.827 0 .743.242 1.358.718 1.827a2.358 2.358 0 0 0 1.708.702c.702 0 1.293-.236 1.753-.702.272-.274.441-.658.5-1.144h-2.365V3.66h3.382l.013.093c.025.173.05.351.05.516 0 .946-.284 1.712-.845 2.277-.637.67-1.47 1.01-2.478 1.01ZM74.63 7.41h-1.043l-3.194-5.149.028.927v4.22h-1.043V.59h1.19l.032.052 3.004 4.85-.028-.925V.591h1.054V7.41Zm-17.529 0h-1.056V1.616h-1.833V.591h4.719v1.025h-1.832V7.41h.002Zm-3.749 0H52.3V.59h1.053v6.82Zm-5.922 0h-1.053V1.616h-1.833V.591h4.719v1.025H47.43V7.41Zm-3.553-.011h-4.04V.591h4.04v1.025h-2.984v1.871h2.693v1.015h-2.693v1.871h2.984V7.4ZM63.23 5.816a2.323 2.323 0 0 0 1.707.713c.684 0 1.242-.233 1.707-.713.463-.466.697-1.078.697-1.816s-.234-1.352-.694-1.816a2.327 2.327 0 0 0-1.707-.713c-.683 0-1.242.233-1.704.713-.463.467-.697 1.078-.697 1.816s.23 1.353.691 1.816Z" fill="#fff"></path><path fill-rule="evenodd" clip-rule="evenodd" d="M61.357 16.93c-2.573 0-4.659 1.968-4.659 4.68 0 2.689 2.1 4.68 4.659 4.68 2.573 0 4.658-1.98 4.658-4.68 0-2.712-2.085-4.68-4.658-4.68Zm0 7.506c-1.408 0-2.62-1.174-2.62-2.836 0-1.687 1.215-2.837 2.62-2.837 1.407 0 2.619 1.15 2.619 2.837.003 1.673-1.212 2.836-2.62 2.836Zm-10.164-7.505c-2.573 0-4.659 1.967-4.659 4.68 0 2.688 2.1 4.68 4.659 4.68 2.573 0 4.659-1.981 4.659-4.68 0-2.713-2.089-4.68-4.659-4.68Zm0 7.505c-1.408 0-2.62-1.174-2.62-2.836 0-1.687 1.215-2.837 2.62-2.837 1.408 0 2.62 1.15 2.62 2.837 0 1.673-1.212 2.836-2.62 2.836ZM39.099 18.36v1.98h4.718c-.144 1.112-.509 1.932-1.067 2.494-.692.697-1.759 1.454-3.64 1.454-2.9 0-5.168-2.36-5.168-5.28 0-2.922 2.268-5.281 5.168-5.281 1.565 0 2.706.623 3.553 1.418l1.394-1.404c-1.176-1.136-2.742-2.006-4.936-2.006-3.978 0-7.316 3.265-7.316 7.261 0 4.008 3.335 7.262 7.316 7.262 2.148 0 3.76-.708 5.034-2.041 1.298-1.309 1.71-3.155 1.71-4.644 0-.464-.036-.881-.11-1.235h-6.659c.003-.003.003.022.003.022Zm49.468 1.542c-.389-1.05-1.565-2.982-3.977-2.982-2.391 0-4.379 1.895-4.379 4.68 0 2.628 1.966 4.68 4.61 4.68 2.124 0 3.36-1.309 3.869-2.077l-1.577-1.064c-.522.781-1.25 1.294-2.281 1.294-1.043 0-1.773-.477-2.257-1.418l6.21-2.592c0 .003-.218-.521-.218-.521Zm-6.333 1.563c-.049-1.808 1.394-2.726 2.426-2.726.814 0 1.492.403 1.724.99l-4.15 1.736ZM77.19 26h2.04V12.25h-2.04V26Zm-3.349-8.03h-.073c-.46-.55-1.334-1.05-2.45-1.05-2.318 0-4.452 2.054-4.452 4.693 0 2.628 2.124 4.658 4.451 4.658 1.103 0 1.99-.502 2.45-1.064h.074v.672c0 1.786-.947 2.749-2.475 2.749-1.25 0-2.025-.906-2.341-1.663l-1.773.746c.51 1.235 1.868 2.763 4.112 2.763 2.39 0 4.416-1.418 4.416-4.878V17.2h-1.93v.77h-.01ZM71.5 24.437c-1.408 0-2.584-1.185-2.584-2.823 0-1.651 1.176-2.847 2.584-2.847 1.394 0 2.475 1.21 2.475 2.847.013 1.638-1.079 2.823-2.475 2.823Zm26.617-12.185H93.24V26h2.039v-5.207h2.84c2.257 0 4.476-1.648 4.476-4.265s-2.211-4.277-4.48-4.277Zm.06 6.622h-2.9v-4.718h2.9c1.527 0 2.39 1.27 2.39 2.359 0 1.078-.874 2.359-2.39 2.359Zm12.592-1.967c-1.481 0-3.008.661-3.64 2.101l1.808.758c.389-.758 1.102-1.015 1.857-1.015 1.056 0 2.123.636 2.148 1.772v.145c-.365-.209-1.165-.527-2.124-.527-1.952 0-3.931 1.076-3.931 3.092 0 1.846 1.601 3.031 3.384 3.031 1.369 0 2.124-.623 2.595-1.344h.073v1.064h1.966v-5.267c0-2.452-1.808-3.81-4.136-3.81Zm-.256 7.53c-.667 0-1.601-.33-1.601-1.174 0-1.064 1.166-1.468 2.159-1.468.899 0 1.324.195 1.857.464a2.461 2.461 0 0 1-2.415 2.178Zm11.563-7.236-2.341 5.963h-.074l-2.425-5.963h-2.195l3.64 8.336-2.074 4.633h2.123l5.601-12.97h-2.255ZM103.719 26h2.039V12.25h-2.039V26Z" fill="#fff"></path><g clip-path="url(#google-play_svg__a)" fill="#fff"><path d="m17.05 18.518-2.61-2.583-9.585 9.51 12.196-6.927Zm0-7.032L4.856 4.56l9.585 9.51 2.61-2.583Zm3.824 4.822c.782-.614.782-1.998-.052-2.613l-2.558-1.464-2.854 2.772 2.854 2.772 2.61-1.467ZM2.352 26l11.145-11.002L2.352 4.001V4c-.564.292-.942.825-.942 1.517v18.966c0 .692.378 1.225.942 1.517Z"></path></g><defs><clipPath id="google-play_svg__a"><path fill="#fff" transform="translate(.5 4)" d="M0 0h21.864v22H0z"></path></clipPath></defs></svg>