<svg width="138" height="40" viewBox="0 0 138 40" fill="none" xmlns="http://www.w3.org/2000/svg">
<g clip-path="url(#clip0_1_192)">
<g clip-path="url(#clip1_1_192)">
<path d="M14.9447 17.7479H18.374V20.5408L23.8037 20.6807V4.99435C23.8037 4.81159 23.7094 4.69165 23.5637 4.69165H18.6083C18.4654 4.69165 18.3683 4.81159 18.3683 4.99435V12.4192H14.939V4.99435C14.939 4.81159 14.8418 4.69165 14.6989 4.69165H9.81212C9.66638 4.69165 9.56921 4.81159 9.56921 4.99435V20.3152L14.9447 20.4522V17.7479Z" fill="#80828E"/>
<path d="M36.3778 4.93438C36.3321 4.75162 36.2435 4.69165 36.1291 4.69165H30.7623C30.6508 4.69165 30.5594 4.75162 30.5136 4.93438L25.9727 20.7378L40.9245 21.1348L36.3778 4.93438ZM32.0083 18.2305L33.4228 9.30075L34.7946 18.2305H32.0083Z" fill="#80828E"/>
<path d="M61.9319 20.9092L64.2981 17.448L66.09 21.7744L71.674 21.9172L67.5474 12.7561L72.8228 5.04572C72.96 4.8344 72.8686 4.68304 72.6885 4.68304H67.0959C67.0383 4.68442 66.9822 4.70203 66.9342 4.73386C66.8861 4.7657 66.8481 4.81045 66.8244 4.86295L61.9319 12.7161V4.99432C61.9319 4.81155 61.8405 4.69161 61.7061 4.69161H57.1337C56.9965 4.69161 56.908 4.81155 56.908 4.99432V21.5374L61.9376 21.6659L61.9319 20.9092Z" fill="#80828E"/>
<path d="M88.3205 18.981C88.3205 10.768 79.0499 13.6865 79.0499 10.4368C79.0499 9.5058 79.8386 9.08315 80.9217 9.08315C82.1849 9.08315 83.4251 9.65429 84.6654 10.9508C84.6848 10.9798 84.7118 11.0031 84.7433 11.0181C84.7749 11.0331 84.81 11.0394 84.8448 11.0361C84.8796 11.0329 84.9129 11.0204 84.9412 10.9998C84.9695 10.9793 84.9917 10.9515 85.0055 10.9194L87.5289 7.42684C87.5749 7.36491 87.598 7.28899 87.5944 7.21195C87.5907 7.13492 87.5605 7.06152 87.5089 7.0042C85.7256 4.93382 83.6509 4 81.1246 4C77.6953 4 74.0202 5.68486 74.0202 11.0707C74.0202 19.7035 83.4023 16.2738 83.4023 19.8235C83.4023 20.9086 82.5249 21.4483 81.2618 21.4483C79.6815 21.4483 78.1183 20.6373 76.5465 18.5013C76.4579 18.3813 76.3207 18.3499 76.2321 18.5013L73.7859 21.9709L87.6946 22.3308C88.124 21.2668 88.3367 20.1281 88.3205 18.981Z" fill="#80828E"/>
<path d="M99.7488 4.93438C99.7031 4.75162 99.6116 4.69165 99.5002 4.69165H94.1333C94.019 4.69165 93.9304 4.75162 93.8847 4.93438L88.875 22.3541L104.758 22.7654L99.7488 4.93438ZM95.3764 18.2305L96.8053 9.30075L98.1627 18.2305H95.3764Z" fill="#80828E"/>
<path d="M114.686 14.1325L116.098 23.0652L121.893 23.2165L126.986 5.02285C127.032 4.81153 126.963 4.69159 126.806 4.69159H122.019C121.885 4.69159 121.793 4.78297 121.771 4.97716L119.241 15.5433L117.172 4.97716C117.15 4.8258 117.058 4.69159 116.924 4.69159H112.451C112.317 4.69159 112.226 4.81153 112.203 4.97716L110.134 15.5433L107.593 4.96288C107.57 4.78297 107.479 4.67731 107.345 4.67731H102.566C102.409 4.67731 102.341 4.79725 102.386 5.00857L107.373 22.8481L113.286 23.0024L114.686 14.1325Z" fill="#80828E"/>
<path d="M54.5732 19.7978C54.5744 19.7805 54.5698 19.7634 54.5602 19.749C54.5505 19.7347 54.5362 19.724 54.5197 19.7187C54.5032 19.7134 54.4854 19.7139 54.4692 19.7199C54.453 19.726 54.4393 19.7373 54.4303 19.7521C54.0986 20.2473 53.6482 20.6517 53.1201 20.9286C52.592 21.2054 52.003 21.3458 51.4068 21.337C48.769 21.337 47.5259 18.7212 47.5259 15.2315C47.5259 12.0731 48.5604 9.27456 51.4582 9.27456C52.0435 9.25235 52.6248 9.38032 53.1465 9.64627C53.6683 9.91222 54.1132 10.3073 54.4388 10.7938C54.4484 10.8076 54.4621 10.8181 54.478 10.8237C54.4938 10.8293 54.5111 10.8297 54.5272 10.825C54.5433 10.8202 54.5576 10.8105 54.5679 10.7972C54.5782 10.7839 54.584 10.7678 54.5846 10.751V4.89392C54.5858 4.82761 54.566 4.76262 54.5281 4.70824C54.4901 4.65387 54.4358 4.6129 54.3731 4.59121C53.3617 4.24337 52.2992 4.06674 51.2296 4.06862C45.4083 4.06862 41.6561 9.18318 41.6561 15.6228C41.6312 17.5288 42.006 19.4189 42.7563 21.1714L54.576 21.477L54.5732 19.7978Z" fill="#80828E"/>
<path d="M15.7991 26.4715C15.7991 26.6515 15.8934 26.7571 16.0391 26.7571H20.9802C21.1231 26.7571 21.2203 26.6372 21.2203 26.4715V21.5226L15.7905 21.3798L15.7991 26.4715Z" fill="#80828E"/>
<path d="M7.24005 26.7714H12.144C12.2897 26.7714 12.3869 26.6515 12.3869 26.4858V21.2913L7 21.1542V26.4716C7 26.6515 7.09716 26.7714 7.24005 26.7714Z" fill="#80828E"/>
<path d="M22.1918 26.7714H27.1329C27.1976 26.7658 27.2588 26.7395 27.3072 26.6962C27.3557 26.6529 27.3888 26.5951 27.4015 26.5315L28.0331 23.7929H33.5771L34.2087 26.5315C34.2215 26.5951 34.2546 26.6529 34.303 26.6962C34.3514 26.7395 34.4126 26.7658 34.4773 26.7714H39.4184C39.5756 26.7714 39.6442 26.6229 39.5985 26.4116L38.3496 21.9652L23.4006 21.5768L22.0118 26.4116C21.946 26.6229 22.0346 26.7714 22.1918 26.7714Z" fill="#80828E"/>
<path d="M65.1555 26.5601C65.1722 26.6194 65.2076 26.6718 65.2566 26.7094C65.3055 26.747 65.3653 26.7677 65.427 26.7685H70.591C70.771 26.7685 70.8396 26.62 70.7482 26.4087L69.1049 22.7563L63.5209 22.6106L65.1555 26.5601Z" fill="#80828E"/>
<path d="M54.5561 26.7714H59.1285C59.2657 26.7714 59.3542 26.6515 59.3542 26.4858V22.5078L54.3246 22.3765V26.4715C54.3303 26.6515 54.4217 26.7714 54.5561 26.7714Z" fill="#80828E"/>
<path d="M70.8196 23.7929C71.6924 24.9345 72.8167 25.8596 74.1053 26.4965C75.394 27.1334 76.8122 27.465 78.2498 27.4653C81.1904 27.4653 83.9396 26.0375 85.1341 23.1818L71.214 22.8134L70.8196 23.3845C70.774 23.4428 70.7491 23.5147 70.7491 23.5887C70.7491 23.6627 70.774 23.7346 70.8196 23.7929Z" fill="#80828E"/>
<path d="M85.5628 26.7714H90.501C90.5661 26.766 90.6277 26.7397 90.6766 26.6965C90.7255 26.6533 90.7592 26.5954 90.7725 26.5315L91.4041 23.7929H96.951L97.5911 26.5315C97.6049 26.5952 97.6386 26.6528 97.6875 26.696C97.7363 26.7391 97.7977 26.7656 97.8626 26.7714H102.792C102.952 26.7714 103.018 26.6229 102.975 26.4116L102.189 23.613L86.3058 23.2018L85.3828 26.4116C85.3027 26.6229 85.4056 26.7714 85.5628 26.7714Z" fill="#80828E"/>
<path d="M113.938 26.5001C113.96 26.6514 114.049 26.7714 114.183 26.7714H118.393C118.527 26.7714 118.616 26.6828 118.639 26.5001L119.324 24.0556L113.526 23.9071L113.938 26.5001Z" fill="#80828E"/>
<path d="M105.841 26.7714H110.048C110.182 26.7714 110.274 26.6515 110.297 26.5001L110.717 23.8329L104.804 23.6815L105.593 26.5001C105.616 26.6829 105.704 26.7714 105.841 26.7714Z" fill="#80828E"/>
<path d="M48.7605 27.5939C49.7873 27.5981 50.8084 27.442 51.7869 27.1312C51.8504 27.1092 51.9055 27.068 51.9444 27.0132C51.9834 26.9584 52.0042 26.8929 52.0041 26.8257V22.3165L40.1815 22.011C41.6933 25.4178 44.6911 27.5939 48.7605 27.5939Z" fill="#80828E"/>
<path d="M14.4301 33.6308H12.5612V32.7741C12.5612 32.6227 12.4726 32.5456 12.2925 32.5456H11.9067C11.7267 32.5456 11.6381 32.6227 11.6381 32.7741V36.5807C11.6381 36.7321 11.7267 36.8092 11.9067 36.8092H12.2925C12.4726 36.8092 12.5612 36.7321 12.5612 36.5807V35.4699H12.0239V34.3276H14.4301V36.7178C14.4301 37.5745 13.9043 38 12.8498 38H11.338C10.2835 38 9.75769 37.5745 9.75769 36.7178V32.637C9.75769 31.7841 10.2845 31.3567 11.338 31.3548H12.8612C13.9148 31.3548 14.4416 31.7822 14.4416 32.637L14.4301 33.6308Z" fill="#4D4F5B"/>
<path d="M34.3916 37.9829L34.1773 36.992H32.5226L32.2968 37.9829H30.4479L32.2225 31.3434H34.5088L36.2834 37.9829H34.3916ZM32.8141 35.6983H33.8886L33.3599 33.311L32.8141 35.6983Z" fill="#4D4F5B"/>
<path d="M54.0731 37.9829H52.3984V31.3548H54.4389L55.582 34.9016L56.6994 31.3548H58.7255V37.9829H57.0594V33.7736L56.2021 36.5579H54.9133L54.0559 33.7964L54.0731 37.9829Z" fill="#4D4F5B"/>
<path d="M75.2805 31.3548H77.1609V37.9829H75.2805V31.3548Z" fill="#4D4F5B"/>
<path d="M96.8537 31.3548H98.5684V37.9829H96.9623L95.4249 34.4989V37.9829H93.7102V31.3548H95.3048L96.8423 34.9016L96.8537 31.3548Z" fill="#4D4F5B"/>
<path d="M119.747 33.6308H117.881V32.7741C117.881 32.6227 117.793 32.5456 117.613 32.5456H117.227C117.047 32.5456 116.958 32.6227 116.958 32.7741V36.5807C116.958 36.7321 117.047 36.8092 117.227 36.8092H117.596C117.776 36.8092 117.864 36.7321 117.864 36.5807V35.4699H117.327V34.3276H119.745V36.7178C119.745 37.5745 119.219 38 118.167 38H116.641C115.586 38 115.061 37.5745 115.061 36.7178V32.637C115.061 31.7841 115.587 31.3567 116.641 31.3548H118.167C119.219 31.3548 119.745 31.7822 119.745 32.637L119.747 33.6308Z" fill="#4D4F5B"/>
</g>
</g>
<defs>
<clipPath id="clip0_1_192">
<rect width="138" height="40" fill="white"/>
</clipPath>
<clipPath id="clip1_1_192">
<rect width="120" height="40" fill="white" transform="translate(7 1)"/>
</clipPath>
</defs>
</svg>
