<svg width="72" height="70" viewBox="0 0 72 70" fill="none" xmlns="http://www.w3.org/2000/svg">
<g filter="url(#filter0_d_1_348)">
<path d="M34.2828 20.3637L36.6324 22.7274C37.2667 23.3764 37.7109 24.1837 37.9177 25.0631L35.5681 22.6994C35.3632 21.8193 34.9187 21.0115 34.2828 20.3637Z" fill="#BA1C1C"/>
<path d="M46.5553 24.226L44.2031 21.8623C45.4473 23.1141 45.9769 25.0147 45.4396 27.0019C44.527 30.3782 41.4396 32.4646 38.8535 33.8945C37.0771 34.8843 35.4267 35.5967 35.2545 35.6756L31.6555 37.2022L34.0051 39.5659L37.6041 38.0393C37.7866 37.9604 39.437 37.2505 41.2031 36.2582C43.7943 34.8283 46.8792 32.7419 47.7918 29.3681C48.329 27.381 47.7995 25.4804 46.5553 24.226Z" fill="#BA1C1C"/>
<path d="M35.6735 22.6994C35.5288 22.0829 35.2671 21.4993 34.9023 20.9794L34.2828 20.3637C34.9187 21.0115 35.3632 21.8193 35.5681 22.6994L37.9203 25.0631C37.7135 24.1837 37.2693 23.3764 36.635 22.7274L36.1362 22.2185C35.9733 22.3704 35.8189 22.531 35.6735 22.6994Z" fill="#FF5757"/>
<path d="M41.3495 20.4476C44.4601 20.9183 46.293 23.8545 45.4395 27.0044C44.5269 30.3782 41.4395 32.4646 38.8534 33.8945C37.077 34.8843 35.4267 35.5967 35.2544 35.6755L31.6554 37.2021L29.1413 34.7596C28.2899 33.9107 27.4891 33.0136 26.7428 32.0727C25.0976 29.994 23.3367 27.1749 24.257 23.8011C25.1027 20.6486 28.3161 18.4758 31.4267 18.9465C32.4193 19.0844 33.3464 19.5169 34.0857 20.1869C34.825 20.8568 35.3419 21.7328 35.568 22.6994C37.0102 21.0557 39.2056 20.122 41.3495 20.4476Z" fill="#F03A3A"/>
<path d="M44.7249 22.4882C45.1717 23.1429 45.4673 23.887 45.5909 24.6675C45.7144 25.448 45.6627 26.2459 45.4396 27.0044C44.527 30.3782 41.4396 32.4646 38.8535 33.8945C37.0771 34.8843 35.4267 35.5967 35.2545 35.6756L31.6555 37.2022L31.7918 37.337L35.3625 35.8104C35.545 35.7315 37.1954 35.0217 38.9614 34.0294C41.5476 32.6223 44.635 30.5258 45.5476 27.152C45.7805 26.3642 45.8275 25.5339 45.6849 24.7253C45.5422 23.9167 45.2138 23.1513 44.7249 22.4882Z" fill="#FF5757"/>
<g opacity="0.5">
<path d="M41.6581 20.5037C41.5578 20.4808 41.455 20.4629 41.3496 20.4477C39.3959 20.1551 37.4036 20.9006 35.9794 22.2796L42.3599 31.5461C43.7532 30.3579 44.9306 28.8796 45.4447 27.0045C45.5124 26.7478 45.5622 26.4868 45.5938 26.2233L41.6581 20.5037Z" fill="#FF5757"/>
<path d="M28.2982 19.3256C27.3228 19.7147 26.451 20.3208 25.7503 21.0969C25.0495 21.873 24.5386 22.7983 24.2571 23.8011C24.0972 24.3759 24.0108 24.9683 24 25.5644L31.9434 37.0979L35.2442 35.6756C35.4139 35.6018 36.8535 34.981 38.4807 34.1006L28.2982 19.3256Z" fill="#FF5757"/>
</g>
</g>
<defs>
<filter id="filter0_d_1_348" x="0" y="-1" width="72.0007" height="72" filterUnits="userSpaceOnUse" color-interpolation-filters="sRGB">
<feFlood flood-opacity="0" result="BackgroundImageFix"/>
<feColorMatrix in="SourceAlpha" type="matrix" values="0 0 0 0 0 0 0 0 0 0 0 0 0 0 0 0 0 0 127 0" result="hardAlpha"/>
<feOffset dy="6"/>
<feGaussianBlur stdDeviation="12"/>
<feComposite in2="hardAlpha" operator="out"/>
<feColorMatrix type="matrix" values="0 0 0 0 0.968627 0 0 0 0 0.282353 0 0 0 0 0.282353 0 0 0 1 0"/>
<feBlend mode="normal" in2="BackgroundImageFix" result="effect1_dropShadow_1_348"/>
<feBlend mode="normal" in="SourceGraphic" in2="effect1_dropShadow_1_348" result="shape"/>
</filter>
</defs>
</svg>
