<svg width="106" height="44" viewBox="0 0 106 44" fill="none" xmlns="http://www.w3.org/2000/svg">
<circle cx="21.5" cy="22" r="21.5" fill="url(#paint0_radial_635_7063)"/>
<g filter="url(#filter0_dd_635_7063)">
<path d="M21.67 28.89C20.1967 28.89 18.914 28.5953 17.822 28.006C16.73 27.3993 15.8807 26.5587 15.274 25.484C14.6847 24.4093 14.39 23.1613 14.39 21.74V21.22C14.39 19.868 14.6847 18.6807 15.274 17.658C15.8807 16.618 16.73 15.8033 17.822 15.214C18.914 14.6247 20.1967 14.33 21.67 14.33C23.438 14.33 24.8333 14.5987 25.856 15.136C26.8787 15.6733 27.624 16.41 28.092 17.346C28.5773 18.2647 28.8633 19.296 28.95 20.44H23.594C23.5247 19.8853 23.36 19.504 23.1 19.296C22.84 19.0707 22.4933 18.958 22.06 18.958C21.6787 18.958 21.3493 19.0447 21.072 19.218C20.812 19.3913 20.6127 19.6513 20.474 19.998C20.3353 20.3273 20.266 20.7347 20.266 21.22V21.74C20.266 22.2947 20.3267 22.7627 20.448 23.144C20.5867 23.5253 20.786 23.8113 21.046 24.002C21.3233 24.1753 21.6613 24.262 22.06 24.262C22.4587 24.262 22.7967 24.158 23.074 23.95C23.3513 23.7247 23.5247 23.3347 23.594 22.78H28.95C28.8633 24.0453 28.56 25.1373 28.04 26.056C27.5373 26.9747 26.766 27.6767 25.726 28.162C24.7033 28.6473 23.3513 28.89 21.67 28.89ZM35.0559 28.89C34.0679 28.89 33.2186 28.6993 32.5079 28.318C31.8146 27.9193 31.2859 27.3907 30.9219 26.732C30.5579 26.056 30.3759 25.302 30.3759 24.47C30.3759 23.1007 30.8006 22.0173 31.6499 21.22C32.4993 20.4227 33.8513 20.024 35.7059 20.024H38.6959V19.66C38.6959 19.2093 38.6006 18.8973 38.4099 18.724C38.2193 18.5333 37.9679 18.438 37.6559 18.438C37.3266 18.438 37.0839 18.49 36.9279 18.594C36.7893 18.6807 36.6853 18.8193 36.6159 19.01H31.1559C31.2079 18.1087 31.4679 17.3113 31.9359 16.618C32.4213 15.9073 33.1493 15.3527 34.1199 14.954C35.0906 14.538 36.3126 14.33 37.7859 14.33C39.0859 14.33 40.2299 14.5207 41.2179 14.902C42.2233 15.2833 43.0033 15.8987 43.5579 16.748C44.1299 17.5973 44.4159 18.7413 44.4159 20.18V24.99C44.4159 25.718 44.4333 26.3593 44.4679 26.914C44.5199 27.4513 44.5893 27.98 44.6759 28.5H39.2159C39.1466 28.3093 39.0859 28.1013 39.0339 27.876C38.9819 27.6507 38.9559 27.3387 38.9559 26.94C38.6439 27.46 38.2106 27.9193 37.6559 28.318C37.1013 28.6993 36.2346 28.89 35.0559 28.89ZM37.2659 24.782C37.5953 24.782 37.8639 24.73 38.0719 24.626C38.2799 24.5047 38.4359 24.34 38.5399 24.132C38.6439 23.9067 38.6959 23.6293 38.6959 23.3V23.04H37.2659C36.9366 23.04 36.6853 23.1093 36.5119 23.248C36.3386 23.3867 36.2519 23.6033 36.2519 23.898C36.2519 24.1927 36.3386 24.418 36.5119 24.574C36.6853 24.7127 36.9366 24.782 37.2659 24.782ZM53.258 28.89C51.9753 28.89 50.9006 28.7513 50.034 28.474C49.1846 28.1967 48.5 27.8327 47.98 27.382C47.46 26.914 47.0613 26.394 46.784 25.822C46.524 25.25 46.342 24.6693 46.238 24.08H51.958C51.9926 24.2707 52.088 24.4353 52.244 24.574C52.4173 24.7127 52.7553 24.782 53.258 24.782C53.8126 24.782 54.168 24.7387 54.324 24.652C54.48 24.548 54.558 24.392 54.558 24.184C54.558 24.08 54.4973 23.9933 54.376 23.924C54.2546 23.8373 54.0033 23.7507 53.622 23.664C53.258 23.56 52.686 23.4387 51.906 23.3C51.2993 23.196 50.684 23.0573 50.06 22.884C49.436 22.7107 48.864 22.4767 48.344 22.182C47.824 21.87 47.408 21.4627 47.096 20.96C46.784 20.44 46.628 19.79 46.628 19.01C46.628 18.022 46.888 17.1813 47.408 16.488C47.9453 15.7947 48.708 15.266 49.696 14.902C50.684 14.5207 51.8713 14.33 53.258 14.33C54.818 14.33 56.0573 14.5727 56.976 15.058C57.912 15.526 58.588 16.1327 59.004 16.878C59.4373 17.606 59.6886 18.36 59.758 19.14H54.038C54.0033 18.8627 53.908 18.6807 53.752 18.594C53.6133 18.49 53.4053 18.438 53.128 18.438C52.8333 18.438 52.6253 18.4813 52.504 18.568C52.4 18.6547 52.348 18.7587 52.348 18.88C52.348 19.0707 52.4693 19.2353 52.712 19.374C52.9546 19.4953 53.4746 19.608 54.272 19.712C54.8613 19.7987 55.494 19.9373 56.17 20.128C56.8633 20.3013 57.522 20.5613 58.146 20.908C58.77 21.2373 59.2813 21.6707 59.68 22.208C60.0786 22.7453 60.278 23.404 60.278 24.184C60.278 25.2067 59.992 26.0733 59.42 26.784C58.8653 27.4773 58.068 28.006 57.028 28.37C55.988 28.7167 54.7313 28.89 53.258 28.89ZM62.3468 28.5V14.72H68.0668V28.5H62.3468ZM65.2068 13.42C64.1668 13.42 63.3868 13.238 62.8668 12.874C62.3468 12.4927 62.0868 11.9813 62.0868 11.34C62.0868 10.6987 62.3468 10.196 62.8668 9.832C63.3868 9.45067 64.1668 9.26 65.2068 9.26C66.2468 9.26 67.0268 9.45067 67.5468 9.832C68.0668 10.196 68.3268 10.6987 68.3268 11.34C68.3268 11.9813 68.0668 12.4927 67.5468 12.874C67.0268 13.238 66.2468 13.42 65.2068 13.42ZM70.7917 28.5V14.72H76.0957V16.28C76.4077 15.7427 76.8931 15.2833 77.5517 14.902C78.2277 14.5207 79.1377 14.33 80.2817 14.33C81.7551 14.33 82.8817 14.746 83.6617 15.578C84.4417 16.41 84.8317 17.6407 84.8317 19.27V28.5H79.1117V20.44C79.1117 19.9893 79.0164 19.634 78.8257 19.374C78.6351 19.0967 78.3404 18.958 77.9417 18.958C77.6124 18.958 77.3351 19.0187 77.1097 19.14C76.9017 19.2613 76.7457 19.4347 76.6417 19.66C76.5551 19.868 76.5117 20.128 76.5117 20.44V28.5H70.7917ZM94.3339 28.89C92.9299 28.89 91.6559 28.6387 90.5119 28.136C89.3679 27.616 88.4579 26.8273 87.7819 25.77C87.1232 24.7127 86.7939 23.3693 86.7939 21.74V21.22C86.7939 19.712 87.1232 18.4467 87.7819 17.424C88.4579 16.4013 89.3679 15.63 90.5119 15.11C91.6559 14.59 92.9299 14.33 94.3339 14.33C95.7552 14.33 97.0292 14.59 98.1559 15.11C99.2999 15.63 100.201 16.4013 100.86 17.424C101.536 18.4467 101.874 19.712 101.874 21.22V21.74C101.874 23.3 101.536 24.6173 100.86 25.692C100.201 26.7493 99.2999 27.5467 98.1559 28.084C97.0292 28.6213 95.7552 28.89 94.3339 28.89ZM94.3339 24.262C94.6806 24.262 94.9752 24.184 95.2179 24.028C95.4779 23.8547 95.6686 23.586 95.7899 23.222C95.9286 22.8407 95.9979 22.3467 95.9979 21.74V21.22C95.9979 20.6827 95.9286 20.2493 95.7899 19.92C95.6686 19.5907 95.4779 19.348 95.2179 19.192C94.9752 19.036 94.6806 18.958 94.3339 18.958C93.9872 18.958 93.6839 19.036 93.4239 19.192C93.1812 19.348 92.9906 19.5907 92.8519 19.92C92.7306 20.2493 92.6699 20.6827 92.6699 21.22V21.74C92.6699 22.3467 92.7306 22.8407 92.8519 23.222C92.9906 23.586 93.1812 23.8547 93.4239 24.028C93.6839 24.184 93.9872 24.262 94.3339 24.262Z" fill="white"/>
</g>
<defs>
<filter id="filter0_dd_635_7063" x="10.39" y="6.26001" width="95.4839" height="27.63" filterUnits="userSpaceOnUse" color-interpolation-filters="sRGB">
<feFlood flood-opacity="0" result="BackgroundImageFix"/>
<feColorMatrix in="SourceAlpha" type="matrix" values="0 0 0 0 0 0 0 0 0 0 0 0 0 0 0 0 0 0 127 0" result="hardAlpha"/>
<feOffset dy="1"/>
<feGaussianBlur stdDeviation="1"/>
<feColorMatrix type="matrix" values="0 0 0 0 0 0 0 0 0 0 0 0 0 0 0 0 0 0 0.3 0"/>
<feBlend mode="normal" in2="BackgroundImageFix" result="effect1_dropShadow_635_7063"/>
<feColorMatrix in="SourceAlpha" type="matrix" values="0 0 0 0 0 0 0 0 0 0 0 0 0 0 0 0 0 0 127 0" result="hardAlpha"/>
<feMorphology radius="1" operator="dilate" in="SourceAlpha" result="effect2_dropShadow_635_7063"/>
<feOffset dy="1"/>
<feGaussianBlur stdDeviation="1.5"/>
<feColorMatrix type="matrix" values="0 0 0 0 0 0 0 0 0 0 0 0 0 0 0 0 0 0 0.15 0"/>
<feBlend mode="normal" in2="effect1_dropShadow_635_7063" result="effect2_dropShadow_635_7063"/>
<feBlend mode="normal" in="SourceGraphic" in2="effect2_dropShadow_635_7063" result="shape"/>
</filter>
<radialGradient id="paint0_radial_635_7063" cx="0" cy="0" r="1" gradientUnits="userSpaceOnUse" gradientTransform="translate(34 7) rotate(108.905) scale(38.5811)">
<stop stop-color="#3091FE"/>
<stop offset="1" stop-color="#7D4FE9"/>
</radialGradient>
</defs>
</svg>
