<svg width="118" height="40" viewBox="0 0 118 40" fill="none" xmlns="http://www.w3.org/2000/svg">
<path d="M42.01 26.753C42.2 26.943 42.327 27.261 42.327 27.579C42.327 27.833 42.264 28.024 42.2 28.214C42.074 28.404 41.947 28.532 41.82 28.659C41.63 28.786 41.44 28.786 41.187 28.786H39.857V30.566C39.857 30.629 39.857 30.629 39.794 30.629L39.731 30.692C39.667 30.692 39.667 30.692 39.667 30.629L39.604 30.565V26.562C39.604 26.499 39.604 26.499 39.667 26.499L39.731 26.435H41.187C41.504 26.435 41.757 26.562 42.01 26.753ZM41.82 28.278C42.01 28.088 42.074 27.897 42.074 27.578C42.074 27.261 42.01 27.07 41.82 26.88C41.7392 26.7943 41.6408 26.7272 41.5315 26.6833C41.4222 26.6395 41.3046 26.6199 41.187 26.626H39.857V28.532H41.187C41.44 28.596 41.63 28.468 41.82 28.278ZM46.253 30.566C46.253 30.629 46.253 30.629 46.19 30.629L46.127 30.693H46.063C45.937 30.629 45.873 30.502 45.81 30.375C45.747 30.248 45.683 29.994 45.683 29.675C45.683 29.358 45.62 29.104 45.43 28.977C45.24 28.85 45.05 28.787 44.797 28.787H43.404V30.566C43.404 30.629 43.404 30.629 43.34 30.629L43.277 30.693C43.214 30.693 43.214 30.693 43.214 30.629L43.15 30.565V26.562C43.15 26.499 43.15 26.499 43.214 26.499L43.277 26.435H44.86C45.113 26.435 45.303 26.499 45.493 26.562C45.683 26.689 45.81 26.817 45.937 26.944C46.063 27.071 46.063 27.324 46.063 27.515C46.063 27.77 46 28.024 45.873 28.215C45.7388 28.4101 45.5347 28.5462 45.303 28.595C45.493 28.659 45.683 28.786 45.81 28.977C45.937 29.167 46 29.358 46 29.676C46 29.93 46 30.121 46.063 30.248C46.127 30.375 46.127 30.438 46.19 30.502L46.253 30.566ZM44.86 28.532C45.113 28.532 45.303 28.405 45.493 28.214C45.683 28.024 45.747 27.77 45.747 27.515C45.7531 27.3971 45.7335 27.2793 45.6896 27.1697C45.6458 27.06 45.5787 26.9612 45.493 26.88C45.303 26.69 45.05 26.626 44.797 26.626H43.34V28.532H44.86ZM49.61 30.502L49.673 30.566C49.673 30.629 49.673 30.629 49.61 30.629L49.546 30.693H47.266C47.203 30.693 47.203 30.693 47.203 30.629L47.14 30.565V26.562C47.14 26.499 47.14 26.499 47.203 26.499L47.267 26.435H49.547C49.61 26.435 49.61 26.435 49.61 26.499L49.673 26.562C49.673 26.626 49.673 26.626 49.61 26.626L49.546 26.689H47.393V28.405H49.293C49.356 28.405 49.356 28.405 49.356 28.469L49.42 28.532C49.42 28.596 49.42 28.596 49.356 28.596L49.293 28.659H47.393V30.502H49.546C49.546 30.438 49.61 30.502 49.61 30.502ZM54.295 26.499V30.565C54.295 30.629 54.295 30.629 54.232 30.629L54.169 30.693C54.106 30.693 54.106 30.693 54.106 30.629L54.042 30.565V26.944L52.459 29.294C52.459 29.358 52.396 29.358 52.396 29.358C52.332 29.358 52.332 29.358 52.269 29.295L50.686 26.88V30.566C50.686 30.629 50.686 30.629 50.623 30.629L50.559 30.693C50.496 30.693 50.496 30.693 50.496 30.629L50.433 30.565V26.562C50.433 26.562 50.433 26.499 50.496 26.499L50.559 26.435C50.623 26.435 50.623 26.435 50.686 26.499L52.396 29.041L54.106 26.499C54.169 26.435 54.169 26.435 54.232 26.435C54.232 26.435 54.295 26.435 54.295 26.499ZM55.689 30.693L55.625 30.756C55.562 30.756 55.562 30.756 55.562 30.693L55.499 30.629V26.626C55.499 26.563 55.499 26.563 55.562 26.563L55.625 26.499C55.689 26.499 55.689 26.499 55.689 26.563L55.752 26.626V30.629L55.689 30.693ZM59.995 26.499L60.058 26.562V29.232C60.058 29.485 59.995 29.803 59.868 29.994C59.7469 30.2428 59.5463 30.444 59.298 30.566C59.045 30.693 58.791 30.756 58.538 30.756C58.285 30.756 57.968 30.693 57.778 30.566C57.5297 30.444 57.3291 30.2428 57.208 29.994C57.0858 29.7581 57.0207 29.4967 57.018 29.231V26.562C57.018 26.499 57.018 26.499 57.082 26.499L57.145 26.435C57.208 26.435 57.208 26.435 57.208 26.499L57.272 26.562V29.232C57.272 29.485 57.335 29.676 57.462 29.866C57.588 30.057 57.715 30.248 57.968 30.375C58.158 30.502 58.411 30.565 58.601 30.565C58.791 30.565 59.045 30.502 59.235 30.375C59.425 30.248 59.615 30.121 59.741 29.866C59.868 29.612 59.931 29.422 59.931 29.231V26.562C59.931 26.499 59.931 26.499 59.995 26.499L60.058 26.435C60.058 26.435 59.995 26.435 59.995 26.499ZM64.997 26.499V30.565C64.997 30.629 64.997 30.629 64.934 30.629L64.871 30.693C64.807 30.693 64.807 30.693 64.807 30.629L64.744 30.565V26.944L63.161 29.294C63.161 29.358 63.098 29.358 63.098 29.358C63.034 29.358 63.034 29.358 62.971 29.295L61.388 26.88V30.566C61.388 30.629 61.388 30.629 61.325 30.629L61.261 30.693C61.198 30.693 61.198 30.693 61.198 30.629L61.135 30.565V26.562C61.135 26.562 61.135 26.499 61.198 26.499L61.261 26.435C61.324 26.435 61.324 26.435 61.388 26.499L63.098 29.041L64.808 26.499C64.871 26.435 64.871 26.435 64.934 26.435C64.934 26.435 64.997 26.435 64.997 26.499ZM71.583 26.499V30.565C71.583 30.629 71.583 30.629 71.52 30.629L71.457 30.693C71.393 30.693 71.393 30.693 71.393 30.629L71.33 30.565V26.944L69.747 29.294C69.747 29.358 69.683 29.358 69.683 29.358C69.62 29.358 69.62 29.358 69.557 29.295L67.974 26.88V30.566C67.974 30.629 67.974 30.629 67.91 30.629L67.847 30.693C67.784 30.693 67.784 30.693 67.784 30.629L67.72 30.565V26.562C67.72 26.562 67.72 26.499 67.784 26.499L67.847 26.435C67.91 26.435 67.91 26.435 67.974 26.499L69.684 29.041L71.394 26.499C71.457 26.435 71.457 26.435 71.52 26.435L71.583 26.499ZM76.27 29.74C76.08 30.057 75.826 30.311 75.573 30.502C75.256 30.692 74.939 30.756 74.496 30.756C74.053 30.756 73.736 30.693 73.42 30.502C73.103 30.312 72.85 30.057 72.723 29.739C72.533 29.422 72.47 29.041 72.47 28.596C72.47 28.151 72.533 27.77 72.723 27.452C72.913 27.134 73.166 26.88 73.42 26.689C73.736 26.499 74.053 26.435 74.496 26.435C74.939 26.435 75.256 26.499 75.573 26.689C75.889 26.88 76.143 27.134 76.269 27.452C76.459 27.77 76.522 28.151 76.522 28.596C76.522 28.976 76.459 29.358 76.269 29.739L76.27 29.74ZM76.016 27.579C75.889 27.261 75.636 27.071 75.383 26.88C75.129 26.69 74.813 26.626 74.433 26.626C74.116 26.626 73.799 26.689 73.483 26.88C73.23 27.07 72.976 27.261 72.85 27.579C72.723 27.897 72.596 28.214 72.596 28.596C72.596 28.976 72.66 29.295 72.85 29.612C72.976 29.93 73.23 30.121 73.483 30.312C73.736 30.502 74.053 30.565 74.433 30.565C74.749 30.565 75.066 30.502 75.383 30.311C75.636 30.121 75.889 29.931 76.016 29.612C76.143 29.295 76.269 28.977 76.269 28.596C76.269 28.214 76.206 27.833 76.016 27.579ZM80.195 28.85C80.322 29.04 80.449 29.295 80.449 29.549C80.449 29.93 80.322 30.184 80.069 30.375C79.815 30.565 79.562 30.693 79.182 30.693H77.472C77.409 30.693 77.409 30.693 77.409 30.629L77.346 30.565V26.562C77.346 26.499 77.346 26.499 77.409 26.499L77.472 26.435H79.119C79.435 26.435 79.689 26.499 79.879 26.689C80.069 26.88 80.195 27.134 80.195 27.452C80.195 27.706 80.132 27.897 80.005 28.087C79.879 28.277 79.752 28.405 79.562 28.469C79.815 28.532 80.005 28.66 80.195 28.85ZM79.752 26.88C79.625 26.753 79.372 26.69 79.119 26.69H77.662V28.405H79.119C79.2366 28.4111 79.3542 28.3916 79.4635 28.3477C79.5728 28.3038 79.6712 28.2367 79.752 28.151C79.879 27.961 80.005 27.77 80.005 27.451C79.942 27.198 79.879 27.007 79.752 26.88ZM79.879 30.248C80.069 30.121 80.132 29.866 80.132 29.548C80.132 29.231 80.068 29.041 79.879 28.85C79.689 28.66 79.435 28.596 79.119 28.596H77.599V30.438H79.119C79.435 30.438 79.689 30.375 79.879 30.248ZM81.462 30.693L81.398 30.756C81.335 30.756 81.335 30.756 81.335 30.693L81.272 30.629V26.626C81.272 26.563 81.272 26.563 81.335 26.563L81.399 26.499C81.399 26.499 81.462 26.499 81.462 26.563L81.525 26.626V30.629L81.462 30.693ZM85.135 30.502L85.198 30.566C85.198 30.629 85.198 30.629 85.135 30.629L85.071 30.693H82.855C82.792 30.693 82.792 30.693 82.792 30.629L82.728 30.565V26.562C82.728 26.499 82.728 26.499 82.792 26.499L82.855 26.435C82.855 26.435 82.918 26.435 82.918 26.499L82.982 26.562V30.502H85.072C85.072 30.438 85.072 30.502 85.135 30.502ZM88.3 30.502L88.364 30.566C88.364 30.629 88.364 30.629 88.301 30.629L88.238 30.693H85.958C85.895 30.693 85.895 30.693 85.895 30.629L85.831 30.565V26.562C85.831 26.499 85.831 26.499 85.895 26.499L85.958 26.435H88.238C88.301 26.435 88.301 26.435 88.301 26.499L88.364 26.562C88.364 26.626 88.364 26.626 88.301 26.626L88.238 26.689H86.02V28.405H87.92C87.983 28.405 87.983 28.405 87.983 28.469L88.047 28.532C88.047 28.596 88.047 28.596 87.983 28.596L87.92 28.659H86.02V30.502H88.173C88.237 30.438 88.3 30.502 88.3 30.502ZM93.937 28.66L94 28.723V30.248C94 30.312 94 30.312 93.937 30.375C93.747 30.502 93.557 30.629 93.304 30.693C93.114 30.756 92.86 30.82 92.607 30.82C92.164 30.82 91.784 30.756 91.467 30.566C91.1541 30.379 90.8928 30.1167 90.707 29.803C90.517 29.485 90.454 29.104 90.454 28.66C90.454 28.215 90.517 27.833 90.707 27.516C90.897 27.198 91.151 26.944 91.467 26.753C91.784 26.563 92.164 26.499 92.607 26.499C92.86 26.499 93.05 26.499 93.24 26.563C93.43 26.626 93.62 26.69 93.81 26.817C93.873 26.817 93.873 26.88 93.873 26.944C93.873 27.007 93.873 27.007 93.81 27.007L93.747 27.071H93.683C93.3592 26.8708 92.9876 26.7609 92.607 26.753C92.227 26.753 91.91 26.817 91.594 27.007C91.277 27.198 91.087 27.389 90.897 27.707C90.707 28.024 90.644 28.342 90.644 28.723C90.644 29.104 90.707 29.422 90.897 29.74C91.087 30.057 91.277 30.248 91.594 30.439C91.91 30.629 92.227 30.693 92.607 30.693C92.797 30.693 92.987 30.693 93.177 30.629C93.367 30.566 93.557 30.502 93.683 30.375V29.041H92.607C92.544 29.041 92.544 29.041 92.544 28.977L92.48 28.914C92.48 28.85 92.48 28.85 92.544 28.85L92.607 28.787H93.81C93.873 28.596 93.937 28.596 93.937 28.66ZM98.053 30.566C98.053 30.629 98.053 30.629 97.99 30.629H97.863L97.799 30.565L97.293 29.295H95.267L94.76 30.565C94.76 30.629 94.697 30.629 94.633 30.629H94.57L94.507 30.565V30.502L96.153 26.499C96.153 26.435 96.153 26.435 96.216 26.435H96.28C96.343 26.435 96.406 26.435 96.406 26.499L98.053 30.566ZM95.393 29.168H97.23L96.28 26.88L95.393 29.168ZM102.612 26.499V30.565C102.612 30.629 102.612 30.629 102.549 30.629L102.486 30.693C102.422 30.693 102.422 30.693 102.422 30.629L102.359 30.565V26.944L100.776 29.294C100.776 29.358 100.713 29.358 100.713 29.358C100.649 29.358 100.649 29.358 100.586 29.295L99.003 26.88V30.566C99.003 30.629 99.003 30.629 98.939 30.629L98.876 30.693C98.813 30.693 98.813 30.693 98.813 30.629L98.749 30.565V26.562C98.749 26.562 98.749 26.499 98.813 26.499L98.876 26.435C98.939 26.435 98.939 26.435 99.003 26.499L100.713 29.041L102.422 26.499C102.486 26.435 102.486 26.435 102.549 26.435C102.549 26.435 102.612 26.435 102.612 26.499ZM106.285 30.502L106.348 30.566C106.348 30.629 106.348 30.629 106.285 30.629L106.222 30.693H103.942C103.879 30.693 103.879 30.693 103.879 30.629L103.815 30.565V26.562C103.815 26.499 103.815 26.499 103.879 26.499L103.942 26.435H106.222C106.285 26.435 106.285 26.435 106.285 26.499L106.348 26.562C106.348 26.626 106.348 26.626 106.285 26.626L106.222 26.689H104.068V28.405H105.968C106.032 28.405 106.032 28.405 106.032 28.469L106.095 28.532C106.095 28.596 106.095 28.596 106.032 28.596L105.968 28.659H104.068V30.502H106.222C106.285 30.438 106.285 30.502 106.285 30.502ZM107.488 30.629C107.235 30.502 107.045 30.375 106.855 30.121L106.792 30.057C106.792 29.994 106.792 29.994 106.855 29.994L106.918 29.93C106.982 29.93 106.982 29.93 107.045 29.994C107.235 30.184 107.361 30.311 107.615 30.438C107.805 30.566 108.058 30.566 108.311 30.566C108.628 30.566 108.881 30.502 109.071 30.311C109.163 30.2453 109.239 30.1598 109.294 30.0609C109.349 29.9619 109.381 29.8519 109.388 29.739C109.393 29.5514 109.325 29.3692 109.198 29.231C109.071 29.104 108.945 28.977 108.818 28.913C108.691 28.85 108.438 28.723 108.185 28.659C107.931 28.532 107.678 28.469 107.551 28.405C107.425 28.341 107.235 28.215 107.172 28.087C107.045 27.96 106.982 27.77 106.982 27.515C106.982 27.325 107.045 27.135 107.172 26.944C107.298 26.753 107.425 26.626 107.615 26.562C107.805 26.499 108.058 26.435 108.311 26.435C108.565 26.435 108.755 26.499 109.008 26.562C109.261 26.626 109.388 26.752 109.515 26.944C109.551 26.9771 109.573 27.0223 109.578 27.071C109.578 27.134 109.578 27.134 109.515 27.134C109.515 27.134 109.451 27.198 109.388 27.198C109.325 27.198 109.325 27.198 109.325 27.134C109.198 27.007 109.071 26.88 108.881 26.817C108.691 26.753 108.501 26.689 108.311 26.689C107.995 26.689 107.741 26.753 107.551 26.88C107.454 26.9402 107.374 27.0245 107.318 27.1247C107.263 27.2248 107.234 27.3376 107.235 27.452C107.235 27.642 107.298 27.77 107.361 27.897C107.488 28.024 107.615 28.087 107.741 28.214C107.868 28.278 108.058 28.342 108.311 28.469C108.565 28.596 108.818 28.659 109.008 28.723C109.198 28.786 109.325 28.913 109.451 29.104C109.578 29.294 109.641 29.485 109.641 29.739C109.641 29.93 109.578 30.121 109.451 30.248C109.325 30.438 109.198 30.565 109.008 30.629C108.818 30.756 108.565 30.756 108.311 30.756C107.995 30.756 107.741 30.693 107.488 30.629ZM50.686 19.763C50.1997 20.6941 49.4794 21.4827 48.596 22.051C47.71 22.623 46.696 22.877 45.556 22.877C44.417 22.877 43.404 22.623 42.517 22.051C41.6336 21.4827 40.9133 20.6941 40.427 19.763C39.921 18.81 39.667 17.73 39.667 16.586C39.667 15.442 39.921 14.362 40.427 13.409C40.9133 12.4779 41.6336 11.6894 42.517 11.121C43.404 10.55 44.417 10.295 45.557 10.295C46.697 10.295 47.71 10.55 48.597 11.121C49.4804 11.6894 50.2007 12.4779 50.687 13.409C51.193 14.362 51.446 15.442 51.446 16.586C51.446 17.73 51.193 18.81 50.686 19.763ZM48.66 14.49C48.3594 13.873 47.9005 13.3467 47.33 12.965C46.7692 12.5865 46.1066 12.387 45.43 12.393C44.734 12.393 44.1 12.584 43.53 12.965C42.96 13.346 42.517 13.855 42.264 14.49C41.947 15.126 41.821 15.825 41.821 16.65C41.821 17.413 41.947 18.176 42.264 18.811C42.5618 19.4111 42.9956 19.9333 43.531 20.336C44.101 20.717 44.734 20.908 45.431 20.908C46.127 20.908 46.76 20.718 47.33 20.336C47.9005 19.9543 48.3594 19.4281 48.66 18.811C48.976 18.176 49.103 17.477 49.103 16.714C49.166 15.9459 49.0125 15.1754 48.66 14.49ZM60.438 14.235C60.881 14.934 61.135 15.951 61.135 17.158V21.86C61.135 22.178 61.008 22.432 60.818 22.623C60.628 22.813 60.375 22.94 60.058 22.94C59.742 22.94 59.488 22.877 59.298 22.623C59.1967 22.5237 59.1165 22.4049 59.0622 22.2738C59.0079 22.1426 58.9806 22.0019 58.982 21.86V17.158C58.982 16.522 58.855 16.014 58.602 15.633C58.348 15.252 57.905 15.061 57.209 15.061C56.512 15.061 56.005 15.251 55.625 15.633C55.245 16.014 55.055 16.523 55.055 17.094V21.797C55.055 22.114 54.929 22.368 54.739 22.559C54.549 22.749 54.296 22.877 53.979 22.877C53.662 22.877 53.409 22.813 53.219 22.559C53.1178 22.4598 53.0377 22.3411 52.9834 22.2102C52.9291 22.0793 52.9017 21.9388 52.903 21.797V14.17C52.903 13.853 53.029 13.599 53.219 13.408C53.409 13.218 53.662 13.09 53.979 13.09C54.296 13.09 54.549 13.217 54.739 13.408C54.929 13.598 55.056 13.853 55.056 14.17V14.615C55.372 14.17 55.752 13.853 56.259 13.535C56.765 13.217 57.335 13.09 57.905 13.09C59.172 13.217 59.995 13.536 60.438 14.235ZM71.203 18.493C71.013 18.683 70.76 18.747 70.443 18.747H64.681C64.807 19.447 65.124 19.954 65.631 20.336C66.1214 20.7119 66.7232 20.9132 67.341 20.908C67.847 20.908 68.164 20.844 68.481 20.78C68.734 20.717 68.987 20.59 69.114 20.526C69.24 20.399 69.367 20.336 69.43 20.336C69.62 20.209 69.81 20.209 70 20.209C70.253 20.209 70.443 20.272 70.633 20.463C70.823 20.653 70.887 20.844 70.887 21.098C70.887 21.416 70.697 21.67 70.38 21.988C70.063 22.242 69.62 22.496 69.05 22.687C68.48 22.877 67.974 22.941 67.404 22.941C66.454 22.941 65.567 22.751 64.871 22.305C64.174 21.925 63.604 21.352 63.161 20.59C62.781 19.89 62.591 19.065 62.591 18.175C62.591 17.158 62.781 16.269 63.224 15.506C63.668 14.744 64.174 14.172 64.871 13.791C65.567 13.409 66.264 13.155 67.087 13.155C67.847 13.155 68.607 13.346 69.24 13.791C69.937 14.236 70.443 14.807 70.887 15.506C71.267 16.206 71.52 16.968 71.52 17.794C71.52 18.112 71.457 18.366 71.203 18.493ZM64.744 17.031H69.304V16.904C69.24 16.396 68.987 16.014 68.607 15.634C68.164 15.252 67.657 15.125 67.15 15.125C65.82 15.125 64.997 15.761 64.744 17.031ZM81.019 10.486C81.209 10.676 81.335 10.931 81.335 11.248C81.335 11.566 81.209 11.82 81.019 11.948C80.829 12.138 80.575 12.201 80.259 12.201H77.536V21.796C77.536 22.114 77.409 22.368 77.219 22.559C77.029 22.749 76.713 22.877 76.396 22.877C76.079 22.877 75.826 22.75 75.573 22.559C75.4715 22.4597 75.3911 22.341 75.3366 22.2099C75.2821 22.0788 75.2547 21.938 75.256 21.796V12.265H72.533C72.216 12.265 71.963 12.201 71.773 12.011C71.6717 11.9117 71.5915 11.7929 71.5372 11.6618C71.4829 11.5306 71.4556 11.3899 71.457 11.248C71.457 10.931 71.583 10.74 71.773 10.549C71.963 10.359 72.217 10.295 72.533 10.295H80.259C80.575 10.232 80.829 10.295 81.019 10.485V10.486ZM88.934 20.59C88.491 21.352 87.921 21.924 87.224 22.305C86.488 22.7154 85.6606 22.9341 84.818 22.941C83.931 22.941 83.108 22.751 82.412 22.305C81.715 21.925 81.145 21.352 80.702 20.59C80.259 19.827 80.069 19.001 80.069 18.048C80.069 17.095 80.259 16.268 80.702 15.506C81.145 14.744 81.715 14.172 82.412 13.791C83.108 13.346 83.932 13.155 84.818 13.155C85.704 13.155 86.464 13.346 87.224 13.791C87.921 14.236 88.554 14.807 88.934 15.506C89.377 16.269 89.567 17.095 89.567 18.048C89.567 19.001 89.377 19.828 88.934 20.59ZM87.098 16.523C86.844 16.078 86.528 15.697 86.148 15.506C85.768 15.252 85.325 15.126 84.818 15.126C84.311 15.126 83.868 15.252 83.488 15.506C83.108 15.761 82.792 16.078 82.538 16.523C82.285 16.968 82.158 17.476 82.158 18.048C82.158 18.62 82.285 19.128 82.538 19.573C82.792 20.018 83.108 20.336 83.488 20.59C83.868 20.844 84.311 20.971 84.818 20.971C85.325 20.971 85.768 20.844 86.148 20.59C86.528 20.336 86.844 20.018 87.098 19.573C87.351 19.128 87.478 18.62 87.478 18.048C87.478 17.476 87.351 16.968 87.098 16.523ZM98.813 13.473C99.003 13.663 99.129 13.918 99.129 14.236V18.874C99.129 20.145 98.813 21.098 98.116 21.861C97.419 22.623 96.406 22.941 95.14 22.941C93.873 22.941 92.86 22.56 92.164 21.861C91.467 21.161 91.15 20.145 91.15 18.874V14.236C91.15 13.918 91.277 13.664 91.467 13.473C91.657 13.283 91.91 13.155 92.227 13.155C92.543 13.155 92.797 13.282 92.987 13.473C93.177 13.663 93.303 13.918 93.303 14.236V18.874C93.303 19.574 93.43 20.145 93.747 20.463C94.063 20.78 94.507 20.971 95.14 20.971C95.773 20.971 96.28 20.781 96.596 20.463C96.913 20.145 97.04 19.573 97.04 18.874V14.236C97.04 13.918 97.166 13.664 97.356 13.473C97.546 13.283 97.8 13.155 98.116 13.155C98.369 13.219 98.623 13.282 98.813 13.473ZM107.615 13.663C108.248 13.981 108.501 14.363 108.501 14.871C108.501 15.125 108.438 15.379 108.248 15.57C108.183 15.6621 108.098 15.7384 107.999 15.7932C107.9 15.8481 107.791 15.8801 107.678 15.887C107.488 15.887 107.362 15.887 107.235 15.824C107.108 15.76 106.982 15.697 106.918 15.634C106.792 15.57 106.728 15.443 106.602 15.443C106.444 15.3638 106.271 15.3204 106.095 15.316C105.842 15.252 105.715 15.252 105.525 15.252C104.639 15.252 103.942 15.506 103.499 16.078C102.992 16.65 102.739 17.348 102.739 18.175C102.739 19.001 102.992 19.7 103.499 20.272C104.005 20.844 104.639 21.098 105.399 21.098C105.968 21.098 106.412 21.034 106.665 20.908C106.728 20.844 106.855 20.78 106.982 20.717C107.108 20.653 107.235 20.59 107.298 20.526C107.425 20.462 107.552 20.462 107.678 20.462C107.995 20.462 108.185 20.526 108.375 20.717C108.565 20.907 108.628 21.161 108.628 21.416C108.628 21.67 108.438 21.987 108.121 22.178C107.805 22.432 107.362 22.623 106.855 22.75C106.295 22.883 105.721 22.9468 105.145 22.94C104.259 22.94 103.435 22.75 102.802 22.305C102.135 21.8802 101.589 21.2892 101.219 20.59C100.837 19.8198 100.642 18.9706 100.649 18.111C100.649 17.158 100.839 16.332 101.219 15.57C101.599 14.807 102.169 14.235 102.866 13.854C103.562 13.409 104.385 13.219 105.209 13.219C106.222 13.219 106.982 13.346 107.615 13.663ZM117.367 14.236C117.81 14.934 118 15.951 118 17.158V21.797C118 22.115 117.873 22.369 117.683 22.56C117.493 22.75 117.24 22.877 116.923 22.877C116.607 22.877 116.354 22.75 116.164 22.56C116.062 22.4607 115.982 22.342 115.928 22.2109C115.873 22.0798 115.846 21.939 115.847 21.797V17.158C115.847 16.523 115.72 16.015 115.467 15.633C115.214 15.253 114.77 15.062 114.137 15.062C113.504 15.062 112.997 15.252 112.617 15.633C112.237 16.015 112.047 16.523 112.047 17.095V21.734C112.047 22.051 111.921 22.305 111.731 22.496C111.541 22.686 111.288 22.814 110.971 22.814C110.654 22.814 110.401 22.687 110.211 22.496C110.11 22.3969 110.029 22.2783 109.975 22.1473C109.92 22.0164 109.893 21.8758 109.894 21.734V11.311C109.894 10.994 110.021 10.74 110.211 10.549C110.401 10.359 110.654 10.231 110.971 10.231C111.288 10.231 111.541 10.358 111.731 10.549C111.921 10.739 112.047 10.994 112.047 11.311V14.743C112.364 14.298 112.744 13.98 113.251 13.663C113.723 13.3623 114.274 13.2075 114.834 13.218C116.1 13.218 116.923 13.536 117.367 14.235V14.236Z" fill="#80828E"/>
<path d="M21.404 25.291C21.2828 25.3952 21.1834 25.5223 21.1114 25.665C21.0394 25.8077 20.9962 25.9633 20.9844 26.1227C20.9726 26.2821 20.9924 26.4423 21.0426 26.594C21.0928 26.7458 21.1725 26.8861 21.277 27.007C21.3804 27.1285 21.5069 27.2283 21.6491 27.3005C21.7913 27.3727 21.9464 27.416 22.1055 27.4278C22.2646 27.4396 22.4244 27.4197 22.5757 27.3693C22.727 27.3189 22.8668 27.2389 22.987 27.134C25.013 25.482 26.153 23.004 26.153 20.399C26.153 15.569 22.227 11.629 17.414 11.629C12.602 11.629 8.67603 15.569 8.67603 20.399C8.67505 21.7012 8.96448 22.9871 9.52324 24.1633C10.082 25.3394 10.896 26.3762 11.906 27.198C12.412 27.642 13.172 27.515 13.615 27.007C14.058 26.499 13.932 25.737 13.425 25.291C8.80203 21.542 11.399 13.981 17.351 13.981C23.304 14.108 25.963 21.542 21.404 25.291ZM25.076 31.201C28.369 28.786 30.522 24.911 30.522 20.526C30.5286 20.3639 30.5024 20.2021 30.4449 20.0504C30.3875 19.8987 30.2999 19.7602 30.1876 19.6431C30.0752 19.5261 29.9403 19.433 29.7911 19.3694C29.6418 19.3058 29.4813 19.273 29.319 19.273C29.1568 19.273 28.9962 19.3058 28.847 19.3694C28.6977 19.433 28.5629 19.5261 28.4505 19.6431C28.3381 19.7602 28.2506 19.8987 28.1931 20.0504C28.1356 20.2021 28.1094 20.3639 28.116 20.526C28.116 24.148 26.343 27.325 23.62 29.295C23.113 29.676 22.987 30.439 23.367 30.947C23.747 31.455 24.506 31.582 25.076 31.201Z" fill="#80828E"/>
<path d="M12.412 3.75001C11.778 3.94101 11.398 4.57701 11.588 5.21201C11.778 5.84801 12.412 6.22901 13.045 6.03801C22.67 3.17801 32.295 10.359 32.295 20.399C32.295 21.034 32.802 21.606 33.499 21.606C34.132 21.606 34.702 21.098 34.702 20.399C34.639 8.77101 23.493 0.382011 12.412 3.75001Z" fill="#80828E"/>
<path d="M25.647 10.232C17.161 3.30597 4.24298 9.34197 4.24298 20.462C4.24298 27.77 10.133 33.68 17.414 33.68C18.048 33.68 18.618 33.171 18.618 32.472C18.618 31.773 18.111 31.265 17.414 31.265C11.462 31.265 6.64898 26.435 6.64898 20.463C6.64898 11.376 17.224 6.41997 24.19 12.075C24.697 12.52 25.457 12.393 25.9 11.885C26.28 11.44 26.217 10.676 25.647 10.232Z" fill="#80828E"/>
<path d="M1.203 19.382C0.57 19.382 0 19.89 0 20.59C0 30.184 7.789 38 17.35 38C21.4265 37.9887 25.3702 36.5497 28.496 33.933C29.003 33.489 29.066 32.726 28.623 32.218C28.5196 32.0965 28.3932 31.9968 28.251 31.9246C28.1087 31.8523 27.9536 31.8091 27.7945 31.7972C27.6355 31.7854 27.4756 31.8053 27.3243 31.8557C27.173 31.9062 27.0332 31.9861 26.913 32.091C24.253 34.378 20.833 35.586 17.288 35.586C8.992 35.586 2.28 28.85 2.28 20.526C2.406 19.89 1.836 19.382 1.203 19.382Z" fill="#80828E"/>
</svg>
