<svg width="49" height="48" viewBox="0 0 49 48" fill="none" xmlns="http://www.w3.org/2000/svg">
<g clip-path="url(#clip0_1_397)">
<path d="M32.3754 34.8509L25.1719 27.625C24.9087 27.3609 24.5976 27.3129 24.4301 27.3129C24.2625 27.3129 23.9514 27.3609 23.6882 27.625L16.4608 34.8749C15.6472 35.6911 14.3788 37.0114 10.1429 37.0114L19.0215 45.8938C20.3677 47.2425 22.1924 48 24.095 48C25.9976 48 27.8224 47.2425 29.1685 45.8938L38.0711 36.9874C35.8933 36.9874 34.0745 36.5553 32.3754 34.8509ZM16.4608 13.1251L23.6882 20.375C23.8796 20.5671 24.1668 20.6871 24.4301 20.6871C24.6933 20.6871 24.9805 20.5671 25.1719 20.375L32.3275 13.1971C34.0266 11.4207 35.9651 11.0126 38.1429 11.0126L29.2403 2.10622C27.8942 0.75754 26.0694 0 24.1668 0C22.2642 0 20.4395 0.75754 19.0933 2.10622L10.2147 10.9886C14.4266 10.9886 15.719 12.3809 16.4608 13.1251Z" fill="#7C8496"/>
<path d="M45.9951 18.6742L40.5957 13.0498H37.5721C36.2762 13.0498 34.9804 13.5973 34.0925 14.5679L26.8934 22.0339C26.2214 22.7308 25.3335 23.0792 24.4457 23.0792C23.5313 23.0658 22.6562 22.6921 21.9979 22.0339L14.7508 14.4932C13.8389 13.5475 12.5911 13 11.2712 13H7.74364L2.2483 18.724C0.900133 20.1239 0.142883 22.0215 0.142883 24C0.142883 25.9785 0.900133 27.8761 2.2483 29.276L7.74364 35H11.2952C12.5911 35 13.8389 34.4525 14.7748 33.5068L22.0219 25.9909C22.6939 25.2941 23.5818 24.9457 24.4696 24.9457C25.3575 24.9457 26.2454 25.2941 26.9174 25.9909L34.1405 33.4819C35.0524 34.4276 36.3002 34.9751 37.6201 34.9751H40.6437L46.0431 29.3507C47.3969 27.9256 48.1518 26.0027 48.1428 24.0022C48.1338 22.0017 47.3617 20.0861 45.9951 18.6742Z" fill="#7C8496"/>
</g>
<defs>
<clipPath id="clip0_1_397">
<rect width="48" height="48" fill="white" transform="translate(0.142883)"/>
</clipPath>
</defs>
</svg>
