<svg width="110" height="40" viewBox="0 0 110 40" fill="none" xmlns="http://www.w3.org/2000/svg">
<path d="M54.175 28.303C54.031 28.313 53.888 28.323 53.745 28.323H4.194C2.494 28.323 1.184 27.625 0.411 26.068C0.229 25.695 0.134 25.275 0 24.873V23.727L0.487 21.95C0.965 20.144 1.442 18.328 1.92 16.523C2.694 13.599 5.073 11.783 8.11 11.783H58.473C58.636 11.783 58.789 11.793 58.951 11.803C58.789 12.252 58.607 12.691 58.464 13.14C57.47 16.255 56.477 19.36 55.512 22.485C54.929 24.395 54.136 26.249 54.175 28.303ZM29.834 14.65H28.783C27.273 14.65 25.85 15.586 25.373 17.02C24.57 19.418 23.834 21.845 23.07 24.262C22.984 24.529 23.07 24.596 23.328 24.587C23.93 24.577 24.541 24.567 25.143 24.587C25.42 24.597 25.535 24.491 25.611 24.243C25.793 23.631 26.003 23.039 26.175 22.427C26.251 22.16 26.375 22.074 26.643 22.083C27.197 22.103 27.761 22.103 28.315 22.083C28.63 22.073 28.755 22.122 28.62 22.475C28.4 23.048 28.248 23.65 28.057 24.243C27.971 24.491 28.028 24.587 28.305 24.577C28.926 24.567 29.547 24.558 30.168 24.577C30.398 24.587 30.512 24.501 30.578 24.29C31.334 21.873 32.117 19.465 32.852 17.039C33.272 15.653 32.452 14.64 31.009 14.64C30.589 14.65 30.216 14.65 29.834 14.65ZM11.731 14.65C10.938 14.65 10.136 14.66 9.343 14.64C9.066 14.631 8.951 14.736 8.884 14.985C8.654 15.739 8.416 16.495 8.177 17.249C7.451 19.561 6.725 21.873 5.99 24.176C5.885 24.501 5.932 24.596 6.276 24.586C6.849 24.568 7.423 24.558 7.996 24.586C8.311 24.606 8.436 24.472 8.512 24.186C8.674 23.603 8.884 23.039 9.047 22.466C9.123 22.179 9.237 22.083 9.534 22.093C10.174 22.113 10.804 22.103 11.444 22.103C12.944 22.103 14.368 21.147 14.864 19.743C15.189 18.854 15.466 17.937 15.724 17.029C16.097 15.663 15.304 14.669 13.88 14.659C13.164 14.65 12.447 14.65 11.731 14.65ZM35.757 19.618C35.7974 19.4672 35.8417 19.3175 35.89 19.169C36.32 17.774 36.75 16.389 37.199 15.004C37.285 14.727 37.256 14.64 36.951 14.64C36.33 14.66 35.709 14.66 35.088 14.64C34.84 14.631 34.754 14.746 34.687 14.946C34.19 16.532 33.674 18.118 33.206 19.704C32.852 20.889 33.387 21.806 34.591 22.064C34.916 22.131 34.878 22.236 34.801 22.466C34.601 23.048 34.438 23.65 34.238 24.233C34.161 24.473 34.18 24.587 34.467 24.577C35.107 24.567 35.737 24.558 36.377 24.577C36.635 24.587 36.702 24.443 36.76 24.252C36.941 23.66 37.142 23.077 37.314 22.485C37.39 22.227 37.476 22.112 37.772 22.065C39.138 21.815 40.16 21.061 40.638 19.752C41.211 18.176 41.67 16.561 42.186 14.965C42.272 14.688 42.176 14.64 41.928 14.64C41.336 14.65 40.753 14.66 40.16 14.64C39.855 14.631 39.721 14.726 39.635 15.023C39.215 16.437 38.756 17.832 38.307 19.236C38.259 19.399 38.269 19.618 37.982 19.618C37.256 19.608 36.521 19.618 35.757 19.618ZM20.06 14.65C19.267 14.65 18.522 14.66 17.777 14.64C17.529 14.64 17.5 14.784 17.452 14.956C16.478 18.052 15.503 21.147 14.519 24.233C14.434 24.501 14.462 24.577 14.768 24.577C17.0413 24.5674 19.3147 24.5674 21.588 24.577C21.808 24.577 21.923 24.52 21.99 24.281C22.439 22.829 22.897 21.386 23.365 19.934C23.442 19.704 23.423 19.58 23.136 19.59C22.496 19.6 21.866 19.609 21.226 19.59C20.968 19.58 20.901 19.714 20.843 19.915C20.653 20.535 20.443 21.147 20.27 21.778C20.203 22.017 20.098 22.112 19.84 22.103C19.2512 22.0838 18.6618 22.0838 18.073 22.103C17.777 22.113 17.72 22.036 17.825 21.749C18.092 20.956 18.331 20.153 18.579 19.351C19.067 17.803 19.554 16.246 20.06 14.651V14.65ZM50.505 20.077C50.477 20.211 50.467 20.297 50.438 20.392C50.075 21.654 49.703 22.915 49.33 24.176C49.244 24.472 49.254 24.606 49.626 24.596C50.228 24.568 50.83 24.586 51.441 24.596C51.642 24.596 51.757 24.549 51.814 24.338C52.254 22.771 52.788 21.233 53.142 19.638C53.372 18.586 52.616 17.66 51.527 17.631C50.6516 17.6038 49.7756 17.6004 48.9 17.621C47.467 17.651 46.11 18.567 45.643 19.924C45.156 21.357 44.763 22.829 44.334 24.281C44.258 24.539 44.363 24.606 44.611 24.606C45.184 24.586 45.757 24.568 46.331 24.616C46.703 24.644 46.818 24.482 46.904 24.166C47.248 22.934 47.611 21.701 47.974 20.478C48.021 20.325 48.002 20.087 48.299 20.096C49.034 20.086 49.76 20.077 50.505 20.077ZM47 14.937H43.915C43.733 14.937 43.675 15.023 43.628 15.176C43.37 15.959 43.103 16.733 42.835 17.506C42.759 17.726 42.807 17.822 43.055 17.822C43.962 17.812 44.87 17.812 45.768 17.822C45.959 17.822 46.064 17.755 46.121 17.583C46.408 16.713 46.694 15.844 47 14.937Z" fill="#4D4F5B"/>
<path d="M54.175 28.303C54.127 26.249 54.929 24.395 55.512 22.485C56.477 19.36 57.47 16.255 58.464 13.14C58.607 12.691 58.789 12.252 58.951 11.803C59.018 11.698 59.094 11.593 59.151 11.487C60.842 8.363 63.384 6.29 66.813 5.325C67.3 5.191 67.807 5.105 68.303 5H68.59C68.733 5.162 68.915 5.096 69.087 5.096H94.85C95.012 5.096 95.203 5.162 95.347 5H95.537C96.015 5.105 96.512 5.191 96.98 5.334C99.55 6.089 101.776 8.096 102.053 11.794C102.062 12.749 101.986 13.704 101.69 14.612C100.228 19.169 98.967 23.794 97.324 28.294C96.77 29.164 96.254 30.052 95.557 30.816C93.598 32.976 91.22 34.409 88.316 34.867C87.198 35.049 86.061 34.991 84.934 34.991C77.167 35.001 69.401 35.001 61.644 34.991C59.819 34.991 58.128 34.551 56.686 33.377C55.186 32.154 54.412 30.567 54.25 28.657C54.24 28.542 54.271 28.408 54.175 28.303ZM83.712 32.316C85.232 32.316 86.358 32.393 87.457 32.297C90.972 32.001 94.335 29.249 95.395 25.847C96.665 21.807 97.927 17.755 99.188 13.704C99.503 12.691 99.646 11.669 99.379 10.618C98.873 8.64 97.21 7.312 95.137 7.303C93.017 7.283 90.906 7.303 88.785 7.303C88.67 7.303 88.555 7.293 88.45 7.322C84.63 8.01 81.964 10.122 80.713 13.819C79.566 17.22 78.525 20.659 77.474 24.089C77.073 25.379 76.547 26.65 76.586 28.055C76.643 30.166 78.191 31.953 80.292 32.24C81.582 32.412 82.852 32.259 83.712 32.316ZM70.5 23.048C70.204 24.013 69.908 24.921 69.64 25.848C69.555 26.144 69.412 26.22 69.106 26.22C67.386 26.201 65.666 26.21 63.947 26.21C63.364 26.21 63.364 26.21 63.546 25.647C64.75 21.845 65.963 18.042 67.147 14.239C67.252 13.886 67.396 13.78 67.759 13.78C71.322 13.8 74.895 13.78 78.459 13.8C78.783 13.8 78.917 13.714 79.012 13.398C79.541 11.6565 80.0887 9.92071 80.655 8.191C80.779 7.809 80.808 7.666 80.302 7.666C76.557 7.685 72.822 7.676 69.077 7.676C68.887 7.676 68.695 7.656 68.504 7.694C64.893 8.334 62.294 10.331 61.091 13.79C59.658 17.898 58.435 22.083 57.136 26.23C56.849 27.147 56.744 28.093 56.974 29.049C57.442 30.989 59.084 32.307 61.081 32.316C63.374 32.326 65.667 32.326 67.959 32.316C68.303 32.316 68.657 32.259 68.991 32.173C72.038 31.38 74.111 29.44 75.153 26.526C76.242 23.507 77.121 20.411 78.095 17.354C78.181 17.086 78.171 16.944 77.818 16.953C75.096 16.963 72.373 16.963 69.65 16.953C69.402 16.953 69.297 17.039 69.22 17.278C68.6674 19.0795 68.0974 20.8755 67.51 22.666C67.396 23.01 67.5 23.058 67.816 23.058C68.705 23.038 69.583 23.048 70.5 23.048Z" fill="#4D4F5B"/>
<path d="M95.338 5C95.195 5.163 95.013 5.096 94.841 5.096H69.077C68.915 5.096 68.724 5.163 68.58 5H95.338Z" fill="#0B0E0E"/>
<path d="M97.325 28.294C98.968 23.794 100.22 19.169 101.691 14.612C101.987 13.695 102.054 12.749 102.054 11.793C103.181 11.823 104.308 11.698 105.435 11.87C107.948 12.252 109.495 14.545 108.855 17.02C108.263 19.342 107.604 21.644 106.935 23.937C106.228 26.393 103.573 28.466 100.955 28.332C99.742 28.275 98.529 28.303 97.325 28.294Z" fill="#4D4F5B"/>
<path d="M29.834 14.65H30.98C32.432 14.66 33.244 15.672 32.824 17.048C32.098 19.475 31.314 21.883 30.55 24.3C30.483 24.51 30.369 24.587 30.14 24.587C29.519 24.567 28.898 24.567 28.277 24.587C28 24.597 27.952 24.501 28.028 24.252C28.219 23.669 28.372 23.068 28.592 22.485C28.726 22.131 28.602 22.083 28.286 22.093C27.732 22.113 27.169 22.113 26.614 22.093C26.347 22.083 26.223 22.169 26.146 22.437C25.974 23.048 25.764 23.641 25.583 24.252C25.506 24.501 25.392 24.606 25.115 24.596C24.5103 24.5721 23.9048 24.5721 23.3 24.596C23.042 24.606 22.956 24.539 23.042 24.271C23.815 21.854 24.542 19.437 25.344 17.029C25.822 15.596 27.245 14.659 28.754 14.659C29.127 14.65 29.48 14.65 29.834 14.65ZM30.283 17.134H28.047C27.904 17.134 27.827 17.172 27.78 17.334C27.55 18.09 27.302 18.834 27.054 19.628H29.251C29.413 19.628 29.509 19.599 29.566 19.428C29.786 18.663 30.034 17.918 30.283 17.134ZM11.73 14.65H13.88C15.304 14.66 16.097 15.653 15.724 17.02C15.4763 17.9362 15.1894 18.8414 14.864 19.733C14.358 21.137 12.944 22.093 11.444 22.093C10.804 22.093 10.174 22.112 9.53402 22.083C9.23802 22.073 9.12302 22.169 9.04702 22.456C8.89402 23.039 8.67402 23.602 8.51202 24.176C8.43502 24.462 8.31102 24.596 7.99602 24.577C7.42304 24.5484 6.849 24.5484 6.27602 24.577C5.92302 24.587 5.88502 24.491 5.99002 24.167C6.72502 21.864 7.45102 19.551 8.17702 17.239C8.41702 16.484 8.66402 15.729 8.88402 14.975C8.96102 14.726 9.06602 14.621 9.34302 14.631C10.136 14.659 10.938 14.65 11.731 14.65H11.73ZM9.94502 19.618C10.728 19.618 11.435 19.608 12.132 19.618C12.323 19.618 12.409 19.571 12.467 19.379C12.687 18.644 12.925 17.899 13.173 17.125H10.938C10.795 17.125 10.718 17.153 10.671 17.315C10.441 18.07 10.193 18.825 9.94502 19.618ZM35.757 19.618C36.521 19.618 37.247 19.608 37.982 19.618C38.269 19.618 38.25 19.398 38.307 19.236C38.757 17.831 39.205 16.436 39.635 15.023C39.721 14.726 39.855 14.621 40.16 14.64C40.753 14.66 41.335 14.66 41.928 14.64C42.176 14.63 42.281 14.688 42.186 14.965C41.67 16.561 41.221 18.185 40.638 19.752C40.16 21.061 39.138 21.816 37.772 22.064C37.476 22.122 37.38 22.236 37.314 22.484C37.142 23.077 36.951 23.66 36.76 24.252C36.702 24.443 36.635 24.587 36.377 24.577C35.737 24.557 35.107 24.557 34.467 24.577C34.18 24.587 34.161 24.472 34.237 24.233C34.429 23.65 34.601 23.048 34.801 22.465C34.878 22.227 34.916 22.131 34.591 22.065C33.387 21.797 32.852 20.889 33.206 19.705C33.683 18.109 34.19 16.532 34.686 14.946C34.754 14.746 34.839 14.64 35.088 14.64C35.708 14.66 36.33 14.66 36.951 14.64C37.256 14.63 37.285 14.726 37.199 15.003C36.75 16.389 36.32 17.783 35.89 19.169C35.843 19.312 35.814 19.445 35.757 19.618ZM20.061 14.65C19.555 16.246 19.068 17.803 18.581 19.35C18.332 20.153 18.093 20.956 17.826 21.75C17.73 22.036 17.778 22.112 18.074 22.103C18.666 22.083 19.249 22.083 19.841 22.103C20.099 22.113 20.195 22.017 20.271 21.778C20.453 21.157 20.653 20.536 20.844 19.915C20.902 19.724 20.969 19.59 21.227 19.59C21.867 19.609 22.497 19.609 23.137 19.59C23.433 19.58 23.443 19.704 23.367 19.934C22.8983 21.3798 22.4396 22.8289 21.991 24.281C21.914 24.52 21.809 24.577 21.59 24.577C19.3164 24.5674 17.0427 24.5674 14.769 24.577C14.463 24.577 14.434 24.501 14.521 24.233C15.504 21.147 16.479 18.052 17.453 14.956C17.511 14.784 17.539 14.631 17.778 14.641C18.523 14.66 19.268 14.651 20.061 14.651V14.65ZM50.506 20.077C49.761 20.077 49.026 20.087 48.3 20.067C48.003 20.057 48.023 20.287 47.975 20.45C47.6083 21.6764 47.2516 22.9058 46.905 24.138C46.819 24.453 46.705 24.615 46.332 24.587C45.758 24.548 45.185 24.567 44.612 24.577C44.364 24.587 44.259 24.52 44.335 24.252C44.775 22.8 45.157 21.329 45.644 19.895C46.112 18.529 47.469 17.612 48.901 17.593C49.7766 17.5725 50.6526 17.5758 51.528 17.603C52.618 17.641 53.372 18.558 53.143 19.609C52.799 21.204 52.254 22.743 51.815 24.309C51.758 24.529 51.643 24.567 51.443 24.567C50.841 24.558 50.229 24.548 49.627 24.567C49.255 24.587 49.245 24.443 49.331 24.147C49.7091 22.8886 50.0785 21.6276 50.439 20.364C50.469 20.306 50.478 20.211 50.506 20.077ZM47 14.937C46.695 15.844 46.408 16.714 46.121 17.583C46.064 17.755 45.959 17.823 45.768 17.823C44.861 17.813 43.953 17.813 43.055 17.823C42.797 17.823 42.759 17.727 42.835 17.507C43.103 16.733 43.37 15.949 43.628 15.176C43.676 15.023 43.733 14.936 43.915 14.936H47V14.937Z" fill="#80828E"/>
<path d="M83.712 32.316C82.852 32.268 81.582 32.412 80.312 32.24C79.2978 32.0961 78.368 31.596 77.6888 30.8292C77.0096 30.0625 76.6255 29.0791 76.605 28.055C76.567 26.65 77.102 25.389 77.493 24.09C78.544 20.66 79.585 17.22 80.732 13.819C81.983 10.121 84.648 8.00899 88.47 7.32199C88.575 7.30199 88.69 7.30199 88.804 7.30199C90.924 7.30199 93.036 7.29199 95.157 7.30199C97.22 7.32199 98.892 8.63999 99.398 10.618C99.666 11.668 99.522 12.691 99.208 13.704C97.948 17.7533 96.6837 21.8013 95.415 25.848C94.345 29.249 90.992 32.001 87.476 32.297C86.358 32.392 85.241 32.316 83.712 32.316ZM83.302 26.211H88.689C88.986 26.211 88.995 26.02 89.062 25.819C89.941 22.991 90.829 20.172 91.718 17.354C92.09 16.179 92.453 15.004 92.835 13.79C91.058 13.79 89.349 13.8 87.629 13.78C87.275 13.78 87.142 13.895 87.037 14.22C86.244 16.79 85.441 19.36 84.639 21.92C84.199 23.344 83.751 24.758 83.302 26.21V26.211ZM70.5 23.048C69.583 23.048 68.704 23.038 67.835 23.058C67.52 23.068 67.415 23.01 67.53 22.666C68.1115 20.8733 68.6815 19.077 69.24 17.277C69.316 17.029 69.421 16.953 69.67 16.953C72.392 16.963 75.115 16.963 77.837 16.953C78.181 16.953 78.2 17.086 78.114 17.353C77.14 20.411 76.251 23.507 75.172 26.526C74.131 29.44 72.058 31.38 69.01 32.173C68.6733 32.2633 68.3266 32.3114 67.978 32.316C65.686 32.326 63.393 32.336 61.1 32.316C59.104 32.306 57.46 30.978 56.993 29.048C56.763 28.093 56.868 27.148 57.155 26.23C58.455 22.074 59.667 17.898 61.11 13.79C62.323 10.331 64.912 8.33399 68.523 7.69399C68.704 7.66599 68.905 7.67499 69.096 7.67499C72.841 7.67499 76.576 7.68499 80.321 7.66499C80.818 7.66499 80.799 7.79899 80.674 8.19099C80.112 9.92209 79.5643 11.6578 79.031 13.398C78.936 13.714 78.802 13.809 78.477 13.8C74.914 13.79 71.341 13.8 67.777 13.78C67.415 13.78 67.272 13.886 67.167 14.24C65.982 18.042 64.769 21.844 63.565 25.647C63.384 26.211 63.384 26.211 63.966 26.211C65.686 26.211 67.406 26.201 69.125 26.221C69.431 26.221 69.574 26.144 69.66 25.848C69.908 24.93 70.204 24.013 70.5 23.048Z" fill="#80828E"/>
<path d="M30.283 17.134C30.0394 17.8969 29.8004 18.6612 29.566 19.427C29.509 19.599 29.413 19.628 29.251 19.628C28.535 19.618 27.818 19.628 27.054 19.628C27.302 18.835 27.551 18.09 27.78 17.335C27.828 17.182 27.904 17.135 28.047 17.135L30.283 17.134ZM9.94501 19.618C10.203 18.825 10.441 18.07 10.671 17.316C10.718 17.163 10.795 17.125 10.938 17.125H13.174C12.925 17.908 12.686 18.644 12.467 19.379C12.409 19.561 12.314 19.619 12.132 19.619L9.94501 19.618Z" fill="#4D4F5B"/>
<path d="M83.302 26.21C83.76 24.759 84.199 23.344 84.639 21.92C85.441 19.35 86.244 16.79 87.037 14.22C87.132 13.895 87.275 13.77 87.629 13.78C89.349 13.8 91.068 13.79 92.835 13.79C92.453 15.003 92.081 16.179 91.718 17.354C90.829 20.172 89.95 23 89.062 25.819C88.995 26.019 88.985 26.211 88.689 26.211H83.302V26.21Z" fill="#4D4F5B"/>
</svg>
