<svg width="65" height="69" viewBox="0 0 65 69" fill="none" xmlns="http://www.w3.org/2000/svg">
<g filter="url(#filter0_d_1_75)">
<path d="M39.7139 28.8396C39.5189 28.5157 39.2697 28.226 39.0405 27.9386C38.4418 27.2674 37.7347 26.755 37.1692 26.0574C35.8519 24.4398 35.7937 22.008 36.9447 20.2759C35.975 20.3982 35.092 20.8221 34.3227 21.309C31.5162 23.0862 30.0919 26.619 30.9518 29.8857C30.9804 29.9896 31.0089 30.0934 30.9944 30.2226C30.9697 30.4412 30.7983 30.6232 30.5906 30.6803C30.3509 30.7539 30.1191 30.6674 29.9482 30.4872C29.8967 30.4339 29.856 30.3712 29.8281 30.3026C28.8652 28.7551 28.9157 26.6979 29.8545 25.1532C28.0428 26.3178 26.8811 28.5015 26.7675 30.6724C26.7712 31.176 26.7748 31.6796 26.8878 32.1955C26.9598 32.8074 27.161 33.4338 27.3998 33.9941C28.2794 35.834 29.9989 37.2755 31.9683 37.7488C34.0647 38.2566 36.3839 38.1253 38.1792 36.8381C40.1835 35.3933 41.1171 32.8216 40.4381 30.4507L40.3381 30.1778C40.1808 29.6972 39.7139 28.8396 39.7139 28.8396ZM35.8688 34.7464C35.5637 34.9536 35.0775 35.1605 34.7085 35.2196C33.5508 35.4917 32.5005 34.8099 31.9185 34.0802C33.1324 33.9351 33.9364 33.1401 34.2446 32.2792C34.5031 31.5032 34.259 30.8116 34.2159 30.0319C34.1795 29.2831 34.2699 28.6593 34.6154 28.0038C34.7617 28.4027 34.9179 28.8027 35.1228 29.1277C35.7761 30.2076 36.9292 30.7802 37.0354 32.1607C37.0595 32.3043 37.0637 32.4457 37.0469 32.5947C36.985 33.413 36.5265 34.267 35.8688 34.7464Z" fill="#B22822"/>
<path d="M30.5 29.5L31.5 24.5L34 25L37.5 29L36.5 33L32 34.5L28.5 32L30.5 29.5Z" fill="#FDD00C"/>
<path d="M37 20L35 18L32 23L35 24.5L37 20Z" fill="#B22822"/>
<path d="M37.7139 26.8396C37.5189 26.5157 37.2697 26.226 37.0405 25.9386C36.4418 25.2674 35.7347 24.755 35.1692 24.0574C33.8519 22.4398 33.7937 20.008 34.9447 18.2759C33.975 18.3982 33.092 18.8221 32.3227 19.309C29.5162 21.0862 28.0919 24.619 28.9518 27.8857C28.9804 27.9896 29.0089 28.0934 28.9944 28.2226C28.9697 28.4412 28.7983 28.6232 28.5906 28.6803C28.3509 28.7539 28.1191 28.6674 27.9482 28.4872C27.8967 28.4339 27.856 28.3712 27.8281 28.3026C26.8652 26.7551 26.9157 24.6979 27.8545 23.1532C26.0428 24.3178 24.8811 26.5015 24.7675 28.6724C24.7712 29.176 24.7748 29.6796 24.8878 30.1955C24.9598 30.8074 25.161 31.4338 25.3998 31.9941C26.2794 33.834 27.9989 35.2755 29.9683 35.7488C32.0647 36.2566 34.3839 36.1253 36.1792 34.8381C38.1835 33.3933 39.1171 30.8216 38.4381 28.4507L38.3381 28.1778C38.1808 27.6972 37.7139 26.8396 37.7139 26.8396ZM33.8688 32.7464C33.5637 32.9536 33.0775 33.1605 32.7085 33.2196C31.5508 33.4917 30.5005 32.8099 29.9185 32.0802C31.1324 31.9351 31.9364 31.1401 32.2446 30.2792C32.5031 29.5032 32.259 28.8116 32.2159 28.0319C32.1795 27.2831 32.2699 26.6593 32.6154 26.0038C32.7617 26.4027 32.9179 26.8027 33.1228 27.1277C33.7761 28.2076 34.9292 28.7802 35.0354 30.1607C35.0595 30.3043 35.0637 30.4457 35.0469 30.5947C34.985 31.413 34.5265 32.267 33.8688 32.7464Z" fill="url(#paint0_linear_1_75)"/>
</g>
<defs>
<filter id="filter0_d_1_75" x="-4" y="-3" width="72" height="72" filterUnits="userSpaceOnUse" color-interpolation-filters="sRGB">
<feFlood flood-opacity="0" result="BackgroundImageFix"/>
<feColorMatrix in="SourceAlpha" type="matrix" values="0 0 0 0 0 0 0 0 0 0 0 0 0 0 0 0 0 0 127 0" result="hardAlpha"/>
<feOffset dy="6"/>
<feGaussianBlur stdDeviation="12"/>
<feComposite in2="hardAlpha" operator="out"/>
<feColorMatrix type="matrix" values="0 0 0 0 0.913725 0 0 0 0 0.376471 0 0 0 0 0.376471 0 0 0 1 0"/>
<feBlend mode="normal" in2="BackgroundImageFix" result="effect1_dropShadow_1_75"/>
<feBlend mode="normal" in="SourceGraphic" in2="effect1_dropShadow_1_75" result="shape"/>
</filter>
<linearGradient id="paint0_linear_1_75" x1="32.9961" y1="18.0565" x2="30.982" y2="35.943" gradientUnits="userSpaceOnUse">
<stop stop-color="#FFD806"/>
<stop offset="0.474758" stop-color="#EA6060"/>
</linearGradient>
</defs>
</svg>
