<svg width="74" height="40" viewBox="0 0 74 40" fill="none" xmlns="http://www.w3.org/2000/svg">
<g style="mix-blend-mode:luminosity" clip-path="url(#clip0_1_169)">
<path d="M0.0250015 1.532H4.47C6.868 1.532 8.61 1.759 9.67 2.19C10.7199 2.63171 11.6035 3.39358 12.195 4.367C12.801 5.354 13.13 6.57 13.13 7.962C13.13 9.506 12.726 10.797 11.918 11.81C11.11 12.823 10.024 13.532 8.636 13.937C7.828 14.165 6.363 14.291 4.217 14.291V23.658H0.0260015V1.532H0.0250015ZM4.216 10.165H5.554C6.614 10.165 7.322 10.089 7.751 9.937C8.14573 9.79588 8.48307 9.52882 8.711 9.177C8.95149 8.79929 9.07435 8.35865 9.064 7.911C9.064 7.051 8.736 6.443 8.079 6.038C7.599 5.759 6.716 5.608 5.403 5.608H4.216V10.165ZM17.093 1.531H21.309V15.835C21.309 17.075 21.409 17.937 21.637 18.443C21.864 18.949 22.217 19.354 22.697 19.658C23.202 19.962 23.783 20.114 24.49 20.114C25.222 20.114 25.879 19.937 26.409 19.607C26.9075 19.3068 27.2965 18.8547 27.519 18.317C27.722 17.785 27.823 16.797 27.823 15.304V1.53H32.039V14.72C32.039 16.948 31.913 18.493 31.66 19.353C31.408 20.214 30.928 21.05 30.221 21.86C29.514 22.67 28.706 23.252 27.797 23.632C26.888 24.012 25.803 24.214 24.591 24.214C23.001 24.214 21.611 23.834 20.425 23.1C19.238 22.366 18.405 21.43 17.875 20.34C17.37 19.227 17.118 17.353 17.118 14.72L17.093 1.53V1.531ZM48.45 4.544L45.344 7.304C44.259 5.784 43.148 5.025 42.012 5.025C41.456 5.025 41.002 5.177 40.648 5.455C40.295 5.735 40.118 6.089 40.118 6.468C40.118 6.848 40.244 7.203 40.497 7.532C40.85 7.962 41.86 8.924 43.577 10.367C45.167 11.709 46.152 12.57 46.48 12.899C47.339 13.759 47.945 14.595 48.298 15.379C48.652 16.165 48.828 17.025 48.828 17.962C48.828 19.785 48.198 21.279 46.96 22.468C45.698 23.658 44.082 24.241 42.062 24.241C40.497 24.241 39.133 23.861 37.947 23.076C36.785 22.316 35.775 21.101 34.942 19.43L38.477 17.304C39.537 19.254 40.749 20.241 42.137 20.241C42.87 20.241 43.476 20.038 43.956 19.608C44.436 19.178 44.688 18.696 44.688 18.139C44.688 17.633 44.511 17.127 44.132 16.646C43.754 16.165 42.946 15.38 41.683 14.342C39.285 12.367 37.719 10.873 37.038 9.785C36.331 8.722 35.978 7.658 35.978 6.595C35.978 5.051 36.558 3.735 37.719 2.645C38.881 1.558 40.32 1 42.037 1C43.147 1 44.183 1.253 45.193 1.76C46.203 2.266 47.288 3.177 48.45 4.544ZM52.843 1.531H57.084V9.886H64.457V1.53H68.698V23.632H64.457V13.936H57.084V23.632H52.817V1.53H52.843V1.531Z" fill="#808388"/>
<path d="M11.26 29L9.695 30.544C8.71 29.506 7.549 28.974 6.261 28.974C5.125 28.974 4.166 29.354 3.383 30.114C2.6 30.874 2.222 31.81 2.222 32.874C2.222 33.987 2.626 34.949 3.434 35.734C4.242 36.519 5.226 36.899 6.388 36.899C7.145 36.899 7.801 36.747 8.332 36.418C8.862 36.088 9.291 35.582 9.594 34.898H6.236V32.823H12.068L12.094 33.303C12.0977 34.3183 11.8272 35.3157 11.311 36.19C10.781 37.101 10.099 37.81 9.266 38.291C8.433 38.772 7.448 39 6.312 39C5.1 39 4.04 38.747 3.08 38.215C2.13658 37.6869 1.3586 36.9068 0.832997 35.962C0.281854 35.0077 -0.00563381 33.924 -2.76459e-06 32.822C-2.76459e-06 31.278 0.504997 29.937 1.515 28.797C2.727 27.43 4.292 26.772 6.211 26.772C7.221 26.772 8.155 26.949 9.039 27.329C9.821 27.683 10.553 28.241 11.26 29ZM17.673 27.1H19.92L24.389 38.746H22.091L21.182 36.341H16.436L15.502 38.746H13.204L17.673 27.1ZM18.809 30.19L17.244 34.19H20.349L18.809 30.19ZM27.217 27.1H29.363L32.064 35.227L34.791 27.101H36.937L38.881 38.746H36.735L35.498 31.379L33.024 38.746H31.079L28.631 31.379L27.343 38.746H25.197L27.217 27.1ZM40.497 27.1H42.693V38.746H40.497V27.1ZM45.193 27.1H47.313L52.287 34.771V27.101H54.509V38.746H52.389L47.389 31.1V38.746H45.167L45.193 27.1ZM67.865 29L66.299 30.544C65.315 29.506 64.153 28.974 62.866 28.974C61.73 28.974 60.77 29.354 59.988 30.114C59.205 30.874 58.826 31.81 58.826 32.874C58.826 33.987 59.23 34.949 60.038 35.734C60.846 36.519 61.831 36.899 62.992 36.899C63.75 36.899 64.406 36.747 64.936 36.418C65.466 36.088 65.896 35.582 66.198 34.898H62.841V32.823H68.673L68.698 33.303C68.7017 34.3183 68.4312 35.3157 67.915 36.19C67.385 37.101 66.703 37.81 65.87 38.291C65.037 38.772 64.052 39 62.916 39C61.705 39 60.644 38.747 59.685 38.215C58.7416 37.6868 57.9637 36.9067 57.438 35.962C56.8869 35.0077 56.5994 33.924 56.605 32.822C56.605 31.278 57.11 29.937 58.119 28.797C59.331 27.43 60.897 26.772 62.815 26.772C63.825 26.772 64.759 26.949 65.643 27.329C66.426 27.683 67.158 28.241 67.865 29Z" fill="#808388"/>
<path d="M69.304 27.101H70.767V27.608H70.288V29.759H69.783V27.608H69.304V27.101ZM71.374 27.101H71.854L72.46 28.949L73.066 27.101H73.546L74 29.76H73.52L73.243 28.063L72.687 29.734H72.233L71.677 28.064L71.399 29.734H70.919L71.374 27.101Z" fill="#808388"/>
</g>
<defs>
<clipPath id="clip0_1_169">
<rect width="74" height="40" fill="white"/>
</clipPath>
</defs>
</svg>
