<svg width="21" height="21" viewBox="0 0 21 21" fill="none" xmlns="http://www.w3.org/2000/svg">
<path d="M19.8283 18.77L16.2667 15.09C17.6492 13.2944 18.3187 11.0153 18.1375 8.72131C17.9564 6.42731 16.9384 4.29279 15.2928 2.75665C13.6472 1.22051 11.4991 0.399517 9.2903 0.462477C7.08145 0.525438 4.9797 1.46757 3.41723 3.09515C1.85475 4.72273 0.950305 6.91205 0.889863 9.21293C0.829421 11.5138 1.61758 13.7514 3.09227 15.4655C4.56696 17.1797 6.6161 18.2401 8.81834 18.4288C11.0206 18.6175 13.2085 17.9201 14.9323 16.48L18.4651 20.16C18.5543 20.2537 18.6605 20.3281 18.7775 20.3789C18.8945 20.4297 19.02 20.4558 19.1467 20.4558C19.2734 20.4558 19.3989 20.4297 19.5159 20.3789C19.6329 20.3281 19.739 20.2537 19.8283 20.16C20.0013 19.9735 20.098 19.7243 20.098 19.465C20.098 19.2057 20.0013 18.9565 19.8283 18.77ZM9.54669 16.48C8.2176 16.48 6.91836 16.0695 5.81326 15.3003C4.70816 14.5311 3.84684 13.4379 3.33822 12.1588C2.8296 10.8797 2.69652 9.47224 2.95581 8.11438C3.21511 6.75651 3.85512 5.50923 4.79493 4.53026C5.73474 3.55129 6.93213 2.88461 8.23568 2.61451C9.53924 2.34441 10.8904 2.48304 12.1183 3.01285C13.3462 3.54266 14.3958 4.43987 15.1342 5.59102C15.8726 6.74216 16.2667 8.09554 16.2667 9.48001C16.2667 11.3365 15.5587 13.117 14.2984 14.4298C13.0382 15.7425 11.3289 16.48 9.54669 16.48Z" fill="#7C8496"/>
</svg>
