<svg width="49" height="48" viewBox="0 0 49 48" fill="none" xmlns="http://www.w3.org/2000/svg">
<g clip-path="url(#clip0_1_384)">
<path d="M24.5714 48C37.8263 48 48.5714 37.2548 48.5714 24C48.5714 10.7452 37.8263 0 24.5714 0C11.3166 0 0.571442 10.7452 0.571442 24C0.571442 37.2548 11.3166 48 24.5714 48Z" fill="#7C8496"/>
<path d="M30.6044 27.186C30.6044 24 28.6844 22.908 24.8444 22.452C22.1024 22.0875 21.5549 21.36 21.5549 20.085C21.5549 18.81 22.4699 17.991 24.2969 17.991C25.9424 17.991 26.8574 18.537 27.3134 19.9035C27.361 20.0356 27.4478 20.15 27.5623 20.2313C27.6769 20.3126 27.8135 20.3568 27.9539 20.358H29.4164C29.5009 20.3603 29.585 20.3453 29.6635 20.3141C29.742 20.2829 29.8134 20.2361 29.8733 20.1765C29.9332 20.1169 29.9803 20.0457 30.0119 19.9674C30.0435 19.889 30.0588 19.805 30.0569 19.7205V19.6305C29.8782 18.6419 29.378 17.7399 28.6339 17.0648C27.8899 16.3897 26.9437 15.9791 25.9424 15.897V13.713C25.9424 13.3485 25.6679 13.0755 25.2119 12.984H23.8394C23.4749 12.984 23.2004 13.257 23.1089 13.713V15.807C20.3654 16.17 18.6299 17.991 18.6299 20.268C18.6299 23.271 20.4569 24.4545 24.2969 24.9105C26.8574 25.365 27.6794 25.9125 27.6794 27.369C27.6794 28.824 26.3999 29.826 24.6629 29.826C22.2854 29.826 21.4634 28.8255 21.1889 27.459C21.0989 27.096 20.8229 26.913 20.5484 26.913H18.9944C18.9101 26.911 18.8262 26.926 18.7478 26.9573C18.6695 26.9886 18.5983 27.0355 18.5386 27.0951C18.4788 27.1547 18.4318 27.2257 18.4003 27.304C18.3689 27.3823 18.3536 27.4662 18.3554 27.5505V27.6405C18.7199 29.9175 20.1839 31.5555 23.2004 32.0115V34.197C23.2004 34.56 23.4749 34.8345 23.9309 34.9245H25.3034C25.6679 34.9245 25.9424 34.6515 26.0339 34.197V32.01C28.7774 31.5555 30.6044 29.643 30.6044 27.1845V27.186Z" fill="#313344"/>
<path d="M19.9094 36.7455C12.7784 34.1955 9.12144 26.2755 11.7734 19.266C13.1444 15.441 16.1609 12.5295 19.9094 11.163C20.2754 10.9815 20.4569 10.7085 20.4569 10.2525V8.9775C20.4569 8.6145 20.2754 8.3415 19.9094 8.25C19.8179 8.25 19.6349 8.25 19.5434 8.34C17.4861 8.98249 15.5761 10.0256 13.9236 11.4093C12.271 12.7929 10.9085 14.4898 9.91441 16.4022C8.92035 18.3147 8.3144 20.4048 8.13146 22.5524C7.94851 24.7 8.19218 26.8625 8.84844 28.9155C10.4924 34.0155 14.4239 37.9305 19.5434 39.5685C19.9094 39.75 20.2754 39.5685 20.3654 39.204C20.4569 39.114 20.4569 39.021 20.4569 38.8395V37.5645C20.4569 37.2915 20.1839 36.9285 19.9094 36.7455ZM29.5994 8.3415C29.2334 8.1585 28.8674 8.3415 28.7774 8.7045C28.6859 8.796 28.6859 8.8875 28.6859 9.069V10.344C28.6859 10.7085 28.9589 11.0715 29.2334 11.2545C36.3644 13.8045 40.0214 21.7245 37.3694 28.734C35.9984 32.559 32.9819 35.4705 29.2334 36.837C28.8674 37.0185 28.6859 37.2915 28.6859 37.7475V39.0225C28.6859 39.3855 28.8674 39.6585 29.2334 39.75C29.3249 39.75 29.5079 39.75 29.5994 39.66C31.6568 39.0175 33.5667 37.9744 35.2193 36.5907C36.8719 35.2071 38.2344 33.5102 39.2285 31.5978C40.2225 29.6853 40.8285 27.5952 41.0114 25.4476C41.1944 23.3 40.9507 21.1375 40.2944 19.0845C38.6504 13.8945 34.6274 9.9795 29.5994 8.3415Z" fill="#313344"/>
</g>
<defs>
<clipPath id="clip0_1_384">
<rect width="48" height="48" fill="white" transform="translate(0.571442)"/>
</clipPath>
</defs>
</svg>
