<svg xmlns="http://www.w3.org/2000/svg" version="1.1" xmlns:xlink="http://www.w3.org/1999/xlink" xmlns:svgjs="http://svgjs.com/svgjs" width="512" height="512" x="0" y="0" viewBox="0 0 682.667 682.667" style="enable-background:new 0 0 512 512" xml:space="preserve" className=""><g><defs><clipPath id="a" clipPathUnits="userSpaceOnUse"><path d="M0 512h512V0H0Z" fill="#ffffff" data-original="#000000"></path></clipPath></defs><g clip-path="url(#a)" transform="matrix(1.33333 0 0 -1.33333 0 682.667)"><path d="M0 0c-130.643 0-237.246-107.444-235.989-238.318L-236-472l3.912 3.912c33.075 33.075 83.695 41.792 125.513 20.834C-74.925-463.115-39.111-472.018-1.054-472c129.907-.061 235.796 103.781 237.043 233.682C237.246-107.444 132.75 0 0 0Z" style="stroke-width:40;stroke-linecap:round;stroke-linejoin:round;stroke-miterlimit:10;stroke-dasharray:none;stroke-opacity:1" transform="translate(256 492)" fill="none" stroke="#ffffff" stroke-width="40" stroke-linecap="round" stroke-linejoin="round" stroke-miterlimit="10" stroke-dasharray="none" stroke-opacity="" data-original="#000000" className=""></path><path d="m0 0-24.913 24.13c-14.573 14.599-33.737 15.308-41.426-3.846-3.803-9.473-7.593-16.217-9-17.627-27.55-27.596-52.701-7.03-73.5 13.735-20.765 20.799-41.332 45.95-13.735 73.5 1.41 1.408 8.154 5.197 17.627 9 19.155 7.689 18.445 26.853 3.846 41.426l-24.13 24.913c-10.852 10.833-28.19 11.594-39.967 1.769-3.194-2.664-9.296-8.493-12.296-11.487-54.431-54.338-40.924-140.066 13.155-194.621 54.555-54.08 140.283-67.586 194.621-13.155 2.994 3 8.823 9.102 11.488 12.295C11.594-28.19 10.834-10.853 0 0Z" style="stroke-width:40;stroke-linecap:round;stroke-linejoin:round;stroke-miterlimit:10;stroke-dasharray:none;stroke-opacity:1" transform="translate(379.34 212.108)" fill="none" stroke="#ffffff" stroke-width="40" stroke-linecap="round" stroke-linejoin="round" stroke-miterlimit="10" stroke-dasharray="none" stroke-opacity="" data-original="#000000" className=""></path></g></g></svg>