<svg width="17" height="20" viewBox="0 0 17 20" fill="none" xmlns="http://www.w3.org/2000/svg">
<path d="M3.95349 11.6279C2.09303 12.5582 0.930244 13.9535 1.52588e-05 15.814C1.86047 18.3721 4.88371 20 8.37207 20C11.6279 20 14.6511 18.6046 16.5116 16.0465C15.8139 14.1861 14.4186 12.5582 12.5581 11.6279C11.3953 12.5582 9.99997 13.0233 8.37207 13.0233C6.74417 13.0233 5.34883 12.5582 4.18604 11.6279H3.95349Z" fill="#7C8496"/>
<path d="M13.7209 5.58137C13.7209 2.55813 11.1628 0 8.13955 0C5.11631 0 2.55818 2.55813 2.55818 5.58137C2.55818 8.60461 5.11631 11.1627 8.13955 11.1627C11.1628 11.1627 13.7209 8.60461 13.7209 5.58137Z" fill="#7C8496"/>
</svg>
