<svg width="20" height="20" viewBox="0 0 20 20" fill="none" xmlns="http://www.w3.org/2000/svg">
<g clip-path="url(#clip0_402_718)">
<path d="M15 19.1667H5C4.77898 19.1667 4.56702 19.0789 4.41074 18.9226C4.25446 18.7663 4.16666 18.5543 4.16666 18.3333C4.16666 18.1123 4.25446 17.9004 4.41074 17.7441C4.56702 17.5878 4.77898 17.5 5 17.5H15C15.221 17.5 15.433 17.5878 15.5893 17.7441C15.7455 17.9004 15.8333 18.1123 15.8333 18.3333C15.8333 18.5543 15.7455 18.7663 15.5893 18.9226C15.433 19.0789 15.221 19.1667 15 19.1667ZM19.1667 5V11.6667C19.1667 12.2138 19.0589 12.7557 18.8495 13.2612C18.6401 13.7667 18.3332 14.226 17.9463 14.6129C17.5594 14.9999 17.1 15.3068 16.5945 15.5162C16.089 15.7256 15.5472 15.8333 15 15.8333H5C4.45282 15.8333 3.911 15.7256 3.40548 15.5162C2.89996 15.3068 2.44063 14.9999 2.05372 14.6129C1.27232 13.8315 0.833328 12.7717 0.833328 11.6667V5C0.833328 3.89493 1.27232 2.83512 2.05372 2.05372C2.83512 1.27232 3.89493 0.833328 5 0.833328H15C15.5472 0.833328 16.089 0.941102 16.5945 1.1505C17.1 1.35989 17.5594 1.66681 17.9463 2.05372C18.3332 2.44063 18.6401 2.89996 18.8495 3.40548C19.0589 3.911 19.1667 4.45282 19.1667 5ZM4.16666 6.66666C4.16666 6.88768 4.25446 7.09964 4.41074 7.25592C4.56702 7.4122 4.77898 7.5 5 7.5H10C10.221 7.5 10.433 7.4122 10.5893 7.25592C10.7455 7.09964 10.8333 6.88768 10.8333 6.66666C10.8333 6.44565 10.7455 6.23369 10.5893 6.07741C10.433 5.92113 10.221 5.83333 10 5.83333H5C4.77898 5.83333 4.56702 5.92113 4.41074 6.07741C4.25446 6.23369 4.16666 6.44565 4.16666 6.66666ZM15.8333 10C15.8333 9.77898 15.7455 9.56702 15.5893 9.41074C15.433 9.25446 15.221 9.16666 15 9.16666H5C4.77898 9.16666 4.56702 9.25446 4.41074 9.41074C4.25446 9.56702 4.16666 9.77898 4.16666 10C4.16666 10.221 4.25446 10.433 4.41074 10.5893C4.56702 10.7455 4.77898 10.8333 5 10.8333H15C15.221 10.8333 15.433 10.7455 15.5893 10.5893C15.7455 10.433 15.8333 10.221 15.8333 10Z" fill="#7C8496"/>
</g>
<defs>
<clipPath id="clip0_402_718">
<rect width="20" height="20" fill="white"/>
</clipPath>
</defs>
</svg>
