<svg width="12" height="20" viewBox="0 0 12 20" fill="none" xmlns="http://www.w3.org/2000/svg">
<path d="M5.13437 20V17.6796C4.24564 17.6252 3.38552 17.473 2.55618 17.2233C1.49807 16.9054 0.646746 16.49 0 15.9791L1.13511 13.384C1.75325 13.8381 2.4858 14.2105 3.33052 14.5011C3.92667 14.7054 4.52722 14.8394 5.13657 14.8984V11.3339C4.62401 11.2113 4.11366 11.0637 3.5989 10.8934C3.00275 10.6959 2.455 10.4393 1.96004 10.126C1.46508 9.81496 1.06251 9.40401 0.754535 8.89317C0.446561 8.38233 0.290378 7.73073 0.290378 6.93609C0.290378 6.08468 0.514756 5.30821 0.961318 4.60665C1.41008 3.9051 2.08103 3.34431 2.98075 2.92428C3.5923 2.64275 4.31384 2.45204 5.13657 2.36122V0H7.1956V2.32717C7.82035 2.37484 8.4385 2.47474 9.05005 2.62686C9.92997 2.84709 10.7065 3.1763 11.3797 3.61675L10.3501 6.23453C9.67699 5.83721 9.00165 5.54206 8.3307 5.35135C7.94793 5.24237 7.56957 5.1629 7.1956 5.1175V8.75468C7.69496 8.87728 8.19212 9.01805 8.69147 9.17016C9.28982 9.3518 9.83538 9.60154 10.3281 9.91486C10.8253 10.2282 11.2257 10.6391 11.5336 11.1477C11.846 11.6608 12 12.3033 12 13.0866C12 13.9221 11.7712 14.6873 11.3181 15.3843C10.8649 16.079 10.1895 16.6375 9.28983 17.0644C8.69368 17.3436 7.99634 17.5321 7.1956 17.6297V20H5.13657H5.13437ZM5.13437 8.2166V5.18561C5.00018 5.21739 4.87699 5.25599 4.7626 5.29913C4.35123 5.45351 4.05426 5.65558 3.87607 5.90533C3.69569 6.1528 3.6077 6.44341 3.6077 6.76808C3.6077 7.14951 3.75729 7.45828 4.06086 7.69213C4.33584 7.90555 4.69661 8.08264 5.13437 8.2166ZM7.1934 11.872V14.8167L7.49257 14.7372C7.89954 14.601 8.19652 14.4125 8.3879 14.1719C8.57928 13.9312 8.67607 13.6542 8.67607 13.3409C8.67607 12.9436 8.52649 12.628 8.22071 12.3941C7.95453 12.1875 7.60916 12.0127 7.1912 11.872H7.1934Z" fill="#7C8496"/>
</svg>
