<svg width="20" height="20" viewBox="0 0 20 20" fill="none" xmlns="http://www.w3.org/2000/svg">
<path d="M13.8444 0.71492L1.60155 3.99665C0.638811 4.25373 0.0643101 5.2532 0.321392 6.21332L3.60049 18.4562C3.85757 19.4189 4.85705 19.9934 5.81979 19.7364L18.0627 16.4572C19.0254 16.2002 19.5999 15.2007 19.3428 14.2379L16.0637 1.99508C15.8066 1.03234 14.8072 0.457838 13.8444 0.71492ZM7.30195 16.5281C6.5753 16.7222 5.83291 16.2946 5.63879 15.568C5.44466 14.8413 5.87226 14.0989 6.59891 13.9048C7.32556 13.7107 8.06795 14.1383 8.26207 14.8649C8.45619 15.5916 8.0286 16.334 7.30195 16.5281ZM5.19282 8.65822C4.46617 8.85235 3.72379 8.42475 3.52966 7.6981C3.33554 6.97145 3.76314 6.22906 4.48979 6.03494C5.21644 5.84082 5.95882 6.26841 6.15295 6.99506C6.34707 7.72171 5.91947 8.4641 5.19282 8.65822ZM10.1823 11.5386C9.45567 11.7327 8.71327 11.3051 8.51915 10.5785C8.32502 9.85182 8.75262 9.10943 9.47927 8.91531C10.2059 8.72118 10.9483 9.14878 11.1424 9.87543C11.3366 10.6021 10.909 11.3445 10.1823 11.5386ZM15.1718 14.419C14.4451 14.6131 13.7028 14.1855 13.5086 13.4588C13.3145 12.7322 13.7421 11.9898 14.4688 11.7957C15.1954 11.6015 15.9378 12.0291 16.1319 12.7558C16.326 13.4824 15.8984 14.2248 15.1718 14.419ZM13.0627 6.5491C12.336 6.74323 11.5936 6.31563 11.3995 5.58898C11.2054 4.86233 11.633 4.11994 12.3596 3.92582C13.0863 3.7317 13.8287 4.15929 14.0228 4.88594C14.2169 5.61259 13.7893 6.35498 13.0627 6.5491Z" fill="#7C8496"/>
<path d="M11.6541 19.4005L13.6767 19.9436C14.5581 20.1797 15.471 19.6524 15.7071 18.7683L15.8382 18.2778L11.6541 19.3979V19.4005Z" fill="#7C8496"/>
<path d="M0.57594 11.7379L0.0565352 13.6765C-0.182184 14.5579 0.347715 15.4708 1.23176 15.7069L1.66985 15.8249L0.57594 11.7379Z" fill="#7C8496"/>
<path d="M9.02551 0.780395L6.32091 0.0563694C5.43948 -0.179726 4.52658 0.347554 4.29048 1.2316L4.05439 2.11565L9.02551 0.783019V0.780395Z" fill="#7C8496"/>
<path d="M18.7684 4.29038L17.8371 4.04117L19.196 9.10935L19.9436 6.3208C20.1797 5.43938 19.6525 4.52648 18.7684 4.29038Z" fill="#7C8496"/>
</svg>
