<svg width="16" height="14" viewBox="0 0 16 14" fill="none" xmlns="http://www.w3.org/2000/svg">
<g clip-path="url(#clip0_319_713)">
<path d="M15.0601 5.04105C15.0601 5.1896 15.0011 5.33207 14.8961 5.43711C14.791 5.54215 14.6485 5.60116 14.5 5.60116H13.3798V6.72136C13.3798 6.86991 13.3208 7.01237 13.2157 7.11742C13.1107 7.22246 12.9682 7.28147 12.8197 7.28147C12.6711 7.28147 12.5287 7.22246 12.4236 7.11742C12.3186 7.01237 12.2596 6.86991 12.2596 6.72136V5.60116H11.1394C10.9908 5.60116 10.8483 5.54215 10.7433 5.43711C10.6383 5.33207 10.5792 5.1896 10.5792 5.04105C10.5792 4.8925 10.6383 4.75004 10.7433 4.645C10.8483 4.53996 10.9908 4.48095 11.1394 4.48095H12.2596V3.36075C12.2596 3.2122 12.3186 3.06973 12.4236 2.96469C12.5287 2.85965 12.6711 2.80064 12.8197 2.80064C12.9682 2.80064 13.1107 2.85965 13.2157 2.96469C13.3208 3.06973 13.3798 3.2122 13.3798 3.36075V4.48095H14.5C14.6485 4.48095 14.791 4.53996 14.8961 4.645C15.0011 4.75004 15.0601 4.8925 15.0601 5.04105ZM8.33881 2.24055H8.89892V2.80066C8.89892 2.94921 8.95793 3.09168 9.06297 3.19672C9.16801 3.30176 9.31048 3.36077 9.45903 3.36077C9.60758 3.36077 9.75004 3.30176 9.85508 3.19672C9.96012 3.09168 10.0191 2.94921 10.0191 2.80066V2.24055H10.5792C10.7278 2.24055 10.8703 2.18154 10.9753 2.0765C11.0803 1.97146 11.1394 1.82899 11.1394 1.68044C11.1394 1.53189 11.0803 1.38943 10.9753 1.28439C10.8703 1.17935 10.7278 1.12034 10.5792 1.12034H10.0191V0.560232C10.0191 0.411682 9.96012 0.269212 9.85508 0.164172C9.75004 0.0591321 9.60758 0.00012207 9.45903 0.00012207C9.31048 0.00012207 9.16801 0.0591331 9.06297 0.164172C8.95793 0.269212 8.89892 0.411682 8.89892 0.560232V1.12034H8.33881C8.19026 1.12034 8.04779 1.17935 7.94275 1.28439C7.83771 1.38943 7.7787 1.53189 7.7787 1.68044C7.7787 1.82899 7.83771 1.97146 7.94275 2.0765C8.04779 2.18154 8.19026 2.24055 8.33881 2.24055ZM12.8995 8.84495C11.906 9.04123 10.8795 8.98981 9.91061 8.69522C8.94171 8.40063 8.06031 7.87194 7.34421 7.15592C6.62815 6.43985 6.09941 5.55842 5.80491 4.58952C5.51041 3.62062 5.4589 2.59412 5.65518 1.60062C5.67441 1.50312 5.66735 1.40227 5.63474 1.3084C5.60212 1.21453 5.54511 1.13103 5.46957 1.06647C5.39403 1.0019 5.30268 0.958592 5.20488 0.940992C5.10707 0.923389 5.00635 0.932122 4.91304 0.966297C3.85244 1.35412 2.90664 2.0029 2.16304 2.8528C1.41939 3.70269 0.901837 4.7262 0.658237 5.829C0.414637 6.9317 0.452807 8.078 0.769217 9.1621C1.08563 10.2462 1.67009 11.233 2.46862 12.0316C3.26715 12.8301 4.25402 13.4146 5.33802 13.731C6.42202 14.0474 7.56842 14.0856 8.67112 13.842C9.77382 13.5984 10.7973 13.0808 11.6473 12.3372C12.4973 11.5936 13.146 10.6478 13.5338 9.5872C13.568 9.49389 13.5767 9.39317 13.5591 9.29536C13.5415 9.19756 13.4982 9.1062 13.4336 9.03066C13.3691 8.95512 13.2856 8.89812 13.1917 8.8655C13.0978 8.83289 12.997 8.82572 12.8995 8.84495Z" fill="#7C8496"/>
</g>
<defs>
<clipPath id="clip0_319_713">
<rect width="16" height="14" fill="white"/>
</clipPath>
</defs>
</svg>
