<svg width="18" height="17" viewBox="0 0 18 17" fill="none" xmlns="http://www.w3.org/2000/svg">
<path d="M17.633 5.87368L9.5021 0.158127C9.20127 -0.0527091 8.80499 -0.0527091 8.50416 0.158127L0.373253 5.87368C0.059967 6.09078 -0.074892 6.4874 0.0412941 6.85688C0.15748 7.21802 0.489437 7.46852 0.871189 7.46852H2.74675L2.99572 14.8666C3.23017 16.1024 4.30488 17 5.55595 17H7.19084V12.7186C7.19084 12.3595 7.48131 12.0673 7.83817 12.0673H10.1619C10.5187 12.0673 10.8092 12.3595 10.8092 12.7186V17H12.4441C13.6951 17 14.9628 16.1253 15.0043 14.8666L15.2533 7.46852H17.1288C17.5127 7.46852 17.8446 7.21802 17.9587 6.85688C18.0749 6.48949 17.9401 6.09078 17.6268 5.87368H17.633Z" fill="#7C8496"/>
</svg>
