<svg width="17" height="16" viewBox="0 0 17 16" fill="none" xmlns="http://www.w3.org/2000/svg">
<g clip-path="url(#clip0_319_715)">
<path d="M8.49919 13.6C8.71137 13.6 8.91485 13.6843 9.06488 13.8343C9.21491 13.9843 9.29919 14.1878 9.29919 14.4V15.2C9.29919 15.4122 9.21491 15.6156 9.06488 15.7657C8.91485 15.9157 8.71137 16 8.49919 16C8.28702 16 8.08354 15.9157 7.93351 15.7657C7.78348 15.6156 7.69919 15.4122 7.69919 15.2V14.4C7.69919 14.1878 7.78348 13.9843 7.93351 13.8343C8.08354 13.6843 8.28702 13.6 8.49919 13.6ZM13.5904 11.96L14.156 12.5256C14.3017 12.6765 14.3823 12.8785 14.3805 13.0883C14.3787 13.2981 14.2946 13.4987 14.1462 13.647C13.9979 13.7954 13.7973 13.8795 13.5875 13.8813C13.3777 13.8831 13.1757 13.8025 13.0248 13.6568L12.4592 13.0912C12.3134 12.9403 12.2328 12.7382 12.2346 12.5285C12.2365 12.3187 12.3206 12.1181 12.4689 11.9697C12.6172 11.8214 12.8179 11.7373 13.0277 11.7354C13.2374 11.7336 13.4395 11.8143 13.5904 11.96ZM3.40839 11.96C3.55236 11.8165 3.74554 11.7332 3.9487 11.727C4.15186 11.7208 4.34977 11.7922 4.50222 11.9266C4.65467 12.061 4.75024 12.2484 4.76951 12.4508C4.78879 12.6531 4.73032 12.8552 4.60599 13.016L4.5396 13.0912L3.97399 13.6568C3.83003 13.8003 3.63685 13.8836 3.43369 13.8898C3.23053 13.896 3.03262 13.8246 2.88017 13.6902C2.72772 13.5558 2.63215 13.3683 2.61288 13.166C2.5936 12.9637 2.65207 12.7616 2.77639 12.6008L2.84279 12.5256L3.40839 11.96ZM8.49959 3.2C9.77259 3.2 10.9935 3.70571 11.8937 4.6059C12.7939 5.50607 13.2996 6.727 13.2996 8C13.2996 9.273 12.7939 10.4939 11.8937 11.3941C10.9935 12.2943 9.77259 12.8 8.49959 12.8C7.22659 12.8 6.00569 12.2943 5.10549 11.3941C4.20532 10.4939 3.69959 9.273 3.69959 8C3.69959 6.727 4.20531 5.5061 5.10549 4.6059C6.00567 3.70572 7.22659 3.2 8.49959 3.2ZM2.09959 7.2C2.3035 7.20023 2.49962 7.2783 2.64789 7.41828C2.79616 7.55825 2.88538 7.74956 2.89733 7.95312C2.90928 8.15667 2.84306 8.3571 2.71218 8.51347C2.58131 8.66983 2.39567 8.77032 2.19319 8.7944L2.09959 8.8H1.29959C1.09569 8.79977 0.899574 8.7217 0.751304 8.58172C0.603034 8.44175 0.513814 8.25044 0.501864 8.04689C0.489914 7.84333 0.556141 7.6429 0.687014 7.48654C0.817884 7.33017 1.00352 7.22968 1.20599 7.2056L1.29959 7.2H2.09959ZM15.6996 7.2C15.9117 7.2 16.1152 7.28429 16.2653 7.43432C16.4153 7.58434 16.4996 7.78783 16.4996 8C16.4996 8.21217 16.4153 8.41566 16.2653 8.56569C16.1152 8.71572 15.9117 8.8 15.6996 8.8H14.8996C14.6874 8.8 14.4839 8.71572 14.3339 8.56569C14.1839 8.41566 14.0996 8.21217 14.0996 8C14.0996 7.78783 14.1839 7.58434 14.3339 7.43432C14.4839 7.28429 14.6874 7.2 14.8996 7.2H15.6996ZM2.84259 2.3432C2.98035 2.20546 3.16363 2.12271 3.35805 2.11049C3.55247 2.09826 3.74467 2.1574 3.89859 2.2768L3.97379 2.3432L4.5394 2.9088C4.68287 3.05277 4.76617 3.24595 4.77238 3.44911C4.77858 3.65227 4.70722 3.85017 4.5728 4.00262C4.43837 4.15508 4.25095 4.25065 4.04862 4.26992C3.84628 4.2892 3.64419 4.23073 3.48339 4.1064L3.40819 4.04L2.84259 3.4744C2.69262 3.32438 2.60837 3.12093 2.60837 2.9088C2.60837 2.69667 2.69262 2.49322 2.84259 2.3432ZM14.1566 2.3432C14.3066 2.49322 14.3908 2.69667 14.3908 2.9088C14.3908 3.12093 14.3066 3.32438 14.1566 3.4744L13.591 4.04C13.5172 4.11641 13.4289 4.17735 13.3313 4.21928C13.2337 4.26121 13.1287 4.28328 13.0225 4.2842C12.9163 4.28512 12.8109 4.26488 12.7126 4.22466C12.6143 4.18443 12.525 4.12503 12.4499 4.04992C12.3747 3.9748 12.3153 3.88548 12.2751 3.78716C12.2349 3.68885 12.2147 3.5835 12.2156 3.47728C12.2165 3.37106 12.2386 3.26608 12.2805 3.16848C12.3224 3.07087 12.3834 2.9826 12.4598 2.9088L13.0254 2.3432C13.1754 2.19322 13.3788 2.10897 13.591 2.10897C13.8031 2.10897 14.0066 2.19322 14.1566 2.3432ZM8.49979 0C8.71197 0 8.91545 0.084285 9.06548 0.23431C9.21551 0.38434 9.29979 0.58782 9.29979 0.8V1.6C9.29979 1.81217 9.21551 2.01566 9.06548 2.16569C8.91545 2.31572 8.71197 2.4 8.49979 2.4C8.28762 2.4 8.08414 2.31572 7.93411 2.16569C7.78408 2.01566 7.69979 1.81217 7.69979 1.6V0.8C7.69979 0.58783 7.78408 0.38434 7.93411 0.23431C8.08414 0.08428 8.28762 0 8.49979 0Z" fill="#7C8496"/>
</g>
<defs>
<clipPath id="clip0_319_715">
<rect width="17" height="16" fill="white"/>
</clipPath>
</defs>
</svg>
