<svg width="17" height="20" viewBox="0 0 17 20" fill="none" xmlns="http://www.w3.org/2000/svg">
<path d="M2.15384 12.9231C1.23077 13.8462 0.615384 14.7692 0 15.6923C1.84615 18.1539 4.92307 20 8.30768 20C11.6923 20 14.4615 18.4615 16.6154 16C16 14.7692 15.0769 13.5385 14.1538 12.6154L13.5384 16.3077L10.1538 15.0769L8.30768 18.1539L6.46153 15.0769L2.76923 16.3077L2.46154 12.6154L2.15384 12.9231Z" fill="#7C8496"/>
<path d="M13.8461 5.53847C13.8461 2.46155 11.3846 0 8.30767 0C5.23075 0 2.76921 2.46155 2.76921 5.53847C2.76921 8.61539 5.23075 11.0769 8.30767 11.0769C11.3846 11.0769 13.8461 8.61539 13.8461 5.53847Z" fill="#7C8496"/>
<path d="M7.69226 13.8461V12.3076L3.38457 11.0768L3.99995 14.7692L7.69226 13.8461Z" fill="#7C8496"/>
<path d="M12.3077 14.7692L13.2308 11.0768L8.61537 12.3076V13.8461L12.3077 14.7692Z" fill="#7C8496"/>
</svg>
