<svg width="21" height="20" viewBox="0 0 21 20" fill="none" xmlns="http://www.w3.org/2000/svg">
<path d="M20.5435 10.4235L18.1439 8.02396V15.0285L20.5435 12.6268C21.1522 12.0203 21.1522 11.0278 20.5435 10.4235Z" fill="#7C8496"/>
<path d="M11.4194 19.5476C12.0325 20.1497 13.0118 20.1519 13.6271 19.5476L13.8741 19.3028H11.1746L11.4216 19.5476H11.4194Z" fill="#7C8496"/>
<path d="M10.577 0.454877C9.96829 -0.151626 8.97802 -0.151626 8.37372 0.454877L8.12671 0.699684H10.824L10.577 0.454877Z" fill="#7C8496"/>
<path d="M1.45299 9.57893L3.85252 11.9763V4.97171L1.45299 7.37126C0.844279 7.97997 0.844279 8.97022 1.45299 9.57893Z" fill="#7C8496"/>
<path fill-rule="evenodd" clip-rule="evenodd" d="M6.316 1.60394H15.6782C16.5361 1.60394 17.2375 2.30308 17.2375 3.161V16.8349C17.2375 17.695 16.5383 18.3964 15.6782 18.3964H6.316C5.45807 18.3964 4.75673 17.695 4.75673 16.8349V3.161C4.75673 2.30308 5.45586 1.60394 6.316 1.60394ZM7.90398 3.64624C7.90398 3.18088 7.52464 2.80154 7.06149 2.80154C6.59393 2.80154 6.21679 3.18088 6.21679 3.64624C6.21679 4.11159 6.59393 4.48873 7.06149 4.48873C7.52464 4.48873 7.90398 4.1138 7.90398 3.64624ZM12.9854 13.97L11.693 11.5881C13.0846 12.5806 14.9703 11.6852 14.9703 9.99798C14.9703 8.90407 14.0771 8.01086 12.9854 8.01086C12.9854 6.91915 12.0922 6.02594 10.9982 6.02594C9.90433 6.02594 9.01112 6.91915 9.01112 8.01086C7.91941 8.01086 7.0262 8.90407 7.0262 9.99798C7.0262 11.6874 9.01111 12.5828 10.3035 11.4889L9.01112 13.97H12.9854ZM16.0863 16.3696C16.0863 15.9042 15.7069 15.5271 15.2438 15.5271C14.7762 15.5271 14.3991 15.9042 14.3991 16.3696C14.3991 16.8371 14.7762 17.2143 15.2438 17.2143C15.7069 17.2143 16.0863 16.8371 16.0863 16.3696Z" fill="#7C8496"/>
</svg>
