<svg width="18" height="20" viewBox="0 0 18 20" fill="none" xmlns="http://www.w3.org/2000/svg">
<path d="M15.8056 8.37344C16.8157 7.56489 17.0516 6.1173 16.3782 5.00412C15.7025 3.89323 14.3213 3.45574 13.144 3.92529L11.2566 0.759828C10.8169 0.0177071 9.87547 -0.218214 9.13564 0.219271C8.76228 0.420834 8.52636 0.757538 8.42787 1.16067C8.32709 1.56608 8.39351 1.9715 8.59508 2.34256L8.25837 3.04803C7.3353 4.92624 6.66648 6.21808 5.73196 7.4183L9.15854 13.353C10.6405 13.069 12.0308 13.0964 14.0533 13.1262C14.3603 13.1262 14.6603 13.1262 14.997 13.1262C15.3017 13.6301 15.8056 13.9004 16.3438 13.9004C16.6118 13.9004 16.8821 13.8317 17.1547 13.6988C17.5234 13.495 17.7594 13.1583 17.8601 12.7552C17.9609 12.352 17.8945 11.9466 17.6929 11.5756L15.8056 8.37344ZM7.34676 14.0012L7.6491 13.834L4.61648 8.57729L1.65258 10.3616C1.35023 10.5288 1.14638 10.8334 1.0456 11.1701C1.01353 11.4404 1.01353 11.6763 1.07996 11.9123L0.472973 12.281C0.00341988 12.5513 -0.13172 13.156 0.136269 13.6301L1.18074 15.3801C1.3823 15.6503 1.68694 15.8198 2.02364 15.8198C2.19314 15.8198 2.36034 15.7855 2.52984 15.6847L3.13453 15.3136C3.37045 15.5862 3.70716 15.7511 4.07822 15.7534C4.27978 15.7534 4.48134 15.7191 4.65084 15.6183L6.8062 19.2579C7.01005 19.6267 7.34676 19.8649 7.78424 19.9656C7.91938 20 8.05223 20 8.18737 20C8.45765 20 8.72564 19.9313 8.99591 19.7961C9.36698 19.5946 9.60061 19.2235 9.70368 18.8204C9.80446 18.415 9.73804 17.9775 9.53647 17.6385L7.34676 14.0012Z" fill="#7C8496"/>
</svg>
