<svg width="20" height="19" viewBox="0 0 20 19" fill="none" xmlns="http://www.w3.org/2000/svg">
<path fill-rule="evenodd" clip-rule="evenodd" d="M12.6462 0.281924L3.54984 5.53439L3.55431 5.53216L4.60569 7.35144C4.79766 7.68628 4.68383 8.11487 4.34899 8.30907C4.01415 8.50105 3.58555 8.3872 3.39135 8.05237L2.3422 6.23309L1.05196 6.97642C0.567564 7.25545 0.217099 7.7153 0.0720027 8.25327C-0.0730932 8.79124 0.00280366 9.36493 0.281834 9.84709C0.842127 10.8137 1.5319 12.0101 1.5319 12.0101C1.72387 12.345 2.15246 12.461 2.48729 12.2668C2.48729 12.2668 2.71944 12.1329 3.02973 11.9543C3.27527 11.8115 3.5677 11.7735 3.84227 11.8472C4.11683 11.9208 4.35121 12.1017 4.49408 12.3472V12.3494C4.63694 12.595 4.6749 12.8874 4.60123 13.162C4.52757 13.4388 4.34676 13.6709 4.10121 13.8138C3.79316 13.9924 3.561 14.1263 3.561 14.1263C3.22616 14.3183 3.1101 14.7469 3.3043 15.0817C3.3043 15.0817 3.94941 16.1978 4.48292 17.1242C4.76195 17.6064 5.21956 17.9568 5.75753 18.1019C6.29551 18.247 6.86919 18.1711 7.35136 17.8921L8.63936 17.1488L7.5902 15.3295C7.39599 14.9946 7.51207 14.5683 7.84691 14.3741C8.17952 14.1821 8.60811 14.296 8.80232 14.6308L9.8537 16.4501L18.9501 11.1976C19.43 10.9186 19.7827 10.461 19.9278 9.92299C20.0729 9.38501 19.997 8.81133 19.718 8.32916L15.5169 1.05205C15.2379 0.567652 14.778 0.217189 14.2401 0.0720935C13.7021 -0.0730023 13.1284 0.00289364 12.6462 0.281924ZM13.7781 11.4563L14.3741 12.4876V12.4854L15.3183 11.9407L14.7111 10.8871C15.0527 10.6327 15.325 10.3625 15.5259 10.0813C15.8295 9.6527 15.9969 9.22634 16.0259 8.79775C16.055 8.36916 15.9634 7.96735 15.7491 7.5968C15.5482 7.24857 15.3139 7.00302 15.0393 6.85793C14.767 6.71283 14.4768 6.63693 14.1687 6.63024C13.8629 6.62131 13.5481 6.65479 13.2267 6.73292C12.9588 6.79766 12.6954 6.86686 12.4343 6.94499L11.5012 5.32884C11.6842 5.25071 11.8784 5.18598 12.0816 5.1324C12.4387 5.03865 12.8227 4.99177 13.2334 4.98954L13.0347 3.55421C12.6128 3.53635 12.1731 3.59439 11.7132 3.73055C11.3918 3.82431 11.0837 3.94262 10.7846 4.08771L10.1864 3.05418L9.24215 3.59885L9.84709 4.64801C9.49439 4.90695 9.21089 5.18151 9.00329 5.46947C8.69971 5.89583 8.53453 6.32219 8.50998 6.75301C8.48542 7.18384 8.58141 7.58564 8.80017 7.96512C9.0033 8.32005 9.24215 8.56783 9.51449 8.71292C9.78682 8.85802 10.0792 8.93391 10.3851 8.94061C10.6931 8.94731 11.0101 8.91829 11.3338 8.84686C11.6128 8.78659 11.8851 8.71515 12.1508 8.63479L13.066 10.2197C12.7713 10.3536 12.461 10.4541 12.1351 10.521C11.6731 10.617 11.2422 10.6438 10.8427 10.6059L10.9878 12.0591C11.4164 12.1149 11.9119 12.0747 12.4789 11.9363C12.9231 11.8269 13.3562 11.6662 13.7781 11.4563ZM10.5748 5.90699L11.3516 7.25303H11.3561C11.1195 7.30884 10.9096 7.3267 10.7288 7.30438C10.5279 7.28205 10.3806 7.18383 10.2824 7.01418C10.1998 6.87132 10.1663 6.71953 10.1842 6.56104C10.202 6.40255 10.2846 6.23513 10.4342 6.05655C10.4743 6.00521 10.5212 5.9561 10.5748 5.90699ZM13.9879 9.6393L13.2334 8.33121L13.2312 8.32898C13.4589 8.27987 13.662 8.26647 13.8383 8.2888C14.037 8.31112 14.1866 8.41157 14.2892 8.58792C14.3696 8.72855 14.3964 8.87588 14.3696 9.03437C14.3428 9.19285 14.2558 9.35581 14.104 9.52323L13.9879 9.6393Z" fill="#7C8496"/>
</svg>
