<svg xmlns="http://www.w3.org/2000/svg" version="1.1" xmlns:xlink="http://www.w3.org/1999/xlink" xmlns:svgjs="http://svgjs.com/svgjs" width="512" height="512" x="0" y="0" viewBox="0 0 512 512" style="enable-background:new 0 0 512 512" xml:space="preserve" className=""><g><path d="M494.993 0H17.007L0 167.815c0 35.346 28.654 64 64 64s64-28.654 64-64c0 35.346 28.654 64 64 64s64-28.654 64-64c0 35.346 28.654 64 64 64 35.346 0 64-28.654 64-64 0 35.346 28.654 64 64 64s64-28.654 64-64L494.993 0zM448 265.205c-24.475 0-46.872-9.078-64-24.038-17.128 14.961-39.525 24.038-64 24.038s-46.872-9.078-64-24.038c-17.128 14.961-39.525 24.038-64 24.038s-46.872-9.078-64-24.038c-17.128 14.961-39.525 24.038-64 24.038-16.607 0-32.253-4.182-45.949-11.541V512h66.176V316.091h112.021V512h297.7V253.664c-13.695 7.359-29.341 11.541-45.948 11.541zm-20.228 165.458H267.504V316.091h160.267v114.572zM493.949 253.664z" fill="#7c8496" data-original="#000000" className=""></path></g></svg>