<svg width="20" height="20" viewBox="0 0 20 20" fill="none" xmlns="http://www.w3.org/2000/svg">
<path fill-rule="evenodd" clip-rule="evenodd" d="M7.09533 0.723209C7.09533 0.326101 6.77186 0 6.35897 0C5.95924 0 5.62524 0.328731 5.62524 0.723209C5.62524 1.80145 6.52728 2.68771 7.63708 2.68771H8.61012C9.27811 2.68771 9.83563 3.22682 9.83563 3.89217V4.05522C8.62712 4.05522 7.438 4.07244 6.27018 4.08936L6.2701 4.08936L5.90138 4.09468C2.48521 4.09468 0.00261688 6.52202 0.00261688 9.87508V14.1801C0.00261688 17.5332 2.4852 19.9606 5.89085 19.9606C7.25312 19.9895 8.63905 20 10.0118 20C11.3846 20 12.7495 19.9895 14.1118 19.9606C17.5174 19.9606 20 17.5332 20 14.1801V9.87508C20 6.52202 17.5174 4.09468 14.1118 4.09468C13.8262 4.09149 13.5414 4.08757 13.2572 4.08366L13.257 4.08366L13.2569 4.08366H13.2569C12.604 4.07468 11.9542 4.06574 11.3057 4.06574V3.88166C11.2952 2.43787 10.0881 1.2518 8.60749 1.24391H7.63445C7.34253 1.24391 7.09533 1.01249 7.09533 0.723209ZM13.4517 8.51541H13.5963C14.1986 8.51541 14.6956 9.00193 14.6956 9.59102C14.6956 10.1959 14.1986 10.6666 13.5963 10.6666H13.4517C12.8363 10.6666 12.3524 10.1959 12.3524 9.59102C12.3524 9.00193 12.8389 8.51541 13.4517 8.51541ZM16.0973 13.4543H15.9526C15.3346 13.4543 14.8534 13.9434 14.8534 14.5351C14.8534 15.1374 15.3346 15.6107 15.9526 15.6107H16.0973C16.6995 15.6107 17.1965 15.1347 17.1965 14.5351C17.1965 13.946 16.6995 13.4543 16.0973 13.4543ZM5.01242 9.43585C5.01242 8.84677 5.49368 8.35498 6.10643 8.35498C6.70867 8.35498 7.20571 8.84677 7.20571 9.43585V10.9454H8.74155C9.34378 10.9454 9.84082 11.4319 9.84082 12.021C9.84082 12.6206 9.34378 13.0966 8.74155 13.0966H7.20571V14.6167C7.20571 15.211 6.70867 15.6975 6.10643 15.6975C5.49368 15.6975 5.01242 15.2084 5.01242 14.6167V13.0966H3.4608C2.85857 13.0966 2.36153 12.6232 2.36153 12.021C2.36153 11.4319 2.85857 10.9454 3.4608 10.9454H5.01242V9.43585Z" fill="#7C8496"/>
</svg>
