<svg width="22" height="22" viewBox="0 0 22 22" fill="none" xmlns="http://www.w3.org/2000/svg">
<g clip-path="url(#clip0_137_386)">
<path fill-rule="evenodd" clip-rule="evenodd" d="M3.70588 9.5H18.2941C18.684 9.5 19 9.16421 19 8.75C19 8.33579 18.684 8 18.2941 8H3.70588C3.31603 8 3 8.33579 3 8.75C3 9.16421 3.31603 9.5 3.70588 9.5ZM3.70588 14.5H18.2941C18.684 14.5 19 14.1642 19 13.75C19 13.3358 18.684 13 18.2941 13H3.70588C3.31603 13 3 13.3358 3 13.75C3 14.1642 3.31603 14.5 3.70588 14.5Z" fill="#3091FE"/>
</g>
<defs>
<clipPath id="clip0_137_386">
<rect width="22" height="22" fill="white"/>
</clipPath>
</defs>
</svg>
