<svg width="22" height="22" viewBox="0 0 22 22" fill="none" xmlns="http://www.w3.org/2000/svg">
<g clip-path="url(#clip0_137_328)">
<path fill-rule="evenodd" clip-rule="evenodd" d="M3.77856 17.8024C3.77856 17.1218 3.88822 16.624 4.41356 16.1073C4.74342 15.7829 5.32909 15.4828 5.80546 15.4828H15.35C16.4151 15.4828 17.4138 16.5308 17.4138 17.4399C17.4138 18.2966 17.3109 18.6426 16.6864 19.2617C16.3235 19.6216 15.7377 19.832 15.0184 19.832H6.1739C5.78024 19.832 5.51788 19.7807 5.21992 19.683C4.45473 19.4324 3.77856 18.6063 3.77856 17.8024ZM10.9647 13.9605C11.6649 13.8001 11.9563 13.8238 12.6674 13.3881C12.749 13.338 12.8083 13.2968 12.8886 13.2431C12.981 13.1814 13.0365 13.1176 13.1389 13.0907L14.8064 14.7127L10.9647 14.7216V13.9605ZM8.04428 13.0817C8.21837 13.134 8.60139 13.5623 9.57924 13.8371C9.80191 13.8997 10.0115 13.911 10.2276 13.9605V14.7216H6.39509L8.04428 13.0817ZM10.9647 13.1994V12.1121C11.0678 12.0634 11.2853 12.0149 11.4075 11.9678C11.6257 11.8832 11.6833 11.8154 11.8123 11.7858L12.5951 12.5382C12.115 12.8666 11.5829 13.1488 10.9647 13.1994ZM9.37103 11.7771C9.50901 11.8154 9.56663 11.8832 9.78485 11.9678C9.907 12.0149 10.1245 12.0634 10.2276 12.1121V13.1994C9.78299 13.1629 9.32826 12.9767 8.96291 12.776C8.83148 12.7038 8.72206 12.6233 8.60622 12.547L9.37103 11.7771ZM13.1389 12.0034L12.3367 11.2338C12.4604 11.0481 12.6351 10.7378 12.6599 10.4449H13.7655C13.7655 10.8443 13.5486 11.352 13.359 11.6762C13.2859 11.801 13.2112 11.869 13.1389 12.0034ZM7.42684 10.4449H8.5324C8.55725 10.7378 8.73195 11.0481 8.86412 11.2422L8.06196 12.0118C7.89592 11.7721 7.77166 11.5831 7.6484 11.3143C7.55171 11.1034 7.42684 10.7463 7.42684 10.4449ZM3.99974 10.4449H6.653C6.653 10.958 6.95059 11.7053 7.21258 12.1054C7.32076 12.2707 7.43488 12.3963 7.5375 12.547L5.66699 14.368L5.34195 13.9814C5.22882 13.8394 5.15488 13.7296 5.05313 13.5767C4.02323 12.0296 4.06329 10.5848 3.99974 10.4449ZM15.5342 14.3592L13.6638 12.5382C13.8983 12.1734 13.9099 12.3096 14.2324 11.629C14.3661 11.3469 14.5393 10.8359 14.5393 10.4449H17.1926C17.1558 10.5201 17.1325 10.9118 17.1085 11.0508C17.0086 11.6307 16.8847 12.1177 16.6394 12.6553C16.384 13.2152 16.21 13.4891 15.8661 13.9606C15.7705 14.0918 15.6188 14.2351 15.5342 14.3592ZM10.4488 8.74139C10.8931 8.74139 11.2545 8.78079 11.6006 9.16698C11.6868 9.26317 11.8067 9.44082 11.8553 9.56887C12.0526 10.0881 11.9144 10.6622 11.5373 11.008C10.997 11.5036 10.2448 11.5183 9.67481 11.0249C9.16308 10.5819 9.08506 9.76257 9.57454 9.18632C9.73069 9.00246 10.1276 8.74139 10.4488 8.74139ZM12.3282 8.8501L13.0935 8.11674C13.271 8.23652 13.4418 8.57371 13.5344 8.78736C13.6483 9.05025 13.7655 9.32275 13.7655 9.68365H12.6599C12.6531 9.3844 12.4402 9.0584 12.3282 8.8501ZM8.5324 9.68365H7.42684C7.42684 9.20577 7.80282 8.31446 8.09028 8.12526L8.85559 8.85861C8.75211 9.0584 8.5392 9.3844 8.5324 9.68365ZM13.6548 7.54535L15.4885 5.76054C15.8877 6.03158 16.4488 7.07076 16.6278 7.44844C16.8386 7.89349 17.03 8.53613 17.1086 9.04137C17.1424 9.25745 17.1478 9.49457 17.1926 9.68365H14.5393C14.5393 9.25235 14.3723 8.81508 14.2343 8.49759C14.0574 8.09036 13.8803 7.87659 13.6548 7.54535ZM11.7844 8.35155C11.5781 8.21268 11.2624 8.04087 10.9647 8.01655V6.92922C11.717 6.92922 12.4564 7.51119 12.5861 7.54535L11.7844 8.35155ZM8.59719 7.55423C8.73455 7.51155 9.47588 6.92922 10.2276 6.92922V8.01655C9.92987 8.04087 9.61423 8.21268 9.4169 8.34267L8.59719 7.55423ZM6.653 9.68365H3.99974C4.04203 9.50503 4.05006 9.27302 4.07912 9.07323C4.24986 7.89981 4.76914 6.85407 5.5049 5.945C5.56511 5.87059 5.6184 5.81976 5.69481 5.76942L7.54652 7.57259C7.0835 8.09182 6.653 8.97219 6.653 9.68365ZM13.1112 7.04692C12.8241 6.80032 12.5182 6.62255 12.1684 6.47006C11.8781 6.34348 11.3578 6.16801 10.9647 6.16801C10.9647 5.16726 10.8881 5.52148 11.3824 4.54918C11.4406 4.43451 11.7804 3.70347 11.8491 3.70347C12.6059 3.70347 14.189 4.53544 14.8046 5.07351C14.9019 5.15851 14.8478 5.15437 14.9816 5.18952L13.1112 7.04692ZM6.20172 5.19839C6.33265 5.15753 6.36183 5.09503 6.53084 4.96055C7.0019 4.58566 7.40792 4.36703 7.95514 4.11435C8.24186 3.98193 9.05106 3.70347 9.30637 3.70347C9.44077 3.70347 9.72933 4.39049 9.79771 4.52498C10.3024 5.51771 10.2276 5.15729 10.2276 6.16801C9.86496 6.16801 9.28882 6.34834 9.02361 6.46982C8.86054 6.5446 8.68126 6.62778 8.53933 6.71849C8.27363 6.88873 8.34818 6.81735 8.09028 7.03793L6.20172 5.19839ZM9.73477 2.73166L11.4437 2.72485L10.6193 4.38539L10.5593 4.39208L9.73477 2.73166ZM8.75359 2.32625C8.75359 2.554 8.89528 2.76242 9.0115 2.97862L8.0794 3.25793C7.38023 3.52922 7.07361 3.67063 6.46865 4.06571C6.3392 4.15022 6.23226 4.23169 6.10528 4.32459C6.03394 4.37675 6.01082 4.39597 5.94332 4.45518C4.89018 5.38042 4.26977 6.1139 3.73071 7.46194C3.23134 8.71063 3.09608 10.1236 3.41271 11.6383C3.81021 13.54 5.01678 14.6767 5.06834 14.8666C4.59431 14.9752 3.95054 15.4369 3.6517 15.8291C2.84967 16.881 2.77277 18.1564 3.50532 19.2672C3.61362 19.4314 3.70536 19.5252 3.83048 19.6722C3.98899 19.8584 4.40935 20.1439 4.63759 20.2557C4.90254 20.3857 5.39276 20.5569 5.76862 20.5569H15.4237C16.4379 20.5569 17.5146 19.7707 17.9297 18.8535C18.3978 17.8189 18.2209 16.7214 17.5406 15.8291C17.2621 15.4637 16.6301 14.9827 16.124 14.8666C16.1596 14.7351 16.1554 14.7883 16.2418 14.6926L16.64 14.1782C16.9102 13.7769 17.096 13.4932 17.2926 13.044C17.563 12.4264 17.5844 12.3792 17.7677 11.6629C18.1291 10.2513 17.925 8.64886 17.472 7.48796C16.9773 6.2203 16.2595 5.29312 15.2877 4.4896L14.7682 4.09453C13.3085 3.13354 12.5476 3.15165 12.1808 2.97862C12.297 2.76242 12.4387 2.554 12.4387 2.32625C12.4387 2.14701 12.2892 2 12.1071 2H9.08518C8.90307 2 8.75359 2.14701 8.75359 2.32625Z" fill="#7C8496" stroke="#7C8496" stroke-width="0.2"/>
<path fill-rule="evenodd" clip-rule="evenodd" d="M9.49064 17.3312V16.9325H9.67486C9.8189 16.9325 9.86922 17.1003 9.83373 17.1933C9.78379 17.3241 9.66052 17.3312 9.49064 17.3312ZM8.7168 16.7875V18.491C8.7168 19.3527 9.33708 19.1334 9.44589 18.9182C9.51339 18.7846 9.49064 18.6391 9.49064 18.4547C9.71603 18.6172 10.0235 19.3782 10.471 19.0203C10.7618 18.7877 10.4974 18.4744 10.3666 18.3181C10.2577 18.1878 10.1725 18.0828 10.0803 17.9473C10.8168 17.7539 10.863 16.1714 9.56433 16.1714C9.03195 16.1714 8.7168 16.0989 8.7168 16.7875Z" fill="#7C8496"/>
<path fill-rule="evenodd" clip-rule="evenodd" d="M13.5444 16.6063V18.7446C13.5444 19.2206 14.2369 19.1071 14.6868 19.1071C15.0327 19.1071 15.192 18.6337 14.8896 18.4366C14.7284 18.3316 14.5188 18.346 14.3183 18.346V18.0198C14.5785 18.0198 14.9447 18.0614 14.9447 17.6212C14.9447 17.2829 14.5662 17.2587 14.3183 17.2587V16.9325C14.5145 16.9325 15.0554 16.9756 15.0554 16.5701C15.0554 16.0615 14.3883 16.1714 13.9498 16.1714C13.7395 16.1714 13.5444 16.3233 13.5444 16.6063Z" fill="#7C8496"/>
<path fill-rule="evenodd" clip-rule="evenodd" d="M11.333 16.5338V18.7446C11.333 19.2218 11.9538 19.1071 12.4754 19.1071C12.7301 19.1071 12.8557 18.8419 12.8174 18.6602C12.7454 18.319 12.3562 18.346 12.07 18.346V18.0198C12.3059 18.0198 12.7334 18.0246 12.7334 17.6936C12.7334 17.2452 12.3693 17.2587 12.07 17.2587V16.9324H12.4386C12.9273 16.9324 13.001 16.1714 12.3649 16.1714C11.9737 16.1714 11.333 16.0796 11.333 16.5338Z" fill="#7C8496"/>
<path fill-rule="evenodd" clip-rule="evenodd" d="M6.50586 16.5701V18.6722C6.50586 19.2964 7.2797 19.182 7.2797 18.7446V17.9835C7.61872 17.9835 7.94302 18.0436 7.94302 17.5848C7.94302 17.2008 7.51016 17.2587 7.2797 17.2587V16.9325C7.582 16.9325 8.01683 16.9784 8.01683 16.5339C8.01683 16.0709 7.34165 16.1714 6.91127 16.1714C6.69589 16.1714 6.50586 16.3583 6.50586 16.5701Z" fill="#7C8496"/>
<path fill-rule="evenodd" clip-rule="evenodd" d="M10.2273 10.0099C10.2273 10.5547 10.9644 10.6076 10.9644 9.97366C10.9644 9.91323 10.8827 9.80537 10.8392 9.77059C10.6028 9.58151 10.2273 9.72597 10.2273 10.0099Z" fill="#7C8496"/>
</g>
<defs>
<clipPath id="clip0_137_328">
<rect width="22" height="22" fill="white"/>
</clipPath>
</defs>
</svg>
