<svg width="22" height="22" viewBox="0 0 22 22" fill="none" xmlns="http://www.w3.org/2000/svg">
<g clip-path="url(#clip0_137_342)">
<path fill-rule="evenodd" clip-rule="evenodd" d="M11 3C13.1369 3 15.1458 3.83216 16.6569 5.34316C18.1678 6.85416 19 8.86312 19 11C19 13.1369 18.1678 15.1459 16.6569 16.6569C15.1458 18.1678 13.1369 19 11 19C8.86312 19 6.85416 18.1678 5.34313 16.6569C3.83216 15.1459 3 13.1369 3 11C3 8.86312 3.83216 6.85416 5.34313 5.34316C6.85416 3.83216 8.86312 3 11 3ZM16.2654 10.5246L18.046 10.5223C17.9827 9.57834 17.733 8.68469 17.3336 7.87769L15.7926 8.76912C16.0458 9.31094 16.2097 9.90238 16.2654 10.5246ZM15.322 7.95831L16.8631 7.06681C16.3492 6.30316 15.6901 5.645 14.9257 5.132L14.0362 6.67419C14.5349 7.02522 14.9704 7.46012 15.322 7.95831ZM14.1143 4.66244C13.3069 4.26406 12.4129 4.01562 11.4688 3.95344V5.73397C12.0911 5.78891 12.6827 5.95206 13.2248 6.20456L14.1143 4.66244ZM10.5312 5.73397V3.95344C9.57459 4.01644 8.66947 4.27069 7.85369 4.67838L8.75094 6.21591C9.29959 5.95694 9.89962 5.78972 10.5312 5.73397ZM7.94181 6.68944L7.04456 5.15188C6.28297 5.66862 5.62744 6.33028 5.11725 7.09666L6.66275 7.98028C7.01194 7.48025 7.445 7.04294 7.94181 6.68944ZM6.19606 8.79338L4.6505 7.90972C4.25528 8.71847 4.01038 9.61338 3.95175 10.558L5.73219 10.5512C5.78478 9.92856 5.94569 9.33631 6.19606 8.79338ZM5.73575 11.4888L3.95512 11.4955C4.02087 12.4392 4.27281 13.3322 4.67438 14.1383L6.21306 13.243C5.95844 12.7018 5.79303 12.1107 5.73575 11.4888ZM6.68563 14.0527L5.14678 14.9481C5.66259 15.7104 6.32347 16.3667 7.08919 16.8778L7.97478 15.3334C7.47522 14.9836 7.0385 14.5499 6.68563 14.0527ZM8.78731 15.8011L7.90172 17.3455C8.71003 17.7418 9.60462 17.9879 10.5491 18.0477L10.5446 16.2672C9.922 16.2138 9.32997 16.0522 8.78731 15.8011ZM11 6.65047C8.60166 6.65047 6.65044 8.60162 6.65044 11C6.65044 13.3984 8.60166 15.3496 11 15.3496C13.3983 15.3496 15.3495 13.3983 15.3495 11C15.3495 8.60166 13.3983 6.65047 11 6.65047ZM11.4821 16.2648L11.4866 18.0454C12.4304 17.9809 13.3238 17.7301 14.1303 17.3296L13.2369 15.7898C12.6954 16.0437 12.1042 16.2083 11.4821 16.2648ZM14.0472 15.3182L14.9407 16.8582C15.7036 16.3433 16.3608 15.6833 16.8729 14.9183L15.3296 14.0307C14.9792 14.5298 14.5449 14.9659 14.0472 15.3182ZM16.2666 11.4621C16.2125 12.0845 16.0501 12.6764 15.7983 13.2188L17.3415 14.1063C17.7389 13.2984 17.9861 12.4042 18.0471 11.4598L16.2666 11.4621ZM12.441 9.45181C12.7134 9.70817 13.0221 9.99871 13.2259 10.3713C13.5121 10.8947 13.5024 11.5021 13.2 11.9961C12.9025 12.4819 12.4398 12.7517 11.8972 12.7558H11.8849C11.7443 12.7558 11.6047 12.7375 11.4688 12.7021V13.2499H10.5313V12.7023C10.3914 12.7387 10.2475 12.7571 10.1028 12.7558C9.56019 12.7518 9.09753 12.482 8.80009 11.9962C8.49762 11.5021 8.48797 10.8947 8.77416 10.3713C8.97799 9.99861 9.28688 9.70796 9.55938 9.45156L9.56307 9.44808C9.60667 9.40707 9.64987 9.36643 9.69206 9.32591C9.86016 9.1645 10.0289 9.01022 10.1921 8.86103C10.3511 8.71574 10.5156 8.56526 10.6753 8.41185L11 8.1001L11.3247 8.41182C11.4845 8.56528 11.649 8.71563 11.808 8.861C11.9712 9.01019 12.1399 9.16447 12.308 9.32588C12.3514 9.3675 12.3961 9.40963 12.441 9.45181ZM11.8902 11.8183C12.1091 11.8167 12.2712 11.7176 12.4004 11.5066C12.5291 11.2964 12.5301 11.053 12.4033 10.8211C12.2711 10.5793 12.0308 10.3532 11.7984 10.1345C11.7512 10.0901 11.7043 10.0459 11.6587 10.0021C11.4988 9.84863 11.3344 9.69829 11.1754 9.55291L11.1498 9.52949C11.1003 9.48422 11.0503 9.43848 11 9.39222C10.9411 9.44647 10.8826 9.49997 10.8248 9.55281L10.8223 9.55508C10.664 9.69981 10.5004 9.84939 10.3414 10.0021C10.2958 10.0459 10.2491 10.0899 10.2019 10.1343C9.96966 10.3529 9.72893 10.5794 9.59672 10.8211C9.46997 11.053 9.471 11.2964 9.59966 11.5066C9.72884 11.7176 9.89097 11.8167 10.1099 11.8183H10.1151C10.2527 11.8183 10.3903 11.7773 10.5134 11.6997L11 11.3948L11.4855 11.699C11.6113 11.7783 11.7511 11.8198 11.8902 11.8183Z" fill="#7C8496"/>
</g>
<defs>
<clipPath id="clip0_137_342">
<rect width="22" height="22" fill="white"/>
</clipPath>
</defs>
</svg>
