<svg width="22" height="22" viewBox="0 0 22 22" fill="none" xmlns="http://www.w3.org/2000/svg">
<g clip-path="url(#clip0_137_363)">
<path d="M11.9024 2.65437C12.1579 2.47398 12.4928 2.45038 12.7714 2.59046C13.0535 2.7319 13.2336 3.0183 13.2336 3.33397C13.2336 4.18146 13.4866 4.88456 14.0556 5.7465L14.3292 6.14114C14.4411 6.29629 14.5644 6.46056 14.7647 6.72322L15.2533 7.36661C16.525 9.07064 17.1639 10.4349 17.3138 12.3304L17.3495 12.94C17.3501 12.9622 17.3504 12.9823 17.3504 13.0002C17.3504 16.5029 14.4927 19.363 10.9317 19.4952L10.6752 19.5C6.99735 19.5 4 16.5878 4 13.0002L4.00385 12.7156L4.00758 12.645C4.05451 11.0551 4.43917 9.84105 5.05958 8.96134C5.4574 8.39725 5.87504 8.06567 6.19194 7.91666C6.43182 7.80129 6.71005 7.80726 6.95008 7.92909C7.1879 8.05264 7.35308 8.28141 7.39254 8.54554C7.4684 9.04801 7.66303 9.59857 7.97644 9.9868L8.09954 10.1244L8.13411 10.1563L8.13676 10.0871C8.16481 9.38657 8.22491 8.75491 8.33287 8.15911L8.40352 7.80568L8.48641 7.45928C8.93493 5.73863 10.1626 3.96005 11.6658 2.8259L11.9024 2.65437ZM12.2432 3.64108C10.9279 4.64527 9.84233 6.22219 9.45419 7.71119C9.23922 8.5382 9.14701 9.44764 9.12327 10.5477L9.11747 10.9694L9.1135 11.5797L8.51586 11.4557C7.7207 11.2907 7.15854 10.7154 6.78101 9.90339C6.65829 9.63947 6.56741 9.38049 6.50359 9.15087L6.46072 8.98455L6.44807 8.92622L6.38749 8.97314C6.29756 9.04602 6.19742 9.1415 6.09227 9.26213L5.98563 9.39124L5.87681 9.53769C5.40871 10.2014 5.0957 11.1312 5.01972 12.3935L5.00131 12.8197C5.00035 12.8679 5.00003 12.9248 5.00003 13.0002C5.00003 15.5066 6.74166 17.631 9.11723 18.2893C8.54861 17.8386 8.16919 17.1484 8.12179 16.3687L8.11695 16.1382L8.11964 16.0592C8.13174 15.6227 8.20226 15.2539 8.32083 14.9485L8.38408 14.801L8.83289 13.8504L9.28716 14.7984C9.4084 15.0515 9.56359 15.2136 9.75938 15.2789L9.81215 15.2914L9.81359 15.2224C9.82007 14.7327 9.84785 14.3687 9.91899 14.0174L9.95828 13.8422C10.0691 13.3935 10.3079 12.9259 10.6228 12.523L10.7623 12.3545L11.3574 11.6759L11.6171 12.5403C11.7059 12.836 11.8314 13.0617 12.1301 13.4836L12.2504 13.6515C12.8481 14.4767 13.1102 14.9814 13.2024 15.7668L13.2235 15.9884L13.2327 16.139C13.2333 16.1599 13.2336 16.1804 13.2336 16.2029C13.2336 17.0506 12.8413 17.8077 12.2319 18.2895C14.6085 17.6316 16.3503 15.5064 16.3503 13.0002L16.3167 12.4075C16.1927 10.8391 15.6897 9.68346 14.664 8.25439L14.2344 7.6766L13.6404 6.89339C13.5525 6.77475 13.4792 6.67286 13.4001 6.56021C12.7911 5.69247 12.4288 4.9378 12.294 4.10717L12.2603 3.85551L12.2432 3.64108ZM11.0672 13.6983L11.0566 13.7206C11.0013 13.8431 10.9581 13.9649 10.9292 14.0816C10.8391 14.448 10.812 14.8414 10.812 15.4783C10.812 15.942 10.4316 16.3117 9.96896 16.3117C9.68764 16.3117 9.43485 16.2486 9.21241 16.1336L9.11914 16.0794L9.11679 16.2029C9.11679 17.1053 9.82019 17.8333 10.6752 17.8333C11.5301 17.8333 12.2336 17.1053 12.2336 16.2029L12.2264 16.0652C12.1792 15.4322 12.0222 15.0652 11.571 14.421L11.4405 14.2381C11.3276 14.0822 11.2313 13.9458 11.148 13.8215L11.0672 13.6983Z" fill="#7C8496"/>
</g>
<defs>
<clipPath id="clip0_137_363">
<rect width="22" height="22" fill="white"/>
</clipPath>
</defs>
</svg>
