<svg width="22" height="22" viewBox="0 0 22 22" fill="none" xmlns="http://www.w3.org/2000/svg">
<g clip-path="url(#clip0_137_356)">
<path d="M17.6701 10.273C17.794 10.3074 17.9243 10.3263 18.0591 10.3263C18.8536 10.3263 19.5 9.6863 19.5 8.89967C19.5 8.11308 18.8536 7.47312 18.0591 7.47312C17.2647 7.47312 16.6183 8.11304 16.6183 8.89967C16.6183 9.01625 16.6328 9.12948 16.6596 9.23799L13.9314 10.5675L11.8223 7.5844C12.1858 7.32517 12.423 6.90293 12.423 6.42655C12.423 5.63995 11.7767 5 10.9822 5C10.1877 5 9.54139 5.63995 9.54139 6.42658C9.54139 6.90001 9.77569 7.32004 10.1354 7.57967L8.02296 10.5675L5.29696 9.23909C5.35168 9.08854 5.38168 8.92639 5.38168 8.75741C5.38168 7.97081 4.73536 7.33086 3.94086 7.33086C3.14639 7.33086 2.5 7.97078 2.5 8.75741C2.5 9.544 3.14636 10.184 3.94086 10.184C4.04377 10.184 4.14412 10.173 4.24099 10.1527L5.91745 14.8201V17.1357H16.0314V14.8353L17.6701 10.273ZM18.0591 8.5404C18.2592 8.5404 18.4221 8.70156 18.4221 8.89971C18.4221 9.09782 18.2593 9.25905 18.0591 9.25905C17.859 9.25905 17.6962 9.09786 17.6962 8.89971C17.6962 8.70156 17.859 8.5404 18.0591 8.5404ZM3.9409 9.11671C3.74076 9.11671 3.57796 8.95549 3.57796 8.75737C3.57796 8.55926 3.74076 8.39807 3.9409 8.39807C4.14099 8.39807 4.3038 8.55922 4.3038 8.75737C4.3038 8.95549 4.14103 9.11671 3.9409 9.11671ZM10.9822 6.06724C11.1823 6.06724 11.3452 6.22843 11.3452 6.42658C11.3452 6.62474 11.1823 6.78589 10.9822 6.78589C10.7821 6.78589 10.6193 6.62474 10.6193 6.42658C10.6193 6.22843 10.7821 6.06724 10.9822 6.06724ZM6.99537 15.9861V15.2617H14.9535V15.9861H6.99537ZM15.1176 14.1944H6.83677L5.5239 10.5392L8.37608 11.929L10.9772 8.25001L13.5783 11.929L16.4305 10.5392L15.1176 14.1944Z" fill="#7C8496"/>
</g>
<defs>
<clipPath id="clip0_137_356">
<rect width="22" height="22" fill="white"/>
</clipPath>
</defs>
</svg>
