<svg width="22" height="22" viewBox="0 0 22 22" fill="none" xmlns="http://www.w3.org/2000/svg">
<g clip-path="url(#clip0_137_349)">
<path d="M15.5875 4.5H6.41246L2.5 8.83795L11 18.2573L19.5 8.83795L15.5875 4.5ZM15.1547 5.53058L17.6728 8.32252H14.4714L12.9702 5.53058H15.1547ZM11.8304 5.53058L13.3316 8.32252H8.66838L10.1695 5.53058H11.8304ZM6.84529 5.53061H9.02989L7.52871 8.32256H4.32717L6.84529 5.53061ZM4.32757 9.35314H7.48097L9.73553 15.346L4.32757 9.35314ZM8.54971 9.35314H13.4503L11 15.8663L8.54971 9.35314ZM12.2645 15.346L14.519 9.35314H17.6724L12.2645 15.346Z" fill="#7C8496"/>
</g>
<defs>
<clipPath id="clip0_137_349">
<rect width="22" height="22" fill="white"/>
</clipPath>
</defs>
</svg>
