<svg viewBox="0 0 46 46" fill="none" xmlns="http://www.w3.org/2000/svg" class="CoinImage_icon__OMzEC CoinImage_sizeL__UH0JW WalletSelect_coinImage___RgPB"><path d="M23 46c12.703 0 23-10.297 23-23S35.703 0 23 0 0 10.297 0 23s10.297 23 23 23Z" fill="#F8A749"></path><path d="M22.999 42.166c10.585 0 19.166-8.58 19.166-19.166S33.585 3.833 23 3.833 3.832 12.414 3.832 23c0 10.585 8.581 19.166 19.167 19.166Z" fill="#D6722B"></path><path d="M30.193 23.514c-.486-.628-1.219-1.06-2.199-1.294 1.248-.636 1.797-1.717 1.646-3.242-.05-.553-.203-1.032-.458-1.438a2.879 2.879 0 0 0-1.037-.98 5.708 5.708 0 0 0-1.42-.566 11.21 11.21 0 0 0-1.76-.283v-3.166h-1.934v3.079c-.335 0-.846.008-1.533.025v-3.104h-1.936v3.166a43.46 43.46 0 0 1-1.218.013l-2.664-.013v2.061h1.394c.637 0 1.01.285 1.119.855v3.606c.084 0 .15.005.2.013h-.2v5.051c-.067.427-.31.641-.729.641h-1.395l-.39 2.3h2.514c.16 0 .39.002.691.006.302.004.528.006.678.006v3.204h1.936v-3.166c.352.008.863.012 1.533.012v3.154h1.935V30.25a15.028 15.028 0 0 0 1.828-.189 7.442 7.442 0 0 0 1.527-.433 4.122 4.122 0 0 0 1.218-.736 3.47 3.47 0 0 0 .811-1.118c.213-.452.35-.976.408-1.57.11-1.165-.079-2.061-.565-2.69Zm-8.658-5.604.497-.006.678-.013c.18-.004.423.007.73.032.305.025.563.058.772.1.21.042.44.111.69.207.252.097.453.214.604.352.15.138.279.314.383.528.105.214.157.459.157.735 0 .235-.037.448-.113.641a1.209 1.209 0 0 1-.339.484c-.15.13-.306.243-.465.34a2.128 2.128 0 0 1-.61.232c-.246.058-.462.104-.646.138a5.303 5.303 0 0 1-.691.069 42.59 42.59 0 0 1-.629.025c-.142.004-.337.004-.584 0a49.041 49.041 0 0 0-.434-.006V17.91Zm5.284 8.557c-.08.193-.182.36-.307.503a1.744 1.744 0 0 1-.497.377 4.25 4.25 0 0 1-.597.264 4.811 4.811 0 0 1-.697.176 9.165 9.165 0 0 1-1.452.157 16.531 16.531 0 0 1-1.269.012 40.688 40.688 0 0 0-.465-.006v-4.247c.067 0 .266-.004.597-.013.331-.008.601-.012.81-.012.21 0 .5.012.868.038.368.024.678.062.93.112.25.05.525.128.823.233.297.105.538.232.722.383.185.151.34.344.465.578.126.235.189.503.189.804 0 .235-.04.448-.12.641Z" fill="#fff"></path></svg>