<svg width="19" height="19" viewBox="0 0 19 19" fill="none" xmlns="http://www.w3.org/2000/svg">
<path d="M16.3262 3.66089L17.6565 5.82852C18.7773 7.65191 18.8343 10.1392 17.5683 12.6208C15.4241 16.8237 10.2978 19.4301 6.11596 18.4314C4.40352 18.0153 3.11553 17.0696 2.34015 15.8042L1.67319 14.7223C1.4527 14.3603 1.23099 13.9991 1.00806 13.6384C1.78527 14.9019 3.07327 15.8496 4.78386 16.2562C8.96572 17.2493 14.0938 14.6485 16.2381 10.4456C17.504 7.964 17.4452 5.4786 16.3262 3.66089Z" fill="url(#paint0_linear_1_541)"/>
<path d="M12.5486 1.03552C16.7305 2.02854 18.3804 6.24276 16.2381 10.4456C14.0957 14.6485 8.96574 17.2549 4.78387 16.2562C0.602009 15.2575 -1.04795 11.049 1.09626 6.84614C3.24048 2.64327 8.36859 0.0405995 12.5486 1.03552Z" fill="url(#paint1_linear_1_541)"/>
<g style="mix-blend-mode:overlay" opacity="0.4">
<path d="M9.5739 0.897461C8.15898 1.08446 6.79223 1.55004 5.54822 2.26878L13.3074 13.9959C14.4325 13.1063 15.3759 11.9969 16.0837 10.7313L9.5739 0.897461Z" fill="white"/>
<path d="M2.88772 4.34375C2.17427 5.08266 1.57063 5.92588 1.09628 6.84617C0.650215 7.70178 0.353568 8.63137 0.219849 9.5926L4.59831 16.2128C4.66078 16.2298 4.72142 16.2487 4.78205 16.2638C6.58451 16.6913 8.56153 16.453 10.4007 15.6964L2.88772 4.34375Z" fill="white"/>
</g>
<g style="mix-blend-mode:overlay" opacity="0.7">
<path d="M16.2381 10.4456C14.0938 14.6485 8.96574 17.2549 4.78387 16.2562C3.49895 15.9803 2.33502 15.2844 1.46558 14.2721C2.33931 15.3373 3.53492 16.0699 4.86104 16.3527C9.04291 17.3457 14.171 14.7449 16.3134 10.5421C17.504 8.20044 17.5224 5.87581 16.5927 4.08836L16.3263 3.66089C17.4452 5.4786 17.504 7.964 16.2381 10.4456Z" fill="white"/>
</g>
<g style="mix-blend-mode:multiply">
<path d="M17.493 12.5187C15.3488 16.7215 10.2225 19.3223 6.03701 18.3293C4.7562 18.0507 3.59655 17.355 2.72974 16.3451C3.60412 17.4095 4.79945 18.142 6.1252 18.4258C10.2997 19.4169 15.426 16.8161 17.5702 12.6133C18.759 10.2811 18.7792 7.94697 17.8477 6.16142L17.5812 5.72638C18.702 7.54976 18.759 10.0371 17.493 12.5187Z" fill="#E86B05"/>
</g>
<path d="M11.6299 2.83624C14.8233 3.59284 16.0837 6.80835 14.4466 10.0239C12.8095 13.2394 8.89591 15.216 5.70256 14.4575C2.5092 13.699 1.24876 10.4854 2.88586 7.26987C4.52296 4.05436 8.43841 2.07776 11.6299 2.83624Z" fill="url(#paint2_linear_1_541)"/>
<path d="M12.6827 8.13804C12.672 8.1217 12.6597 8.1065 12.646 8.09265L12.3465 7.71435L10.7553 8.47094L10.6671 6.93695C10.6657 6.81932 10.6263 6.70552 10.5551 6.61351L10.2317 6.18793L9.68047 6.77429L7.97723 8.13047L7.61894 7.1034C7.58913 7.01676 7.53931 6.93886 7.47379 6.87642L7.13938 6.4168L6.42281 7.44387L4.30615 10.4173L4.67363 10.9223C4.76815 11.0365 4.89785 11.114 5.0411 11.1417L10.3364 12.3995C10.5909 12.4536 10.8559 12.4084 11.0799 12.2728C11.304 12.1372 11.4711 11.9209 11.5491 11.6656C11.8063 10.8901 12.4329 9.34859 12.6919 8.57308C12.7208 8.50412 12.7349 8.42959 12.7333 8.35453C12.7317 8.27947 12.7145 8.20564 12.6827 8.13804Z" fill="#E86B05"/>
<path d="M12.1499 7.53089C11.9641 7.50738 11.7763 7.55155 11.6189 7.65573L10.4062 8.30829L10.2996 6.45653C10.3075 6.35997 10.283 6.26356 10.2301 6.18336C10.1773 6.10316 10.0994 6.04403 10.0093 6.01582C9.89489 6.0044 9.7794 6.01842 9.67067 6.05692C9.56194 6.09543 9.46251 6.15753 9.37912 6.23901L7.6134 7.64438L7.25511 6.61731C7.2362 6.54154 7.19874 6.47203 7.14631 6.41541C7.09388 6.35879 7.02823 6.31694 6.95562 6.29387C6.77188 6.24847 6.52935 6.36953 6.32724 6.65703C5.82196 7.3739 4.91246 8.84736 4.40718 9.56612C4.0691 10.0466 4.17567 10.527 4.68095 10.648L9.97626 11.9059C10.2295 11.9579 10.4924 11.912 10.7148 11.777C10.9372 11.6419 11.1034 11.4272 11.1816 11.1739C11.4388 10.3984 12.0654 8.85682 12.3244 8.07942C12.4181 7.76922 12.341 7.57629 12.1499 7.53089Z" fill="url(#paint3_linear_1_541)"/>
<path d="M3.25334 7.76543C4.89044 4.54991 8.80589 2.56954 11.9974 3.32802C12.9556 3.5318 13.8272 4.04066 14.4889 4.78257C13.8917 3.83683 12.9216 3.14076 11.6391 2.83623C8.4476 2.07964 4.53216 4.0638 2.89506 7.27175C1.79263 9.42993 2.00577 11.5881 3.2313 13.0029C2.33282 11.6051 2.27402 9.68338 3.25334 7.76543Z" fill="#E86B05"/>
<g style="mix-blend-mode:overlay" opacity="0.4">
<path d="M12.1499 7.53089C11.9642 7.50738 11.7763 7.55155 11.6189 7.65573L10.4063 8.30829L10.2997 6.45653C10.3076 6.35997 10.283 6.26356 10.2302 6.18336C10.1774 6.10316 10.0994 6.04403 10.0094 6.01582C9.89495 6.0044 9.77946 6.01842 9.67073 6.05692C9.562 6.09543 9.46257 6.15753 9.37918 6.23901L8.59094 6.86509L11.2662 10.9053C11.5583 10.0806 12.0838 8.77549 12.3153 8.07942C12.4182 7.76922 12.341 7.57629 12.1499 7.53089Z" fill="white"/>
<path d="M7.50684 11.3195L5.37365 8.104C5.0172 8.65632 4.65891 9.21052 4.40535 9.57368C4.06727 10.0541 4.17384 10.5346 4.67912 10.6556L7.50684 11.3195Z" fill="white"/>
</g>
<defs>
<linearGradient id="paint0_linear_1_541" x1="1.00806" y1="11.1436" x2="18.5072" y2="11.1436" gradientUnits="userSpaceOnUse">
<stop stop-color="#FFA705"/>
<stop offset="0.45" stop-color="#FF9605"/>
<stop offset="1" stop-color="#FF8605"/>
</linearGradient>
<linearGradient id="paint1_linear_1_541" x1="4.96394" y1="3.16532" x2="14.3533" y2="16.2769" gradientUnits="userSpaceOnUse">
<stop stop-color="#FFEA05"/>
<stop offset="0.59" stop-color="#FFCB05"/>
<stop offset="1" stop-color="#FFBB05"/>
</linearGradient>
<linearGradient id="paint2_linear_1_541" x1="2.16929" y1="8.64686" x2="15.165" y2="8.64686" gradientUnits="userSpaceOnUse">
<stop stop-color="#FFA705"/>
<stop offset="0.45" stop-color="#FF9605"/>
<stop offset="1" stop-color="#FF8605"/>
</linearGradient>
<linearGradient id="paint3_linear_1_541" x1="4.54682" y1="3.46421" x2="13.938" y2="16.5757" gradientUnits="userSpaceOnUse">
<stop stop-color="#FFEA05"/>
<stop offset="0.59" stop-color="#FFCB05"/>
<stop offset="1" stop-color="#FFBB05"/>
</linearGradient>
</defs>
</svg>
